<?xml version="1.0" standalone="no"?>
<!DOCTYPE svg PUBLIC "-//W3C//DTD SVG 20010904//EN"
 "http://www.w3.org/TR/2001/REC-SVG-20010904/DTD/svg10.dtd">
<svg version="1.0" xmlns="http://www.w3.org/2000/svg"
 width="512.000000pt" height="512.000000pt" viewBox="0 0 512.000000 512.000000"
 preserveAspectRatio="xMidYMid meet">

<g transform="translate(0.000000,512.000000) scale(0.100000,-0.100000)"
fill="#000000" stroke="none">
<path d="M2190 4874 c-108 -29 -184 -97 -238 -211 l-27 -58 -3 -750 c-2 -536
0 -767 8 -810 24 -122 96 -215 210 -269 l65 -31 577 -5 577 -5 33 -31 c332
-316 754 -704 762 -701 7 2 13 117 16 340 l5 337 28 27 27 28 198 5 c194 5
198 6 262 36 110 53 184 145 209 262 15 74 15 1480 0 1554 -30 142 -130 248
-264 283 -87 22 -2361 22 -2445 -1z m1951 -652 c43 -47 41 -102 -5 -148 l-34
-34 -681 0 c-468 0 -687 3 -704 11 -77 35 -72 167 7 199 11 5 328 8 704 7
l684 -2 29 -33z m-20 -625 c48 -32 62 -93 34 -147 -32 -62 -9 -60 -740 -60
-718 0 -702 -1 -739 52 -37 53 -5 149 56 167 20 6 296 9 698 8 617 -2 667 -3
691 -20z"/>
<path d="M744 4081 c-84 -51 -62 -173 37 -201 48 -14 336 -12 379 3 37 13 80
67 80 99 0 35 -32 88 -61 103 -22 12 -71 15 -216 15 -166 0 -192 -2 -219 -19z"/>
<path d="M495 3106 c-145 -36 -246 -143 -275 -291 -8 -43 -10 -274 -8 -810 l3
-750 23 -50 c35 -75 70 -122 121 -159 87 -62 116 -69 333 -75 l198 -6 27 -28
28 -27 5 -338 c4 -299 7 -337 21 -337 9 0 183 158 388 350 205 193 389 358
409 367 34 16 87 18 567 18 592 0 607 1 702 66 61 42 94 83 131 162 l27 57 3
633 3 632 -498 0 c-473 0 -502 1 -573 21 -195 54 -356 215 -409 409 -12 41
-21 96 -21 122 l0 48 -577 -1 c-424 0 -591 -4 -628 -13z m700 -968 c55 -49 48
-133 -14 -175 -19 -13 -44 -23 -56 -23 -35 0 -89 42 -101 80 -24 73 24 140
101 140 31 0 51 -6 70 -22z m651 -12 c25 -25 34 -43 34 -67 0 -49 -32 -95 -74
-109 -98 -32 -181 72 -129 160 20 35 47 48 97 49 30 1 45 -6 72 -33z m645 5
c56 -57 32 -155 -45 -181 -43 -14 -77 -5 -109 28 -33 36 -41 74 -23 116 19 45
52 66 104 66 35 0 49 -6 73 -29z"/>
<path d="M3969 1185 c-28 -15 -59 -69 -59 -103 0 -32 43 -86 80 -99 43 -15
331 -17 379 -3 99 28 121 150 37 201 -28 17 -52 19 -221 19 -145 -1 -196 -4
-216 -15z"/>
</g>
</svg>
