<?xml version="1.0" encoding="UTF-8"?>
<svg version="1.1" xmlns="http://www.w3.org/2000/svg" width="512" height="512">
<path d="M0 0 C0.68427703 -0.00205263 1.36855406 -0.00410527 2.07356676 -0.0062201 C4.37132538 -0.01188402 6.66902393 -0.0104336 8.96678829 -0.00901413 C10.6289713 -0.01159812 12.29115369 -0.01461138 13.95333523 -0.01801753 C18.52511005 -0.02608693 23.09686917 -0.02787707 27.66865027 -0.028615 C32.59794926 -0.03046568 37.5272401 -0.03801315 42.45653439 -0.04475021 C53.23769082 -0.05833416 64.01884354 -0.0643585 74.8000071 -0.06876087 C81.5325114 -0.07152348 88.26501426 -0.0757609 94.99751759 -0.08026505 C113.63932772 -0.09245834 132.28113671 -0.10275718 150.92295074 -0.10614014 C152.71278164 -0.10646949 152.71278164 -0.10646949 154.53877073 -0.10680549 C155.73484371 -0.10702377 156.93091668 -0.10724204 158.16323429 -0.10746694 C160.58692364 -0.1079104 163.01061299 -0.10835697 165.43430233 -0.10880661 C166.63653547 -0.10902804 167.8387686 -0.10924947 169.07743304 -0.10947761 C188.5526699 -0.1134246 208.02786931 -0.13087534 227.5030917 -0.15416613 C247.50000887 -0.17788767 267.49690726 -0.19034237 287.49383873 -0.19150805 C298.72050511 -0.19242442 309.94712273 -0.19816701 321.17377567 -0.21632767 C330.73487104 -0.23173954 340.29590256 -0.23684272 349.85700799 -0.22858956 C354.73339412 -0.22468679 359.60965173 -0.2255945 364.486022 -0.23964691 C368.95529677 -0.25240812 373.42434676 -0.25116884 377.89362132 -0.2390562 C379.50538614 -0.23710303 381.11716701 -0.24015996 382.72890932 -0.24890056 C401.28709443 -0.34312339 417.38308946 3.86692222 431.04880428 16.94417191 C445.02164617 30.86248795 451.47074864 46.53545939 451.51009309 66.20305878 C451.50360947 67.74799501 451.49683961 69.29293006 451.4898138 70.83786392 C451.49327603 72.50680342 451.49804436 74.17574062 451.50399554 75.8446731 C451.51645755 80.40262301 451.51035714 84.96038318 451.50103688 89.51833355 C451.49422703 94.44477217 451.50473716 99.37117901 451.51297665 104.29761124 C451.52629525 113.93709908 451.52344467 123.57651674 451.51473872 133.2160073 C451.50795561 141.05173128 451.50704818 148.88743562 451.51031017 156.7231617 C451.51076987 157.83960581 451.51122957 158.95604992 451.5117032 160.10632567 C451.5126624 162.37455222 451.51363504 164.64277877 451.51462097 166.91100531 C451.52316928 188.16462033 451.5133493 209.41819649 451.49721988 230.67180514 C451.48381537 248.89900674 451.48614698 267.12615102 451.49997616 285.35335159 C451.51603867 306.53397214 451.5223473 327.71455867 451.51313937 348.89518446 C451.51218375 351.15462617 451.51124063 353.41406788 451.51031017 355.6735096 C451.50984735 356.78512246 451.50938452 357.89673532 451.50890767 359.04203342 C451.50631993 366.86670642 451.51068407 374.6913578 451.51774883 382.51602745 C451.52617139 392.05393468 451.52386769 401.59176786 451.5079066 411.12966663 C451.50003439 415.99381924 451.49691445 420.85784849 451.50685406 425.72200012 C451.51582304 430.1786183 451.5108319 434.63499926 451.4949214 439.09159606 C451.49158294 440.69976462 451.49324652 442.30795341 451.50054877 443.91610885 C451.53752745 452.73982314 451.04179683 460.7367915 448.10886288 469.13142776 C447.67417834 470.44043795 447.67417834 470.44043795 447.23071229 471.77589279 C441.79740389 487.58902328 428.64312135 499.65279884 414.10886288 507.13142776 C406.18497811 510.35312474 398.78028135 512.25409877 390.21772575 512.26285553 C389.19131021 512.26593448 389.19131021 512.26593448 388.14415899 512.26907563 C385.84640038 512.27473955 383.54870182 512.27328913 381.25093746 512.27186966 C379.58875445 512.27445365 377.92657206 512.27746691 376.26439053 512.28087306 C371.69261571 512.28894246 367.12085658 512.2907326 362.54907548 512.29147053 C357.61977649 512.29332121 352.69048565 512.30086868 347.76119137 512.30760574 C336.98003493 512.32118969 326.19888222 512.32721403 315.41771865 512.3316164 C308.68521435 512.33437901 301.95271149 512.33861643 295.22020817 512.34312057 C276.57839803 512.35531387 257.93658905 512.36561271 239.29477501 512.36899567 C237.50494412 512.36932502 237.50494412 512.36932502 235.67895502 512.36966102 C234.48288205 512.3698793 233.28680907 512.37009757 232.05449146 512.37032247 C229.63080211 512.37076593 227.20711277 512.37121249 224.78342342 512.37166214 C223.58119029 512.37188357 222.37895715 512.372105 221.14029271 512.37233314 C201.66505586 512.37628013 182.18985645 512.39373087 162.71463405 512.41702166 C142.71771688 512.4407432 122.72081849 512.4531979 102.72388703 512.45436358 C91.49722064 512.45527995 80.27060302 512.46102254 69.04395008 512.4791832 C59.48285472 512.49459507 49.92182319 512.49969825 40.36071777 512.49144509 C35.48433164 512.48754231 30.60807402 512.48845003 25.73170376 512.50250244 C21.26242898 512.51526364 16.793379 512.51402437 12.32410444 512.50191173 C10.71233961 512.49995856 9.10055874 512.50301549 7.48881643 512.51175609 C-11.06936868 512.60597892 -27.16536371 508.39593331 -40.83107853 495.31868362 C-54.80214617 481.40213491 -61.2530099 465.72993122 -61.29236734 446.06445885 C-61.28588371 444.52021163 -61.27911385 442.97596558 -61.27208805 441.43172073 C-61.27555028 439.76349393 -61.28031862 438.09526942 -61.28626978 436.42704964 C-61.29873179 431.87103032 -61.29263137 427.31520081 -61.28331113 422.75918102 C-61.27650122 417.83476828 -61.28701147 412.91038734 -61.29525089 407.98598099 C-61.30856973 398.35016814 -61.30571873 388.71442551 -61.29701297 379.07860994 C-61.29022955 371.24527823 -61.28932255 363.41196616 -61.29258442 355.57863235 C-61.29304412 354.46247697 -61.29350382 353.34632158 -61.29397745 352.1963433 C-61.29493665 349.92868248 -61.29590929 347.66102166 -61.29689522 345.39336085 C-61.3054437 324.14448446 -61.29562348 302.89564693 -61.27949412 281.64677691 C-61.26609144 263.42614628 -61.26841969 245.20557299 -61.2822504 226.98494339 C-61.29831578 205.81053918 -61.30461978 184.63616902 -61.29541361 163.46175957 C-61.294458 161.20258078 -61.29351488 158.94340198 -61.29258442 156.68422318 C-61.29212159 155.57275102 -61.29165877 154.46127887 -61.29118191 153.31612575 C-61.2885949 145.49492821 -61.2929568 137.67375232 -61.30002308 129.85255814 C-61.30844891 120.31724134 -61.30613514 110.78199861 -61.29018085 101.24669027 C-61.28231275 96.38443903 -61.27918161 91.52231113 -61.2891283 86.66006088 C-61.29810598 82.20400726 -61.29309197 77.74819066 -61.27719565 73.29215837 C-61.27386082 71.6853179 -61.27551248 70.07845716 -61.28282301 68.47162986 C-61.36069282 49.92488191 -57.13697931 33.85711551 -44.08278751 20.19368362 C-32.10110841 8.15063345 -17.25717035 0.01764858 0 0 Z " fill="#1976D2" transform="translate(60.89113712310791,-0.13142776489257813)"/>
<path d="M0 0 C0.74425767 -0.00012053 1.48851534 -0.00024107 2.25532627 -0.00036526 C4.64038246 0.00037512 7.02535836 0.00796302 9.41040039 0.01586914 C10.89253705 0.01734128 12.37467424 0.01836031 13.85681152 0.0189209 C19.32390121 0.0241423 24.79097973 0.03810356 30.25805664 0.05102539 C48.60399414 0.08196289 48.60399414 0.08196289 67.32055664 0.11352539 C67.32055664 26.51352539 67.32055664 52.91352539 67.32055664 80.11352539 C43.38305664 80.42602539 43.38305664 80.42602539 35.87939453 80.50146484 C33.89231531 80.53378343 31.90525291 80.56716116 29.91821289 80.60180664 C28.90625854 80.60805054 27.8943042 80.61429443 26.85168457 80.62072754 C20.18302166 80.75453872 13.20708681 81.17115347 7.69789124 85.34199524 C4.31040261 89.698989 4.06213215 94.60768903 4.00170898 99.94506836 C3.99155573 100.60990801 3.98140247 101.27474766 3.97094154 101.95973396 C3.94053603 104.09172208 3.92321641 106.22357832 3.90649414 108.35571289 C3.88002808 110.32229858 3.88002808 110.32229858 3.85302734 112.32861328 C3.79007209 117.21512703 3.7438083 122.10184433 3.69555664 126.98852539 C3.57180664 137.91977539 3.44805664 148.85102539 3.32055664 160.11352539 C29.72055664 160.11352539 56.12055664 160.11352539 83.32055664 160.11352539 C81.45756857 165.70248961 79.60228441 171.09797175 77.42553711 176.54516602 C77.01763947 177.56885284 77.01763947 177.56885284 76.60150146 178.61322021 C75.71615341 180.83310876 74.82709922 183.05148947 73.93774414 185.26977539 C73.31650959 186.82387358 72.69542854 188.37803313 72.07449341 189.93225098 C70.78010028 193.17043362 69.4838588 196.4078683 68.1862793 199.64477539 C66.52043304 203.80079152 64.8592885 207.95866845 63.1994915 212.11710358 C61.92145096 215.31760943 60.64096182 218.51713108 59.35971451 221.71635437 C58.74572882 223.25031639 58.13251442 224.78458736 57.52007675 226.31916809 C56.66813919 228.45280115 55.81292125 230.58508906 54.95678711 232.71704102 C54.47063934 233.93121704 53.98449158 235.14539307 53.48361206 236.3963623 C52.32055664 239.11352539 52.32055664 239.11352539 51.32055664 240.11352539 C35.48055664 240.11352539 19.64055664 240.11352539 3.32055664 240.11352539 C3.32055664 298.19352539 3.32055664 356.27352539 3.32055664 416.11352539 C-28.35944336 416.11352539 -60.03944336 416.11352539 -92.67944336 416.11352539 C-92.67944336 358.03352539 -92.67944336 299.95352539 -92.67944336 240.11352539 C-113.79944336 240.11352539 -134.91944336 240.11352539 -156.67944336 240.11352539 C-156.67944336 213.71352539 -156.67944336 187.31352539 -156.67944336 160.11352539 C-135.55944336 160.11352539 -114.43944336 160.11352539 -92.67944336 160.11352539 C-92.71424805 154.87348633 -92.74905273 149.63344727 -92.78491211 144.23461914 C-92.80026788 140.8849984 -92.81471161 137.53542197 -92.82592773 134.18579102 C-92.84375688 128.88662534 -92.86468673 123.58761737 -92.90576172 118.28857422 C-92.93871998 114.0091436 -92.95637191 109.72988245 -92.96407509 105.45033455 C-92.969554 103.82991944 -92.98024955 102.209512 -92.99663353 100.58917046 C-93.2591257 73.51515716 -85.05855384 49.29161687 -66.11694336 29.42602539 C-65.31256836 28.66290039 -64.50819336 27.89977539 -63.67944336 27.11352539 C-63.25147461 26.61852539 -62.82350586 26.12352539 -62.38256836 25.61352539 C-47.41151866 8.94472779 -21.85134264 -0.03684881 0 0 Z " fill="#F9F9F9" transform="translate(348.679443359375,95.886474609375)"/>
</svg>
