<?xml version="1.0" standalone="no"?>
<!DOCTYPE svg PUBLIC "-//W3C//DTD SVG 20010904//EN"
 "http://www.w3.org/TR/2001/REC-SVG-20010904/DTD/svg10.dtd">
<svg version="1.0" xmlns="http://www.w3.org/2000/svg"
 width="512.000000pt" height="512.000000pt" viewBox="0 0 512.000000 512.000000"
 preserveAspectRatio="xMidYMid meet">

<g transform="translate(0.000000,512.000000) scale(0.100000,-0.100000)"
fill="#000000" stroke="none">
<path d="M1438 4393 l-3 -568 -32 -67 c-44 -93 -100 -151 -191 -196 l-76 -37
-488 -3 -488 -3 2 -1562 3 -1562 23 -45 c35 -72 75 -114 144 -151 l63 -34
1525 0 1525 0 63 34 c35 19 74 48 88 64 38 45 71 117 79 171 l8 48 -99 -7
c-324 -23 -742 94 -1034 290 -419 281 -689 705 -771 1210 -22 134 -17 437 9
577 65 347 221 652 461 901 346 360 792 547 1302 547 l130 0 -3 363 -3 362
-34 63 c-37 69 -79 109 -151 144 l-45 23 -1002 3 -1002 2 -3 -567z m-318
-2553 l0 -240 -160 0 -160 0 0 240 0 240 160 0 160 0 0 -240z m0 -800 l0 -240
-160 0 -160 0 0 240 0 240 160 0 160 0 0 -240z"/>
<path d="M683 4350 l-433 -505 407 -3 c439 -2 445 -2 458 51 3 12 4 233 3 492
l-3 469 -432 -504z"/>
<path d="M3335 3669 c-616 -83 -1108 -548 -1232 -1166 -26 -132 -24 -415 5
-545 65 -297 190 -527 396 -734 207 -206 437 -331 734 -396 140 -31 424 -31
564 0 297 65 526 189 733 397 207 207 331 436 397 733 31 139 31 423 0 564
-65 296 -189 526 -397 734 -202 203 -446 336 -720 394 -116 24 -369 34 -480
19z m265 -779 l0 -170 -160 0 -160 0 0 170 0 170 160 0 160 0 0 -170z m2 -378
c21 -13 45 -40 57 -66 20 -40 21 -59 21 -374 l0 -332 80 0 80 0 0 -160 0 -160
-320 0 -320 0 0 160 0 160 80 0 80 0 0 240 0 240 -80 0 -80 0 0 161 0 161 183
-4 c169 -3 185 -5 219 -26z"/>
</g>
</svg>
