<?xml version="1.0" encoding="UTF-8"?>
<svg version="1.1" xmlns="http://www.w3.org/2000/svg" width="512" height="512">
<path d="M0 0 C40.70146241 0.73036882 87.09316033 25.69198745 118.88671875 49.59765625 C120.0156958 50.44191162 120.0156958 50.44191162 121.16748047 51.30322266 C122.54696722 52.35424523 123.90868912 53.42923185 125.24658203 54.53271484 C127.8192196 56.50643862 129.81457097 57.98105748 133.13420105 58.03410339 C133.90613297 57.93156754 134.67806488 57.82903168 135.47338867 57.72338867 C136.35661301 57.61360184 137.23983734 57.503815 138.14982605 57.39070129 C139.09038345 57.26176987 140.03094086 57.13283844 141 57 C142.95420645 56.75135224 144.90864346 56.50451127 146.86328125 56.25927734 C147.89952637 56.12881012 148.93577148 55.9983429 150.00341797 55.86392212 C164.47812401 54.10117226 178.76020836 53.53310308 193.33398438 53.60888672 C196.99907611 53.62499594 200.66306572 53.60890206 204.328125 53.58984375 C218.74348227 53.57805628 232.83378432 54.45848319 247.13671875 56.25927734 C248.12364212 56.38277054 249.11056549 56.50626373 250.12739563 56.63349915 C252.03241403 56.87655067 253.93597778 57.13130835 255.83781433 57.39811707 C256.71786636 57.50980728 257.5979184 57.6214975 258.50463867 57.73657227 C259.27249191 57.84155533 260.04034515 57.94653839 260.83146667 58.05470276 C265.13004274 57.94626819 268.09857542 55.17194983 271.3125 52.5625 C272.80390068 51.43473223 274.297405 50.30974116 275.79296875 49.1875 C276.87457275 48.35992187 276.87457275 48.35992187 277.97802734 47.515625 C282.73414167 43.9505492 287.87060193 40.9875346 293 38 C294.20172852 37.29472168 294.20172852 37.29472168 295.42773438 36.57519531 C359.97732842 -1.15317266 359.97732842 -1.15317266 393 0 C408.69127006 34.78462965 417.05328594 76.7151206 415.80078125 114.81640625 C415.76461866 116.15917889 415.72848579 117.50195232 415.69238281 118.84472656 C415.60825144 121.41484502 415.48382265 123.98408842 415.31152344 126.54980469 C414.9731217 136.67709558 418.51574193 141.51944641 425 149 C443.18408676 174.93547223 453.05338735 207.81953959 453.203125 239.3671875 C453.21013931 240.35123062 453.21715363 241.33527374 453.22438049 242.34913635 C453.24185991 245.52447089 453.24823685 248.69961905 453.25 251.875 C453.25101212 253.49935471 453.25101212 253.49935471 453.25204468 255.15652466 C453.23602919 271.30717405 452.80049619 287.05558893 450 303 C449.82307617 304.0401123 449.64615234 305.08022461 449.46386719 306.15185547 C443.5838811 339.95415893 432.17935014 372.63764603 411 400 C410.28328125 400.93972656 409.5665625 401.87945312 408.828125 402.84765625 C394.3792514 421.17241382 374.57873754 438.52059874 353 448 C352.01 448 351.02 448 350 448 C349.67 448.66 349.34 449.32 349 450 C347.29199219 450.86621094 347.29199219 450.86621094 345.046875 451.734375 C344.2110791 452.05825195 343.3752832 452.38212891 342.51416016 452.71582031 C341.6019873 453.05709961 340.68981445 453.39837891 339.75 453.75 C338.80560059 454.10416992 337.86120117 454.45833984 336.88818359 454.82324219 C292.44205555 471.17988927 246.67872644 471.47790147 199.918396 471.26428223 C194.92198352 471.24515548 189.92560815 471.24112689 184.92916393 471.2375679 C178.88374933 471.23237933 172.83836611 471.21790823 166.79296875 471.203125 C165.67405935 471.20124428 164.55514996 471.19936356 163.40233421 471.19742584 C123.85190821 471.1113633 87.04631607 466.68885708 50.08398438 451.81396484 C47.42185098 450.77418594 44.71610742 449.88739998 42 449 C40.65278717 448.36184656 39.31252882 447.70674629 38 447 C38 446.34 38 445.68 38 445 C33.545 443.515 33.545 443.515 29 442 C29 441.34 29 440.68 29 440 C28.34257813 439.78214844 27.68515625 439.56429688 27.0078125 439.33984375 C22.95706235 437.53541869 19.50170946 435.0959118 15.875 432.5625 C14.80185547 431.82676758 14.80185547 431.82676758 13.70703125 431.07617188 C10.54088777 428.88354354 7.69453538 426.75921524 5 424 C1.68606275 421.21788481 1.68606275 421.21788481 -2 419 C-2 418.34 -2 417.68 -2 417 C-2.66 416.67 -3.32 416.34 -4 416 C-6.11059973 413.46728032 -8.10923999 410.85863061 -10.125 408.25 C-11.80197641 405.93200395 -11.80197641 405.93200395 -14 405 C-14 404.34 -14 403.68 -14 403 C-14.66 402.67 -15.32 402.34 -16 402 C-18.40721371 399.27182446 -20.35479948 396.47640316 -22.125 393.3125 C-23.78363067 390.03833934 -23.78363067 390.03833934 -26 388 C-27 386 -28 384 -29 382 C-29.66 381.34 -30.32 380.68 -31 380 C-32.08864544 377.85655301 -33.12400235 375.68575332 -34.125 373.5 C-34.66382812 372.3346875 -35.20265625 371.169375 -35.7578125 369.96875 C-37 367 -37 367 -37 365 C-37.66 364.67 -38.32 364.34 -39 364 C-39.8515625 362.2578125 -39.8515625 362.2578125 -40.625 360.125 C-41.01558594 359.07699219 -41.01558594 359.07699219 -41.4140625 358.0078125 C-42 356 -42 356 -42 353 C-42.66 352.67 -43.32 352.34 -44 352 C-44.74389648 350.12573242 -44.74389648 350.12573242 -45.43359375 347.66796875 C-45.68995605 346.76224121 -45.94631836 345.85651367 -46.21044922 344.92333984 C-47.5238797 340.06031677 -48.80989822 335.19156014 -50.0625 330.3125 C-50.57344068 328.32922647 -51.08514107 326.34614848 -51.59765625 324.36328125 C-51.95585449 322.9724231 -51.95585449 322.9724231 -52.32128906 321.5534668 C-52.89727832 319.38646261 -53.5213936 317.24569548 -54.17578125 315.1015625 C-54.93332982 312.25088208 -55.2151245 309.99154618 -55.125 307.0625 C-55.09792969 305.90427734 -55.09792969 305.90427734 -55.0703125 304.72265625 C-55.04710937 304.15417969 -55.02390625 303.58570313 -55 303 C-55.66 302.67 -56.32 302.34 -57 302 C-57.37890625 299.48046875 -57.37890625 299.48046875 -57.5625 296.1875 C-57.83206771 291.43276284 -57.83206771 291.43276284 -58.23852539 286.6887207 C-60.91421265 259.97308721 -61.5946715 230.1478223 -55 204 C-54.78569336 203.13213867 -54.57138672 202.26427734 -54.35058594 201.37011719 C-51.15546193 188.85471877 -46.67062626 176.60945781 -41 165 C-40.34 164.67 -39.68 164.34 -39 164 C-38.31653318 162.34015202 -37.65411685 160.67163195 -37 159 C-34.09061314 153.40502526 -30.49743882 148.48824897 -26.70703125 143.453125 C-24.85647551 141.03992752 -24.85647551 141.03992752 -24 138 C-23.34 137.67 -22.68 137.34 -22 137 C-22.03029297 136.33468262 -22.06058594 135.66936523 -22.09179688 134.98388672 C-22.22925482 131.94765225 -22.36464558 128.91132894 -22.5 125.875 C-22.54769531 124.82828125 -22.59539063 123.7815625 -22.64453125 122.703125 C-23.27184775 108.54369549 -23.27184775 108.54369549 -22 106 C-21.97951097 104.22916265 -22.00857537 102.4576347 -22.0625 100.6875 C-22.11606364 95.07670897 -21.45553772 89.85152955 -20.5078125 84.33203125 C-19.80654631 79.73064616 -19.51828393 75.12827268 -19.24609375 70.484375 C-19 68 -19 68 -18 67 C-17.69478071 64.96319008 -17.43225435 62.91995691 -17.1875 60.875 C-16.29401304 54.30720408 -14.81084827 48.09427545 -13.01171875 41.70703125 C-11.72171255 36.980329 -10.70300961 32.21102292 -9.7109375 27.4140625 C-9.47632813 26.61742188 -9.24171875 25.82078125 -9 25 C-8.34 24.67 -7.68 24.34 -7 24 C-6.896875 22.906875 -6.79375 21.81375 -6.6875 20.6875 C-6.20124625 15.61394669 -4.21469005 11.35389744 -2.15625 6.734375 C-1.19918021 4.47103429 -0.50200096 2.39591367 0 0 Z " fill="#474747" transform="translate(59,21)"/>
<path d="M0 0 C0.69431122 -0.00233643 1.38862244 -0.00467285 2.10397339 -0.00708008 C13.22059561 -0.02083035 24.20293192 0.6216278 35.27737427 1.53741455 C54.3693218 3.09986837 73.4106584 3.625 92.5625 3.625 C93.23519173 3.625 93.90788345 3.625 94.60095978 3.625 C117.86192443 3.60827095 140.95811442 2.44327993 164.15010071 0.73326111 C195.38295001 -1.50959153 227.93507319 -0.40873983 252.81640625 20.93359375 C267.78390778 34.82362256 277.86162875 52.69706411 283.3125 72.25 C283.79203125 73.88001953 283.79203125 73.88001953 284.28125 75.54296875 C292.35292777 108.01652421 285.33852235 147.88068749 268.8671875 176.76953125 C266.30558473 180.85651054 263.42344571 184.56935435 260.3125 188.25 C259.64476562 189.06339844 258.97703125 189.87679687 258.2890625 190.71484375 C244.82951484 206.48243659 226.59317495 215.64794323 207.3125 222.25 C206.6333252 222.48315918 205.95415039 222.71631836 205.25439453 222.95654297 C195.21841225 226.29043896 184.91229105 228.18036501 174.5 229.9375 C172.7526355 230.24131592 172.7526355 230.24131592 170.9699707 230.55126953 C147.55500747 234.27938067 123.74328206 234.60504101 100.08603668 234.50774765 C98.02331941 234.49984999 95.96061687 234.49536967 93.89788818 234.49160767 C73.64947181 234.44866498 53.48478392 234.17513107 33.3125 232.25 C32.19004883 232.14816406 31.06759766 232.04632813 29.91113281 231.94140625 C-7.9600627 228.38789703 -46.21992694 217.67713347 -72.3203125 188.28515625 C-95.04151424 160.82157666 -100.54402412 122.12502544 -97.30859375 87.59375 C-96.88658224 83.7925947 -96.31842592 80.02231932 -95.6875 76.25 C-95.55472656 75.40566406 -95.42195313 74.56132812 -95.28515625 73.69140625 C-94.06740822 67.18515248 -91.40619623 61.2537875 -88.6875 55.25 C-88.2440625 54.25613281 -87.800625 53.26226562 -87.34375 52.23828125 C-83.69562865 44.48602339 -79.08798976 37.88360159 -73.6875 31.25 C-72.9759375 30.37214844 -72.264375 29.49429688 -71.53125 28.58984375 C-57.55998315 12.21410163 -40.32474975 4.89031179 -19.6875 1.25 C-18.74036133 1.0742041 -17.79322266 0.8984082 -16.81738281 0.71728516 C-11.23617985 -0.11597713 -5.6338405 0.01383641 0 0 Z " fill="#E2C6B0" transform="translate(161.6875,213.75)"/>
<path d="M0 0 C12.1051395 6.97543682 17.45949608 20.15721778 21.09765625 33.1171875 C27.07791398 58.66100193 25.30626762 88.74705312 12.5 112.0625 C8.47850462 118.49689262 4.17412624 123.03661266 -3.125 125.4375 C-8.47319483 126.05653736 -13.40966084 126.19620771 -18.375 124 C-32.30398494 111.02071858 -38.71530523 94.35940296 -40.125 75.4375 C-40.26103299 71.16563123 -40.26471158 66.8987137 -40.25 62.625 C-40.25386719 61.51318359 -40.25773438 60.40136719 -40.26171875 59.25585938 C-40.24940745 48.73585318 -39.75582992 38.97222199 -36.4375 28.9375 C-36.03494995 27.70713013 -36.03494995 27.70713013 -35.62426758 26.4519043 C-31.99559464 15.71438422 -27.67089543 7.06152135 -18.125 0.4375 C-12.11280943 -2.41875876 -6.12793608 -2.77244487 0 0 Z " fill="#A55E3D" transform="translate(179.125,268.5625)"/>
<path d="M0 0 C13.33423851 9.65860335 18.27316138 25.30797328 20.87109375 40.9453125 C21.94455082 48.10641444 22.15808812 55.14260804 22.125 62.375 C22.11762817 64.28853271 22.11762817 64.28853271 22.11010742 66.24072266 C21.99836905 75.2107356 21.37600211 83.36233628 18.8125 92 C18.64089355 92.62503418 18.46928711 93.25006836 18.29248047 93.89404297 C14.80915845 106.49812775 9.36885099 116.06453615 -1.1875 124 C-5.67979408 126.24614704 -11.32630763 125.57552048 -16.1875 125 C-25.83181284 121.1451198 -31.08013339 112.26601364 -35.0234375 103.1328125 C-39.12746791 92.08773738 -41.29673537 80.90116236 -41.42578125 69.125 C-41.433853 68.39740479 -41.44192474 67.66980957 -41.45024109 66.92016602 C-41.46397631 65.38739323 -41.47474491 63.85459121 -41.48266602 62.32177734 C-41.49411578 60.78815432 -41.51445501 59.2545689 -41.54418945 57.72119141 C-41.8916459 39.71945367 -38.82100186 19.77082442 -26.1875 6 C-18.97558456 -1.16394261 -9.7299363 -5.62216163 0 0 Z " fill="#9F5330" transform="translate(351.1875,269)"/>
<path d="M0 0 C15.65508619 11.1783749 21.86370989 30.04549112 25.40625 48.140625 C29.38049826 73.22806713 27.94825528 104.58274847 13.39453125 126.39453125 C6.44294335 135.66331511 -0.6185198 143.33202968 -12.62109375 145.12890625 C-21.81877965 145.47234376 -28.34807012 143.2444987 -35.40625 137.44140625 C-50.30431849 123.45968721 -57.38441838 102.46583755 -58.45825195 82.3059082 C-58.94781672 54.83371805 -57.7764151 26.13842573 -37.90625 4.75390625 C-27.16880096 -5.32911587 -12.82719568 -7.70949603 0 0 Z M-33.55078125 15.32421875 C-39.60930666 23.39313521 -43.08748016 32.86309213 -45.28125 42.62890625 C-45.61753418 43.84280029 -45.95381836 45.05669434 -46.30029297 46.30737305 C-47.85793252 52.54359652 -47.61515583 58.86627121 -47.59692383 65.25219727 C-47.59379998 67.52996382 -47.61714246 69.80638118 -47.64257812 72.08398438 C-47.72443499 90.90202398 -45.09995046 113.27065643 -31.484375 127.5078125 C-25.27934829 133.01013319 -20.735316 134.10619416 -12.40234375 133.9296875 C-5.41675621 133.25648319 -1.50391576 128.17646202 2.83203125 123.10546875 C13.88113125 108.60209525 16.11224962 89.15947551 16.03125 71.50390625 C16.02633545 70.23289062 16.0214209 68.961875 16.01635742 67.65234375 C15.78537371 49.00307434 13.2740232 27.65354258 -0.30078125 13.52734375 C-5.97065093 8.41499372 -9.9697538 6.12755466 -17.69140625 6.3203125 C-24.13267479 7.08782414 -29.18372747 10.66736048 -33.55078125 15.32421875 Z " fill="#FDFBFA" transform="translate(357.28125,260.37109375)"/>
<path d="M0 0 C15.84164337 11.46497313 23.16943774 30.34680584 26.3046875 49.09375 C30.09342952 76.92307761 27.42418104 107.43343963 11 131 C4.99175918 138.2315403 -2.02294323 144.20692448 -11.71484375 145.30859375 C-21.99824437 145.71992977 -30.05861599 142.89802852 -37.75 135.9375 C-55.65142917 115.90183719 -59.21848039 87.61836704 -58.16845703 61.78515625 C-56.89630895 40.75230804 -51.03583529 17.68674016 -35 3 C-24.39888271 -5.12552681 -11.79344387 -6.8826092 0 0 Z M-34.1875 17.5390625 C-38.9126659 23.95469724 -41.43861795 30.88359317 -43.75 38.4375 C-44.06650513 39.45650391 -44.06650513 39.45650391 -44.3894043 40.49609375 C-51.31932719 64.51906814 -48.91464109 95.50029038 -37.58984375 117.7734375 C-33.91687216 124.29663504 -29.23095098 131.18650271 -22 134 C-14.63152628 134.90526963 -8.04773827 134.54604254 -2 130 C10.5684203 119.36518283 14.73418053 99.27664653 16.6875 83.859375 C18.58176393 60.46521552 16.86311254 33.81544206 1.3125 14.953125 C-3.43504329 9.8240827 -8.3331344 6.95244803 -15.4375 6.5625 C-23.84299632 6.9329117 -28.96467954 11.23495499 -34.1875 17.5390625 Z " fill="#FDFCFB" transform="translate(186,260)"/>
<path d="M0 0 C40.70146241 0.73036882 87.09316033 25.69198745 118.88671875 49.59765625 C120.0156958 50.44191162 120.0156958 50.44191162 121.16748047 51.30322266 C122.54696722 52.35424523 123.90868912 53.42923185 125.24658203 54.53271484 C127.8192196 56.50643862 129.81457097 57.98105748 133.13420105 58.03410339 C133.90613297 57.93156754 134.67806488 57.82903168 135.47338867 57.72338867 C136.35661301 57.61360184 137.23983734 57.503815 138.14982605 57.39070129 C139.09038345 57.26176987 140.03094086 57.13283844 141 57 C142.95420645 56.75135224 144.90864346 56.50451127 146.86328125 56.25927734 C147.89952637 56.12881012 148.93577148 55.9983429 150.00341797 55.86392212 C164.47812401 54.10117226 178.76020836 53.53310308 193.33398438 53.60888672 C196.99907611 53.62499594 200.66306572 53.60890206 204.328125 53.58984375 C218.74348227 53.57805628 232.83378432 54.45848319 247.13671875 56.25927734 C248.61710381 56.44451714 248.61710381 56.44451714 250.12739563 56.63349915 C252.03241403 56.87655067 253.93597778 57.13130835 255.83781433 57.39811707 C256.71786636 57.50980728 257.5979184 57.6214975 258.50463867 57.73657227 C259.27249191 57.84155533 260.04034515 57.94653839 260.83146667 58.05470276 C265.13004274 57.94626819 268.09857542 55.17194983 271.3125 52.5625 C272.80390068 51.43473223 274.297405 50.30974116 275.79296875 49.1875 C276.87457275 48.35992187 276.87457275 48.35992187 277.97802734 47.515625 C282.73414167 43.9505492 287.87060193 40.9875346 293 38 C294.20172852 37.29472168 294.20172852 37.29472168 295.42773438 36.57519531 C359.97732842 -1.15317266 359.97732842 -1.15317266 393 0 C399.40787243 14.20506232 403.64209564 29.00783534 407.3125 44.125 C407.69426392 45.6886731 407.69426392 45.6886731 408.08374023 47.28393555 C409.47912149 53.19280741 410.46555217 58.95130812 411 65 C410.34 64.67 409.68 64.34 409 64 C408.30151367 61.75366211 408.30151367 61.75366211 407.66796875 58.77734375 C407.42941162 57.6891333 407.19085449 56.60092285 406.94506836 55.47973633 C406.57007202 53.72632935 406.57007202 53.72632935 406.1875 51.9375 C403.92379935 41.74704077 401.34794003 31.88489888 398 22 C397.52500614 20.56674902 397.05107996 19.13314384 396.578125 17.69921875 C395.39774022 14.12862635 394.20303587 10.56303391 393 7 C387.26686815 6.83251525 382.20247994 7.32688462 376.625 8.625 C375.84390869 8.80538818 375.06281738 8.98577637 374.25805664 9.17163086 C337.59690982 17.94250408 303.02647652 37.06277144 272.3828125 58.625 C271.80563477 59.02203125 271.22845703 59.4190625 270.63378906 59.828125 C269.09156058 60.93432594 267.63143761 62.15247359 266.1796875 63.375 C261.52374992 65.75444722 258.03810966 64.79764388 253 64 C250.77203869 63.74945538 248.54274537 63.51057466 246.3125 63.28125 C244.53601074 63.09042847 244.53601074 63.09042847 242.72363281 62.89575195 C224.78373069 60.98907864 207.04415583 59.61512776 189 60 C188.14841309 60.01788574 187.29682617 60.03577148 186.41943359 60.05419922 C173.04796695 60.38302545 159.89810794 61.555827 146.63671875 63.28125 C145.68772705 63.39597656 144.73873535 63.51070312 143.76098633 63.62890625 C141.96049261 63.87090381 140.16631879 64.16815309 138.38549805 64.52734375 C133.47522914 65.3880094 130.60689037 65.20705506 126.30859375 62.5625 C124.66779905 61.39873717 123.04483101 60.20956116 121.4375 59 C119.60267574 57.70046455 117.76396102 56.40640879 115.921875 55.1171875 C114.96216797 54.44010742 114.00246094 53.76302734 113.01367188 53.06542969 C99.71498111 43.95112931 85.55047586 35.77297668 70.94873047 28.93017578 C68.86456874 27.93535541 66.81004167 26.89129242 64.75390625 25.83984375 C45.70247616 16.24067093 21.72832313 6 0 6 C0 4.02 0 2.04 0 0 Z " fill="#585857" transform="translate(59,21)"/>
<path d="M0 0 C0.69431122 -0.00233643 1.38862244 -0.00467285 2.10397339 -0.00708008 C13.22059561 -0.02083035 24.20293192 0.6216278 35.27737427 1.53741455 C54.3693218 3.09986837 73.4106584 3.625 92.5625 3.625 C93.23519173 3.625 93.90788345 3.625 94.60095978 3.625 C117.86192443 3.60827095 140.95811442 2.44327993 164.15010071 0.73326111 C195.38295001 -1.50959153 227.93507319 -0.40873983 252.81640625 20.93359375 C267.78390778 34.82362256 277.86162875 52.69706411 283.3125 72.25 C283.79203125 73.88001953 283.79203125 73.88001953 284.28125 75.54296875 C287.50299345 88.50451994 286.58306127 101.99527254 286.3125 115.25 C285.9825 115.25 285.6525 115.25 285.3125 115.25 C285.30839111 114.57235596 285.30428223 113.89471191 285.30004883 113.1965332 C284.94884505 79.87150938 277.25084078 51.57473034 253.31640625 27.21875 C248.45738355 22.76057223 243.1048793 19.37164154 237.3125 16.25 C236.49265625 15.8065625 235.6728125 15.363125 234.828125 14.90625 C222.20903748 8.6349459 207.47757847 6.13709483 193.4765625 6.046875 C192.73757217 6.04008728 191.99858185 6.03329956 191.23719788 6.02630615 C188.80392216 6.00922025 186.37083221 6.00307526 183.9375 6 C183.08515778 5.99766357 182.23281555 5.99532715 181.35464478 5.99291992 C168.16683297 5.9795073 155.13784239 6.65993949 142 7.75 C106.68558935 10.62671584 71.5923257 9.71801155 36.32325745 6.79286194 C4.2411611 4.18914252 -32.66905984 1.49366434 -59.59375 22.51953125 C-62.04683301 24.6881453 -64.37496997 26.933219 -66.6875 29.25 C-67.285625 29.77722656 -67.88375 30.30445313 -68.5 30.84765625 C-74.83334134 36.57991658 -79.13873222 44.09734395 -83.6875 51.25 C-84.55375 52.61125 -84.55375 52.61125 -85.4375 54 C-86.53280563 55.74253169 -87.61281258 57.49467722 -88.6875 59.25 C-89.0175 58.59 -89.3475 57.93 -89.6875 57.25 C-85.87699102 47.57716951 -80.26569917 39.25291912 -73.6875 31.25 C-72.97722656 30.37472656 -72.26695313 29.49945313 -71.53515625 28.59765625 C-57.57407523 12.21295176 -40.32258917 4.88993068 -19.6875 1.25 C-18.74036133 1.0742041 -17.79322266 0.8984082 -16.81738281 0.71728516 C-11.23617985 -0.11597713 -5.6338405 0.01383641 0 0 Z " fill="#CCB39F" transform="translate(161.6875,213.75)"/>
<path d="M0 0 C40.70146241 0.73036882 87.09316033 25.69198745 118.88671875 49.59765625 C120.0156958 50.44191162 120.0156958 50.44191162 121.16748047 51.30322266 C122.54696722 52.35424523 123.90868912 53.42923185 125.24658203 54.53271484 C129.05508877 57.45459564 131.41480812 58.31131071 136.2578125 57.8515625 C137.84329656 57.5955973 139.4249921 57.31405094 141 57 C146.4111436 56.14560891 151.53753576 55.88852114 157 56 C156.01 58.97 156.01 58.97 155 62 C151.9809556 62.53383702 148.96055856 63.05234494 145.9375 63.5625 C145.08994141 63.71396484 144.24238281 63.86542969 143.36914062 64.02148438 C137.17237155 65.0502916 131.83726049 65.73365846 126.23828125 62.3125 C125.27277344 61.549375 124.30726563 60.78625 123.3125 60 C107.90422412 48.35926493 90.50960129 38.05843816 72.99511719 29.9453125 C70.74760725 28.88041303 68.53556306 27.75543064 66.3203125 26.625 C46.74794482 16.76496531 22.37315026 6 0 6 C0 4.02 0 2.04 0 0 Z " fill="#616160" transform="translate(59,21)"/>
<path d="M0 0 C4.95 2.475 4.95 2.475 10 5 C5.42148058 13.97389806 -0.90072373 20.42651235 -10.5 23.90625 C-23.01877567 27.74723799 -34.8769375 26.49503663 -46.6796875 20.6796875 C-52.76395481 16.93079552 -57.71177793 11.8646662 -60 5 C-53.62853396 0.95656963 -53.62853396 0.95656963 -50.96484375 1.140625 C-48.4413341 2.24434691 -47.46072807 3.61893227 -45.8125 5.8125 C-41.15233758 11.28868242 -36.8122735 13.61568042 -29.62890625 14.33984375 C-19.66691003 14.60792761 -11.87941811 13.46552725 -4.44140625 6.5625 C-2.58719681 4.55251686 -1.22108282 2.44216563 0 0 Z " fill="#A05632" transform="translate(283,392)"/>
<path d="M0 0 C2.5 2.125 2.5 2.125 4 5 C4 8.90157776 3.58307908 11.1478075 1.375 14.375 C-1.8521925 16.58307908 -4.09842224 17 -8 17 C-10.875 15.5 -10.875 15.5 -13 13 C-14.14009771 9.08091414 -14.40888632 6.96841496 -12.8125 3.1875 C-8.96523814 -1.45574707 -5.79259322 -1.55158747 0 0 Z " fill="#A15733" transform="translate(263,378)"/>
<path d="M0 0 C2.5 1.4375 2.5 1.4375 4 4 C4.76004105 8.31481639 4.73570183 11.74317604 2.5 15.5625 C-1.00246578 17.57641782 -4.12143713 17.87555677 -8 17 C-11 14.9375 -11 14.9375 -13 12 C-13.7878128 7.5882483 -13.52975133 5.77807226 -11 2.0625 C-6.84919686 -0.79117716 -4.9698922 -0.7099846 0 0 Z " fill="#FCFAF9" transform="translate(166,292)"/>
<path d="M0 0 C2.9375 1.5 2.9375 1.5 5 4 C5.78631447 8.95378117 5.78352545 10.82471182 3 15 C-1.17528818 17.78352545 -3.04621883 17.78631447 -8 17 C-11.24985922 14.31886615 -11.89575014 12.64866582 -12.5625 8.5 C-12 5 -12 5 -9.9375 2.0625 C-6.2404927 -0.53327109 -4.43355658 -0.71253588 0 0 Z " fill="#FDFBFA" transform="translate(336,292)"/>
<path d="M0 0 C0.66 0 1.32 0 2 0 C0.23141596 5.99205626 -1.61821531 11.95092133 -3.55053711 17.89208984 C-6.78106486 27.84599231 -9.64801462 37.80319381 -12 48 C-12.66 48 -13.32 48 -14 48 C-15.26592897 44.20221309 -14.51650652 43.64154749 -13 40 C-12.03991971 36.64633515 -11.21069504 33.26150837 -10.375 29.875 C-10.14554688 28.96878906 -9.91609375 28.06257813 -9.6796875 27.12890625 C-9.463125 26.25878906 -9.2465625 25.38867188 -9.0234375 24.4921875 C-8.82669434 23.70183105 -8.62995117 22.91147461 -8.42724609 22.09716797 C-7.90018762 19.86677145 -7.90018762 19.86677145 -8 17 C-7.34 17 -6.68 17 -6 17 C-5.938125 15.865625 -5.87625 14.73125 -5.8125 13.5625 C-5.19740167 8.35280352 -2.74860504 4.38154014 0 0 Z " fill="#61605E" transform="translate(58,28)"/>
<path d="M0 0 C0.99 0.33 1.98 0.66 3 1 C4.10616928 3.67711557 4.99164058 6.23297677 5.8125 9 C6.06604248 9.82999512 6.31958496 10.65999023 6.58081055 11.51513672 C8.71109096 18.66234864 10.55003779 25.87938177 12.3125 33.125 C12.56684814 34.1665625 12.82119629 35.208125 13.08325195 36.28125 C14.47857615 42.19108179 15.46546985 47.95037645 16 54 C15.34 53.67 14.68 53.34 14 53 C13.30151367 50.75366211 13.30151367 50.75366211 12.66796875 47.77734375 C12.42925049 46.68881104 12.19053223 45.60027832 11.94458008 44.47875977 C11.69474365 43.31014404 11.44490723 42.14152832 11.1875 40.9375 C9.19236645 31.92842633 6.98222722 23.14170247 4.1015625 14.37890625 C2.55440305 9.63318667 1.25842236 4.8290679 0 0 Z " fill="#515150" transform="translate(454,32)"/>
<path d="M0 0 C6.93 0.495 6.93 0.495 14 1 C14 1.66 14 2.32 14 3 C14.99 3 15.98 3 17 3 C16.67 4.32 16.34 5.64 16 7 C10.54230189 7.11138159 5.38490641 6.91657981 0 6 C0 4.02 0 2.04 0 0 Z " fill="#6D6966" transform="translate(59,21)"/>
</svg>
