<?xml version="1.0" encoding="UTF-8"?>
<svg version="1.1" xmlns="http://www.w3.org/2000/svg" width="512" height="512">
<path d="M0 0 C1.79024499 -0.00417662 3.58048734 -0.00965594 5.3707248 -0.01631981 C10.27330004 -0.03074998 15.17570681 -0.02653727 20.07829118 -0.019153 C25.37220724 -0.01441763 30.66608706 -0.02693446 35.95999146 -0.03717041 C46.32466098 -0.0543565 56.68926987 -0.0551988 67.05394994 -0.04995751 C75.47943525 -0.04591421 83.90490266 -0.04736126 92.33038712 -0.05270576 C93.53007432 -0.05345419 94.72976152 -0.05420261 95.96580289 -0.05497371 C98.40305677 -0.05650521 100.84031066 -0.05804355 103.27756454 -0.05958868 C126.1278354 -0.07331305 148.97807202 -0.06787647 171.8283421 -0.05640347 C192.72591366 -0.04647124 213.62339668 -0.05941172 234.52095459 -0.08333766 C255.9870539 -0.10772906 277.45311197 -0.11733641 298.91922486 -0.11068493 C310.96742523 -0.1071928 323.01555752 -0.10942443 335.06374741 -0.12693596 C345.32010132 -0.14165841 355.57633918 -0.14229273 365.83269082 -0.12486505 C371.06355792 -0.11635311 376.29421772 -0.1142104 381.52507401 -0.1295166 C386.31803397 -0.14336762 391.1106091 -0.13859505 395.90354683 -0.11927737 C397.63292396 -0.11551835 399.36233195 -0.11843647 401.09168158 -0.12888902 C414.99013257 -0.20688854 426.11437422 1.78659609 437.40188599 10.38768005 C438.43313599 11.13018005 439.46438599 11.87268005 440.52688599 12.63768005 C448.30395502 20.07661565 454.95011383 30.81156859 455.53068715 41.83274698 C455.53337001 43.21504441 455.53337001 43.21504441 455.53610706 44.62526703 C455.54056491 45.69174988 455.54502275 46.75823274 455.54961568 47.85703325 C455.54933914 49.61322332 455.54933914 49.61322332 455.54905701 51.40489197 C455.55273369 52.6494099 455.55641038 53.89392783 455.56019849 55.17615843 C455.56931922 58.63284854 455.57393369 62.0894912 455.5765878 65.54618883 C455.58049387 69.27372505 455.59007211 73.00124756 455.59880066 76.72877502 C455.61855809 85.73280304 455.62863107 94.73683216 455.63752845 103.74087644 C455.64191316 107.98312532 455.64727955 112.22537295 455.65251732 116.46762085 C455.66953005 130.57401012 455.68402308 144.68039862 455.69126606 158.78679657 C455.6931759 162.44705201 455.69509624 166.10730745 455.697052 169.76756287 C455.69753574 170.67728126 455.69801948 171.58699964 455.69851788 172.52428526 C455.70681389 187.25317691 455.73214334 201.98198723 455.76463268 216.71084338 C455.79773151 231.83963561 455.81571743 246.96838656 455.8189103 262.09721518 C455.82107295 270.58860409 455.82978549 279.07987446 455.85537148 287.57122803 C455.87711721 294.80474895 455.88510996 302.03812253 455.87540469 309.27167243 C455.87087095 312.95928729 455.87269162 316.64659842 455.89216614 320.3341713 C455.9131439 324.34119231 455.90277731 328.34754467 455.88963318 332.354599 C455.90608705 334.0840204 455.90608705 334.0840204 455.92287332 335.84837961 C455.83033474 347.57458936 452.4901154 357.08554172 445.40188599 366.38768005 C444.28813599 367.93455505 444.28813599 367.93455505 443.15188599 369.51268005 C435.42598117 377.58976236 424.52770118 384.0672035 413.13607931 384.51648122 C411.82571408 384.51826979 410.51534884 384.52005836 409.16527557 384.52190113 C408.43150118 384.52425336 407.69772678 384.52660559 406.94171679 384.5290291 C404.46956277 384.53571484 401.99746137 384.53526101 399.52529907 384.53485107 C397.74023499 384.53814997 395.95517165 384.54187559 394.17010927 384.54599255 C389.25402988 384.55601787 384.33796269 384.55973021 379.42187452 384.56238186 C374.12377369 384.56628338 368.82568255 384.57586187 363.52758789 384.58459473 C350.72671369 384.60436421 337.92583869 384.61442629 325.12495303 384.62332252 C319.0975176 384.62770492 313.07008305 384.63307188 307.04264832 384.63831139 C287.00689628 384.6553247 266.9711448 384.66981875 246.93538666 384.67706013 C241.73509216 384.67897004 236.53479766 384.68089037 231.33450317 384.68284607 C229.39572755 384.68357168 229.39572755 384.68357168 227.41778475 384.68431195 C206.48103928 384.69261179 185.54435095 384.71794749 164.60763043 384.75042675 C143.11460884 384.78349726 121.62161629 384.80150891 100.12856913 384.80470437 C88.06014876 384.80686955 75.99181171 384.81561934 63.92341614 384.84116554 C53.6449698 384.86287244 43.366627 384.87092299 33.08816034 384.86119876 C27.84517507 384.85665398 22.60240345 384.85855084 17.35944748 384.87796021 C12.5551594 384.89559176 7.75124083 384.89459407 2.94694883 384.87906291 C1.21334907 384.87668684 -0.52027626 384.88101035 -2.25383693 384.89289156 C-16.16848144 384.98231366 -27.29660507 382.99942987 -38.59811401 374.38768005 C-40.14498901 373.27393005 -40.14498901 373.27393005 -41.72311401 372.13768005 C-49.50018305 364.69874446 -56.14634185 353.96379152 -56.72691518 342.94261312 C-56.72870375 342.02108151 -56.73049232 341.09954989 -56.73233509 340.15009308 C-56.73679293 339.08361022 -56.74125078 338.01712737 -56.74584371 336.91832685 C-56.74565935 335.74753348 -56.74547498 334.5767401 -56.74528503 333.37046814 C-56.74896172 332.12595021 -56.75263841 330.88143228 -56.75642651 329.59920168 C-56.76554724 326.14251157 -56.77016172 322.68586891 -56.77281582 319.22917128 C-56.7767219 315.50163505 -56.78630013 311.77411254 -56.79502869 308.04658508 C-56.81478612 299.04255707 -56.8248591 290.03852794 -56.83375648 281.03448367 C-56.83814118 276.79223479 -56.84350758 272.54998715 -56.84874535 268.30773926 C-56.86575808 254.20134999 -56.88025111 240.09496149 -56.88749409 225.98856354 C-56.88940393 222.3283081 -56.89132426 218.66805266 -56.89328003 215.00779724 C-56.89376377 214.09807885 -56.89424751 213.18836046 -56.89474591 212.25107485 C-56.90304191 197.5221832 -56.92837136 182.79337288 -56.96086071 168.06451672 C-56.99395954 152.93572449 -57.01194546 137.80697355 -57.01513833 122.67814493 C-57.01730098 114.18675602 -57.02601351 105.69548565 -57.0515995 97.20413208 C-57.07334524 89.97061116 -57.08133799 82.73723758 -57.07163272 75.50368768 C-57.06709898 71.81607281 -57.06891965 68.12876169 -57.08839417 64.44118881 C-57.10937192 60.4341678 -57.09900534 56.42781544 -57.08586121 52.42076111 C-57.09683045 51.26781351 -57.1077997 50.1148659 -57.11910135 48.9269805 C-57.02668442 37.21618631 -53.69985241 27.66488768 -46.59811401 18.38768005 C-46.18174683 17.7843988 -45.76537964 17.18111755 -45.33639526 16.55955505 C-34.20010376 1.71116638 -17.01673006 -0.06465214 0 0 Z " fill="#F34336" transform="translate(56.598114013671875,63.61231994628906)"/>
<path d="M0 0 C4.17670425 2.7844695 8.11215283 5.55861168 12.0625 8.625 C13.20959475 9.51307336 14.35673135 10.40109267 15.50390625 11.2890625 C16.08414551 11.73926758 16.66438477 12.18947266 17.26220703 12.65332031 C20.00218335 14.77662874 22.75133914 16.88795451 25.5 19 C26.58338179 19.83327034 27.66671502 20.66660381 28.75 21.5 C29.28625 21.9125 29.8225 22.325 30.375 22.75 C74.25 56.5 74.25 56.5 75.87402344 57.74926758 C76.96058779 58.58507376 78.04717645 59.42084835 79.13378906 60.2565918 C81.79288548 62.30183636 84.4514994 64.34769991 87.109375 66.39453125 C93.23103457 71.1076 99.36160412 75.80874598 105.5 80.5 C112.67781092 85.98562442 119.84245047 91.48796751 127 97 C129.16644651 98.66695292 131.33322497 100.33347413 133.5 102 C134.58333938 102.83332547 135.66667272 103.6666588 136.75 104.5 C137.28625 104.9125 137.8225 105.325 138.375 105.75 C156.25 119.5 156.25 119.5 157.87524414 120.75024414 C158.95769106 121.58285808 160.0402105 122.41537775 161.12280273 123.24780273 C164.39370814 125.76308915 167.66205464 128.28164318 170.92773438 130.80371094 C172.00908813 131.63636625 173.09239643 132.46648996 174.17773438 133.29394531 C176.92428084 135.38806184 179.63669736 137.51039491 182.30859375 139.69921875 C183.1128479 140.34201782 183.1128479 140.34201782 183.93334961 140.99780273 C185.41249354 142.18005756 186.87856931 143.37860894 188.34375 144.578125 C190.8664609 146.28102415 190.8664609 146.28102415 193.41796875 145.5703125 C196.79565608 143.51610629 199.77763966 141.15118658 202.8125 138.625 C208.06265117 134.33818526 213.36946013 130.16421573 218.8125 126.125 C226.94817534 120.07472878 234.94101909 113.84899992 242.93261719 107.61035156 C247.93481586 103.71397669 252.97000814 99.86037495 258 96 C260.16710847 94.33390747 262.33354953 92.66694801 264.5 91 C265.58332124 90.16665095 266.66665456 89.33331759 267.75 88.5 C268.28625 88.0875 268.8225 87.675 269.375 87.25 C297 66 324.625 44.75 352.25 23.5 C353.0548584 22.8807666 353.0548584 22.8807666 353.87597656 22.24902344 C354.95576416 21.41856743 356.03584086 20.58848717 357.11621094 19.75878906 C359.88132524 17.63447373 362.64059844 15.50319594 365.390625 13.359375 C365.95330078 12.92238281 366.51597656 12.48539063 367.09570312 12.03515625 C368.64349242 10.83274142 370.1890185 9.62741489 371.734375 8.421875 C375.71796197 5.46754017 379.8734114 2.75105907 384 0 C384 98.67 384 197.34 384 299 C257.28 299 130.56 299 0 299 C0 200.33 0 101.66 0 0 Z " fill="#EBEEF0" transform="translate(64,149)"/>
<path d="M0 0 C126.06 0 252.12 0 382 0 C376.36734694 5.63265306 376.36734694 5.63265306 373.25 8.19921875 C372.56591064 8.76342529 371.88182129 9.32763184 371.17700195 9.90893555 C370.45859131 10.49586182 369.74018066 11.08278809 369 11.6875 C368.2474292 12.30471924 367.4948584 12.92193848 366.71948242 13.55786133 C361.27764988 18.00218813 355.75741587 22.32571934 350.16796875 26.58203125 C341.20656441 33.42187008 332.40314599 40.46518957 323.6081543 47.5168457 C317.68128303 52.26494262 311.71215367 56.95799697 305.73388672 61.64111328 C302.82033183 63.92453295 299.91031584 66.21245445 297 68.5 C293.51343843 71.24048208 290.02621854 73.98009622 286.53515625 76.71484375 C280.4986907 81.44612756 274.48376068 86.20218208 268.5 91 C261.94437 96.25634643 255.34861504 101.4594206 248.73388672 106.64111328 C245.23472646 109.38348529 241.74017645 112.1317327 238.24536133 114.87963867 C235.35679895 117.15034395 232.46611439 119.41821985 229.5703125 121.6796875 C223.96156022 126.06523326 218.38727476 130.48406555 212.87963867 134.99633789 C210.21020343 137.1802493 207.5297864 139.35022119 204.84375 141.51367188 C203.66110897 142.46705092 202.4811669 143.42379339 201.3046875 144.38476562 C199.82234508 145.58779968 198.31813697 146.76375075 196.8125 147.9375 C195.99394531 148.58589844 195.17539062 149.23429688 194.33203125 149.90234375 C192 151 192 151 189.65234375 150.5546875 C186.03981126 148.4371795 182.94523349 145.88318371 179.75 143.1875 C174.0905766 138.49661807 168.36425955 133.93217126 162.5 129.5 C156.16718093 124.70096146 149.96201787 119.77061279 143.81298828 114.73876953 C137.84476408 109.85755671 131.79422404 105.08815899 125.71777344 100.34277344 C122.80728392 98.06766082 119.90401293 95.78336957 117 93.5 C113.51348899 90.75945374 110.02621842 88.01990368 106.53515625 85.28515625 C99.86231939 80.05509493 93.22245764 74.786497 86.60791016 69.48291016 C80.6810536 64.73497767 74.71206408 60.04193285 68.73388672 55.35888672 C65.23553554 52.6171488 61.7420205 49.86925044 58.24755859 47.12255859 C55.34497577 44.84143761 52.44131727 42.56171737 49.53515625 40.28515625 C42.86520503 35.05735665 36.22761102 29.79177202 29.61669922 24.48950195 C25.32614108 21.05159048 21.01432579 17.6421273 16.6875 14.25 C14.99352341 12.92041152 13.29969232 11.59063804 11.60595703 10.26074219 C10.03842584 9.03016586 8.47039107 7.80023108 6.90234375 6.5703125 C5.98582031 5.84585938 5.06929688 5.12140625 4.125 4.375 C3.32320313 3.74335937 2.52140625 3.11171875 1.6953125 2.4609375 C1.13585937 1.97882813 0.57640625 1.49671875 0 1 C0 0.67 0 0.34 0 0 Z " fill="#EBEEF0" transform="translate(65,64)"/>
<path d="M0 0 C0 98.67 0 197.34 0 299 C-4.89274239 295.33044321 -9.76239743 291.66035405 -14.5625 287.875 C-15.15546875 287.40835937 -15.7484375 286.94171875 -16.359375 286.4609375 C-21.39081551 282.49485442 -26.39224683 278.49174063 -31.390625 274.48413086 C-37.31790516 269.73571064 -43.28743597 265.04232449 -49.26611328 260.35888672 C-52.76446446 257.6171488 -56.2579795 254.86925044 -59.75244141 252.12255859 C-62.65502423 249.84143761 -65.55868273 247.56171737 -68.46484375 245.28515625 C-75.13768061 240.05509493 -81.77754236 234.786497 -88.39208984 229.48291016 C-94.3189464 224.73497767 -100.28793592 220.04193285 -106.26611328 215.35888672 C-109.76446446 212.6171488 -113.2579795 209.86925044 -116.75244141 207.12255859 C-119.65502423 204.84143761 -122.55868273 202.56171737 -125.46484375 200.28515625 C-132.13768061 195.05509493 -138.77754236 189.786497 -145.39208984 184.48291016 C-151.31735316 179.73625399 -157.28497347 175.04484019 -163.26171875 170.36328125 C-165.02015122 168.98419601 -166.77606979 167.60197149 -168.53125 166.21875 C-176.31140604 160.08945018 -184.13636681 154.02181877 -192 148 C-187.91609202 143.69099473 -183.45681433 140.10779971 -178.75 136.5 C-177.56724487 135.58686035 -177.56724487 135.58686035 -176.3605957 134.65527344 C-173.91039188 132.7658067 -171.45594919 130.88199116 -169 129 C-168.24444824 128.42056641 -167.48889648 127.84113281 -166.71044922 127.24414062 C-163.13171014 124.50109828 -159.54965861 121.76244023 -155.96484375 119.02734375 C-150.29661886 114.70213193 -144.64898963 110.35028975 -139 106 C-136.83355349 104.33304708 -134.66677503 102.66652587 -132.5 101 C-131.41666062 100.16667453 -130.33332728 99.3333412 -129.25 98.5 C-96.75 73.5 -64.25 48.5 -31.75 23.5 C-30.94502075 22.8807666 -30.94502075 22.8807666 -30.1237793 22.24902344 C-29.04456341 21.41888234 -27.96529938 20.58880382 -26.88598633 19.75878906 C-24.11425024 17.62713521 -21.34345629 15.49427399 -18.57421875 13.359375 C-13.80851464 9.68620924 -9.04198512 6.01383362 -4.25 2.375 C-3.32960938 1.67503906 -3.32960938 1.67503906 -2.390625 0.9609375 C-1 0 -1 0 0 0 Z " fill="#CFD7DB" transform="translate(448,149)"/>
</svg>
