<?xml version="1.0" encoding="UTF-8"?>
<svg version="1.1" xmlns="http://www.w3.org/2000/svg" width="512" height="512">
<path d="M0 0 C2.77746802 -0.00243085 5.55492141 -0.009319 8.3323822 -0.01593018 C15.02634776 -0.02912069 21.72021122 -0.02645693 28.41418043 -0.01769225 C33.86249595 -0.01085958 39.31078327 -0.01002278 44.75910187 -0.0132637 C45.54062939 -0.0137234 46.32215692 -0.0141831 47.12736709 -0.01465673 C48.71599339 -0.0156161 50.30461968 -0.01658874 51.89324597 -0.0175745 C66.7134646 -0.02608475 81.53362714 -0.01636219 96.35383657 -0.0001734 C109.02156356 0.01323639 121.68920807 0.01088772 134.35693359 -0.00292969 C149.13780801 -0.01904493 163.9186336 -0.02527223 178.69951558 -0.0160929 C180.28040265 -0.01513744 181.86128973 -0.01419432 183.44217682 -0.0132637 C184.2196186 -0.01280088 184.99706038 -0.01233805 185.798061 -0.0118612 C191.23070949 -0.00928986 196.66332654 -0.01360159 202.09597015 -0.02070236 C208.7292526 -0.02918362 215.36242879 -0.02669954 221.99569932 -0.01086013 C225.36861839 -0.00306683 228.74121793 -0.00139139 232.11415672 -0.00980759 C269.83662469 -0.09518645 305.35512196 5.90449382 333.32128906 33.25927734 C360.15391952 60.61776882 365.82200103 96.72424102 365.73984087 133.51776266 C365.7350517 137.14164519 365.74766915 140.76547758 365.75785828 144.38934326 C365.77494128 151.46493221 365.7759082 158.54043195 365.77064537 165.61603615 C365.76658226 171.37534271 365.76807246 177.13462318 365.77339363 182.89392853 C365.77414205 183.71774618 365.77489048 184.54156383 365.77566158 185.39034565 C365.77719327 187.06465195 365.77873161 188.73895825 365.78027654 190.41326454 C365.79396392 206.06947133 365.78859074 221.72562797 365.77709133 237.38183358 C365.76716568 251.65690018 365.78009479 265.93183704 365.80402552 280.20688364 C365.82849869 294.91807459 365.83800413 309.62920532 365.8313728 324.34041619 C365.8278984 332.57815592 365.82999372 340.81579604 365.84762383 349.0535202 C365.86244926 356.06684711 365.86284806 363.08000426 365.84555291 370.09332821 C365.83712405 373.66075442 365.83468997 377.22787876 365.85020447 380.79528809 C365.99922458 417.72467582 358.88428154 453.08484094 332.29785156 480.50927734 C313.05036809 499.59088924 288.25708348 508.63986972 261.58300781 510.45068359 C260.53757812 510.52867187 259.49214844 510.60666016 258.41503906 510.68701172 C239.36465777 512.04454772 220.32184369 512.53874718 201.22753906 512.53344727 C199.02144312 512.53645034 196.8153477 512.53985544 194.60925293 512.54362488 C188.68669475 512.55235652 182.76415107 512.55479847 176.84158707 512.55544066 C173.11691391 512.55615785 169.39224429 512.5583047 165.66757202 512.56093788 C153.27338722 512.56968527 140.87920997 512.57436204 128.48502219 512.57360741 C127.48938445 512.57354747 127.48938445 512.57354747 126.47363281 512.57348633 C125.80902806 512.57344545 125.1444233 512.57340457 124.45967901 512.57336245 C114.39921264 512.57298272 104.33877751 512.58074761 94.27832031 512.59399414 C82.50041644 512.60944725 70.72253561 512.6177455 58.94462109 512.61703092 C52.74591162 512.61677953 46.5472422 512.61942619 40.34854126 512.63020897 C17.73637764 512.66672027 -4.84892311 512.66081534 -27.43652344 511.4987793 C-28.20792852 511.45989542 -28.97933361 511.42101155 -29.77411461 511.38094938 C-61.35871855 509.73392832 -93.63821579 503.59181112 -115.97949219 478.93994141 C-137.60077631 454.17067202 -146.83330255 420.02992348 -146.80743408 387.60263062 C-146.8104052 386.43117103 -146.81337633 385.25971145 -146.81643748 384.05275309 C-146.82358542 380.818238 -146.82629428 377.58375539 -146.82703495 374.34923363 C-146.82889434 370.85334562 -146.83644638 367.35746893 -146.84317017 363.86158752 C-146.85672179 356.22239955 -146.8627741 348.58321684 -146.86718082 340.94401884 C-146.8699503 336.16441583 -146.87418908 331.38481482 -146.878685 326.60521317 C-146.89087671 313.34622258 -146.90117415 300.0872336 -146.90456009 286.82823753 C-146.90477966 285.98041322 -146.90499922 285.1325889 -146.90522544 284.25907294 C-146.90544372 283.40931787 -146.905662 282.55956281 -146.90588689 281.68405759 C-146.90633034 279.96238605 -146.9067769 278.24071451 -146.90722656 276.51904297 C-146.90755871 275.23805373 -146.90755871 275.23805373 -146.90789756 273.93118592 C-146.91183714 260.12433215 -146.92926586 246.31753144 -146.95258608 232.51069812 C-146.97638987 218.30156061 -146.98876613 204.09244959 -146.98992801 189.88329184 C-146.99084006 181.91927998 -146.99647215 173.95533713 -147.01474762 165.99134445 C-147.03027143 159.20288388 -147.03519791 152.41451363 -147.02700952 145.62603866 C-147.02314502 142.17213502 -147.02382189 138.71841255 -147.03806686 135.26453209 C-147.17163682 96.20440207 -141.56668478 61.32970218 -113.41699219 32.57568359 C-82.95067021 2.45351945 -40.71025974 -0.1019198 0 0 Z " fill="#FE7E45" transform="translate(146.6669921875,-0.38818359375)"/>
<path d="M0 0 C2.77746802 -0.00243085 5.55492141 -0.009319 8.3323822 -0.01593018 C15.02634776 -0.02912069 21.72021122 -0.02645693 28.41418043 -0.01769225 C33.86249595 -0.01085958 39.31078327 -0.01002278 44.75910187 -0.0132637 C45.54062939 -0.0137234 46.32215692 -0.0141831 47.12736709 -0.01465673 C48.71599339 -0.0156161 50.30461968 -0.01658874 51.89324597 -0.0175745 C66.7134646 -0.02608475 81.53362714 -0.01636219 96.35383657 -0.0001734 C109.02156356 0.01323639 121.68920807 0.01088772 134.35693359 -0.00292969 C149.13780801 -0.01904493 163.9186336 -0.02527223 178.69951558 -0.0160929 C180.28040265 -0.01513744 181.86128973 -0.01419432 183.44217682 -0.0132637 C184.2196186 -0.01280088 184.99706038 -0.01233805 185.798061 -0.0118612 C191.23070949 -0.00928986 196.66332654 -0.01360159 202.09597015 -0.02070236 C208.7292526 -0.02918362 215.36242879 -0.02669954 221.99569932 -0.01086013 C225.36861839 -0.00306683 228.74121793 -0.00139139 232.11415672 -0.00980759 C269.83662469 -0.09518645 305.35512196 5.90449382 333.32128906 33.25927734 C360.15391952 60.61776882 365.82200103 96.72424102 365.73984087 133.51776266 C365.7350517 137.14164519 365.74766915 140.76547758 365.75785828 144.38934326 C365.77494128 151.46493221 365.7759082 158.54043195 365.77064537 165.61603615 C365.76658226 171.37534271 365.76807246 177.13462318 365.77339363 182.89392853 C365.77414205 183.71774618 365.77489048 184.54156383 365.77566158 185.39034565 C365.77719327 187.06465195 365.77873161 188.73895825 365.78027654 190.41326454 C365.79396392 206.06947133 365.78859074 221.72562797 365.77709133 237.38183358 C365.76716568 251.65690018 365.78009479 265.93183704 365.80402552 280.20688364 C365.82849869 294.91807459 365.83800413 309.62920532 365.8313728 324.34041619 C365.8278984 332.57815592 365.82999372 340.81579604 365.84762383 349.0535202 C365.86244926 356.06684711 365.86284806 363.08000426 365.84555291 370.09332821 C365.83712405 373.66075442 365.83468997 377.22787876 365.85020447 380.79528809 C365.99922458 417.72467582 358.88428154 453.08484094 332.29785156 480.50927734 C313.05036809 499.59088924 288.25708348 508.63986972 261.58300781 510.45068359 C260.53757812 510.52867187 259.49214844 510.60666016 258.41503906 510.68701172 C239.36465777 512.04454772 220.32184369 512.53874718 201.22753906 512.53344727 C199.02144312 512.53645034 196.8153477 512.53985544 194.60925293 512.54362488 C188.68669475 512.55235652 182.76415107 512.55479847 176.84158707 512.55544066 C173.11691391 512.55615785 169.39224429 512.5583047 165.66757202 512.56093788 C153.27338722 512.56968527 140.87920997 512.57436204 128.48502219 512.57360741 C127.48938445 512.57354747 127.48938445 512.57354747 126.47363281 512.57348633 C125.80902806 512.57344545 125.1444233 512.57340457 124.45967901 512.57336245 C114.39921264 512.57298272 104.33877751 512.58074761 94.27832031 512.59399414 C82.50041644 512.60944725 70.72253561 512.6177455 58.94462109 512.61703092 C52.74591162 512.61677953 46.5472422 512.61942619 40.34854126 512.63020897 C17.73637764 512.66672027 -4.84892311 512.66081534 -27.43652344 511.4987793 C-28.20792852 511.45989542 -28.97933361 511.42101155 -29.77411461 511.38094938 C-61.35871855 509.73392832 -93.63821579 503.59181112 -115.97949219 478.93994141 C-137.60077631 454.17067202 -146.83330255 420.02992348 -146.80743408 387.60263062 C-146.8104052 386.43117103 -146.81337633 385.25971145 -146.81643748 384.05275309 C-146.82358542 380.818238 -146.82629428 377.58375539 -146.82703495 374.34923363 C-146.82889434 370.85334562 -146.83644638 367.35746893 -146.84317017 363.86158752 C-146.85672179 356.22239955 -146.8627741 348.58321684 -146.86718082 340.94401884 C-146.8699503 336.16441583 -146.87418908 331.38481482 -146.878685 326.60521317 C-146.89087671 313.34622258 -146.90117415 300.0872336 -146.90456009 286.82823753 C-146.90477966 285.98041322 -146.90499922 285.1325889 -146.90522544 284.25907294 C-146.90544372 283.40931787 -146.905662 282.55956281 -146.90588689 281.68405759 C-146.90633034 279.96238605 -146.9067769 278.24071451 -146.90722656 276.51904297 C-146.90755871 275.23805373 -146.90755871 275.23805373 -146.90789756 273.93118592 C-146.91183714 260.12433215 -146.92926586 246.31753144 -146.95258608 232.51069812 C-146.97638987 218.30156061 -146.98876613 204.09244959 -146.98992801 189.88329184 C-146.99084006 181.91927998 -146.99647215 173.95533713 -147.01474762 165.99134445 C-147.03027143 159.20288388 -147.03519791 152.41451363 -147.02700952 145.62603866 C-147.02314502 142.17213502 -147.02382189 138.71841255 -147.03806686 135.26453209 C-147.17163682 96.20440207 -141.56668478 61.32970218 -113.41699219 32.57568359 C-82.95067021 2.45351945 -40.71025974 -0.1019198 0 0 Z M-46.66699219 96.38818359 C-47.30121094 96.93990234 -47.93542969 97.49162109 -48.58886719 98.06005859 C-71.83920504 119.60394964 -77.88503544 153.25893887 -79.66699219 183.38818359 C-79.80105691 188.1652511 -79.8139697 192.93901958 -79.81225586 197.71777344 C-79.81525756 199.10107512 -79.81866237 200.48437598 -79.82243347 201.86767578 C-79.83117932 205.58734447 -79.83360769 209.30699009 -79.83424926 213.02666807 C-79.83496566 215.36451798 -79.83711108 217.70236223 -79.83974648 220.04021072 C-79.84897197 228.23644627 -79.85308528 236.43266568 -79.85229492 244.62890625 C-79.85169634 252.20239022 -79.8622121 259.77580246 -79.87803859 267.34926832 C-79.89123442 273.90355453 -79.89647377 280.45781768 -79.89583951 287.01211703 C-79.89558784 290.90327971 -79.89825125 294.79437866 -79.90901756 298.6855278 C-80.01595771 340.30179399 -78.39957932 383.33499707 -48.04199219 415.13818359 C-21.44103925 440.5018829 16.35865594 445.54600238 51.59667969 445.53344727 C52.98470142 445.53644791 54.37272233 445.53985249 55.76074219 445.54362488 C59.49679704 445.55238005 63.23282893 445.55479946 66.96889305 445.55544066 C69.31492215 445.55615636 71.66094559 445.55830047 74.00697327 445.56093788 C82.22568119 445.57016543 90.444373 445.5742763 98.66308594 445.57348633 C106.26785061 445.57288723 113.87254397 445.58341271 121.47729063 445.59922999 C128.05104253 445.61240497 134.62477143 445.61766605 141.1985364 445.61703092 C145.10470885 445.6167787 149.01081789 445.61947355 152.91697693 445.63020897 C189.39637761 445.72347612 232.29024579 444.85732451 261.33300781 419.38818359 C262.41582031 418.53546875 262.41582031 418.53546875 263.52050781 417.66552734 C285.36541367 399.80276578 294.4906478 369.62084647 297.36328125 342.64428711 C298.8060018 328.14161884 298.62618643 313.58888903 298.60165882 299.03203654 C298.59650688 295.00292767 298.60131518 290.97382675 298.60443115 286.94471741 C298.60804413 280.18651668 298.60334216 273.42836002 298.59375 266.67016602 C298.58286623 258.91354147 298.58640136 251.15702212 298.59740281 243.4004001 C298.60654727 236.67784234 298.60772648 229.9553158 298.60252547 223.23275381 C298.59944529 219.245122 298.59888514 215.25753925 298.60559845 211.26991081 C298.66426665 170.98257209 296.88101367 129.63465642 267.14160156 99.13427734 C252.13565987 84.46226481 234.76427317 75.87794705 214.33300781 71.38818359 C213.17478516 71.11361328 213.17478516 71.11361328 211.99316406 70.83349609 C193.18266082 66.65338426 173.98509593 67.07399521 154.83991313 67.08660102 C151.57066679 67.08768487 148.30143928 67.0827515 145.03219706 67.0779956 C137.29952602 67.06696622 129.56690358 67.06642467 121.83422852 67.07250977 C113.93174667 67.07853425 106.02944356 67.06626211 98.12699217 67.0449397 C91.27702695 67.02715597 84.42711774 67.02134865 77.57713038 67.02457744 C73.51492694 67.02636513 69.45285079 67.02401343 65.39066887 67.0098629 C26.10562595 66.88474333 -15.90924194 68.80542692 -46.66699219 96.38818359 Z " fill="#FEB34E" transform="translate(146.6669921875,-0.38818359375)"/>
<path d="M0 0 C1.6615241 -0.00445668 1.6615241 -0.00445668 3.35661435 -0.0090034 C7.05238689 -0.01764499 10.74812687 -0.01919482 14.44390869 -0.02069092 C17.10078583 -0.02532245 19.75766008 -0.03032759 22.41453552 -0.03573608 C29.62385869 -0.04927466 36.83317627 -0.05533771 44.04251003 -0.05974674 C48.55392765 -0.06251793 53.06534315 -0.06675695 57.57675934 -0.07125092 C70.09462219 -0.08343994 82.61248336 -0.09373854 95.13035202 -0.09712601 C95.930411 -0.09734557 96.73046998 -0.09756514 97.55477317 -0.09779136 C98.35663642 -0.09800964 99.15849968 -0.09822791 99.98466182 -0.09845281 C101.60926104 -0.09889626 103.23386026 -0.09934282 104.85845947 -0.09979248 C105.66429927 -0.10001391 106.47013907 -0.10023534 107.30039826 -0.10046348 C120.33188228 -0.10440399 133.36331013 -0.1218368 146.3947725 -0.145152 C159.80953825 -0.1689569 173.22427593 -0.18133207 186.63906312 -0.18249393 C194.15645806 -0.18340581 201.67377987 -0.1890338 209.19115448 -0.20731354 C215.59790583 -0.22283876 222.00456148 -0.22776295 228.41132811 -0.21957543 C231.67070295 -0.21571167 234.92984879 -0.21807184 238.18920708 -0.23063278 C275.64212636 -0.36638024 310.95131065 5.88594097 338.6831665 33.01153564 C365.51579696 60.37002712 371.18387847 96.47649932 371.10171831 133.27002096 C371.09692914 136.89390349 371.10954659 140.51773588 371.11973572 144.14160156 C371.13681872 151.21719051 371.13778564 158.29269025 371.13252281 165.36829445 C371.1284597 171.12760101 371.1299499 176.88688148 371.13527107 182.64618683 C371.13601949 183.47000448 371.13676792 184.29382213 371.13753902 185.14260395 C371.13907071 186.81691025 371.14060906 188.49121655 371.14215399 190.16552284 C371.15584136 205.82172963 371.15046819 221.47788627 371.13896877 237.13409188 C371.12904312 251.40915849 371.14197223 265.68409534 371.16590296 279.95914194 C371.19037613 294.67033289 371.19988157 309.38146362 371.19325024 324.09267449 C371.18977584 332.33041422 371.19187116 340.56805434 371.20950127 348.8057785 C371.2243267 355.81910541 371.2247255 362.83226256 371.20743036 369.84558651 C371.19900149 373.41301272 371.19656741 376.98013707 371.21208191 380.54754639 C371.29270056 400.5543771 369.71695006 419.00734804 363.69488525 438.14044189 C358.98980713 438.3928833 358.98980713 438.3928833 356.33551025 436.12091064 C355.546604 435.19923096 354.75769775 434.27755127 353.94488525 433.32794189 C353.51369385 432.83165283 353.08250244 432.33536377 352.63824463 431.82403564 C348.9892476 427.59269502 345.4842785 423.2385631 341.97613525 418.89044189 C339.62769557 416.05944611 337.18578623 413.34660592 334.69488525 410.64044189 C330.60137434 406.19317078 326.77046027 401.59326726 322.97613525 396.89044189 C319.84175104 393.11200613 316.5123218 389.52790805 313.18707275 385.91778564 C309.88547095 382.23841435 306.78611729 378.41340602 303.70269775 374.55059814 C301.77813642 372.09147381 301.77813642 372.09147381 299.394104 370.23028564 C297.69488525 368.14044189 297.69488525 368.14044189 297.706604 365.04669189 C298.04111572 363.36059814 298.04111572 363.36059814 298.38238525 361.64044189 C298.59250244 360.51637939 298.80261963 359.39231689 299.019104 358.23419189 C299.38806967 356.54505427 299.76852673 354.85766697 300.20425797 353.18450832 C304.38942939 335.74811903 302.99357496 316.61192068 302.96353626 298.78429484 C302.95838432 294.75518597 302.96319262 290.72608506 302.96630859 286.69697571 C302.96992157 279.93877498 302.9652196 273.18061832 302.95562744 266.42242432 C302.94474367 258.66579977 302.9482788 250.90928042 302.95928025 243.1526584 C302.96842471 236.43010064 302.96960393 229.7075741 302.96440291 222.98501211 C302.96132273 218.9973803 302.96076258 215.00979755 302.96747589 211.02216911 C303.02623985 170.66907008 301.21538132 129.36251384 271.43707275 98.82012939 C256.90503206 84.6193033 239.41545585 76.47403043 219.69488525 72.14044189 C218.5366626 71.86587158 218.5366626 71.86587158 217.3550415 71.58575439 C198.97841846 67.50206038 180.50598273 68.01859065 161.82355118 68.32633018 C156.8034374 68.40700907 151.78326836 68.45877468 146.76272583 68.50416565 C145.90943447 68.51199135 145.05614311 68.51981705 144.17699444 68.52787989 C142.43474265 68.54378282 140.69249018 68.5596106 138.95023704 68.57536471 C127.29272725 68.68168784 115.63626846 68.8057957 103.9800415 69.0112915 C96.0714015 69.15050121 88.16371055 69.24297817 80.2539233 69.28225166 C76.08395664 69.30479337 71.91725926 69.35048902 67.74844742 69.45380211 C40.5083295 70.10773886 40.5083295 70.10773886 34.09179688 65.36203003 C30.89507244 62.30987689 28.8501393 58.97976899 26.69488525 55.14044189 C25.18476644 53.23994136 23.64773861 51.36009359 22.06988525 49.51544189 C21.35574463 48.62598877 20.641604 47.73653564 19.90582275 46.82012939 C17.58553575 44.00790875 15.16417391 41.32246927 12.69488525 38.64044189 C9.40156826 35.06251726 6.24837204 31.42504524 3.19488525 27.64044189 C-0.68223063 22.83857223 -4.76063809 18.26804268 -8.93792725 13.72637939 C-11.65315754 10.76023673 -14.29976302 7.74037983 -16.93011475 4.69903564 C-18.01165635 3.47308366 -19.14911075 2.29644589 -20.30511475 1.14044189 C-13.49908494 0.2591092 -6.85852259 -0.00581663 0 0 Z " fill="#D83F8A" transform="translate(141.30511474609375,-0.14044189453125)"/>
<path d="M0 0 C4.12481519 0.00513885 8.24962242 0.00034712 12.37443805 -0.00277233 C19.29421877 -0.00638898 26.21395649 -0.00167347 33.13373065 0.00790882 C41.08462111 0.01879321 49.03540896 0.01525853 56.98629695 0.00425601 C63.86759266 -0.00487788 70.74885783 -0.00607271 77.63015765 -0.00086665 C81.71612383 0.00221923 85.8020421 0.00275721 89.88800502 -0.00393963 C122.20707685 -0.04967781 122.20707685 -0.04967781 137.17499042 2.26865101 C138.56975152 2.47262063 139.96453228 2.67645583 141.35933185 2.88016224 C166.91750692 6.80251765 191.46586815 19.65591427 207.47967792 40.22958851 C226.63158152 66.86169689 231.33138661 97.75814854 231.32025409 129.88364124 C231.32325445 131.3094488 231.32665896 132.73525556 231.3304317 134.16106129 C231.33919045 138.00048565 231.34160646 141.83988766 231.34224749 145.67932105 C231.34296306 148.09035165 231.34510695 150.50137675 231.3477447 152.91240597 C231.35697393 161.35920154 231.36108297 169.80598142 231.36029315 178.25278187 C231.35969423 186.06769963 231.37021569 193.88254796 231.38603681 201.69744819 C231.39921497 208.45295511 231.40447273 215.20843964 231.40383774 221.96395928 C231.40358559 225.97803323 231.4062768 229.99204548 231.41701579 234.00610638 C231.51823809 274.73292906 229.56816675 317.5454612 199.17499042 348.26865101 C187.89175537 359.00351086 174.92356365 365.6617933 160.17499042 370.26865101 C159.08959979 370.62701038 158.00420917 370.98536976 156.88592792 371.35458851 C138.50757832 377.07899248 119.0225973 378.42071843 99.87958026 378.41391468 C98.48831349 378.41691524 97.09704754 378.4203198 95.70578265 378.42409229 C91.96159789 378.43284667 88.21743605 378.4352668 84.47324204 378.43590808 C82.12320831 378.43662363 79.77318023 378.43876744 77.42314792 378.4414053 C69.19377792 378.4506314 60.96442401 378.45474375 52.73504901 378.45395374 C45.11433961 378.45335415 37.49370125 378.46388978 29.8730098 378.47969741 C23.28909816 378.49285831 16.7052095 378.49813406 10.12128484 378.49749833 C6.20735144 378.49724578 2.29348126 378.49996014 -1.62043881 378.51067638 C-17.1197617 378.55022016 -32.45962756 378.57128802 -47.82500958 376.26865101 C-49.6085319 376.04077804 -51.39230147 375.81480741 -53.17657208 375.59286976 C-80.24479744 371.71468262 -106.17494114 360.71899576 -123.45000958 338.64365101 C-146.57655189 306.33990937 -147.16047716 267.87563061 -147.09366059 229.58329558 C-147.08849394 225.67792022 -147.09332083 221.77255287 -147.09643292 217.86717701 C-147.1000418 211.31763457 -147.09535499 204.76813766 -147.08575177 198.21860218 C-147.07486866 190.71077481 -147.07840434 183.20305614 -147.08940458 175.69523138 C-147.09856086 169.17812022 -147.09972264 162.66104126 -147.09452724 156.14392573 C-147.0914534 152.28257382 -147.0908684 148.42127252 -147.09760022 144.55992413 C-147.13118979 122.17365307 -147.00275361 100.00981442 -141.33086896 78.21298695 C-140.87440944 76.45852575 -140.44933447 74.69597187 -140.02813458 72.93271351 C-136.11251942 58.26762654 -128.16090706 44.32747516 -117.82500958 33.26865101 C-117.27715802 32.64216663 -116.72930646 32.01568226 -116.16485333 31.37021351 C-103.81238391 17.95549241 -86.18779421 10.49054917 -68.82500958 6.26865101 C-68.14599591 6.09736683 -67.46698224 5.92608265 -66.7673924 5.74960804 C-44.63217819 0.20325618 -22.67660326 -0.03719712 0 0 Z M-51.82500958 37.26865101 C-53.42360122 37.48384267 -55.02225415 37.69857972 -56.62098432 37.91273975 C-71.711215 40.05432948 -85.32385586 47.04624143 -94.95000958 58.95615101 C-119.73551845 94.35442519 -113.02792533 150.95901495 -113.06524396 192.07577991 C-113.06962222 196.19012823 -113.08351923 200.3042661 -113.10625958 204.41855335 C-116.17676938 266.28142452 -116.17676938 266.28142452 -93.82500958 321.26865101 C-93.37254865 321.84615101 -92.92008771 322.42365101 -92.45391583 323.01865101 C-78.37404418 339.40250166 -51.79494775 341.51111597 -31.82500958 343.26865101 C-16.14516788 344.39042837 -0.47992891 344.43213404 15.23358417 344.43661976 C17.23582908 344.43902502 19.23807399 344.4414328 21.2403186 344.44408017 C27.51387454 344.45215027 33.7874162 344.45467113 40.06097674 344.45395374 C46.46903842 344.45335314 52.87701589 344.46391901 59.28505629 344.47969741 C64.84834256 344.49289258 70.41160167 344.49813276 75.9749034 344.49749833 C79.27064691 344.49724705 82.56629966 344.50085608 85.86203074 344.51067638 C116.98708372 344.59478597 152.50146715 344.60260627 176.63983417 321.95615101 C193.02420373 304.94475899 195.18144778 281.64072988 196.23749042 259.20615101 C196.35434051 256.83198064 196.47322966 254.45793346 196.59428668 252.08397388 C196.66834853 250.6214158 196.73985873 249.15872482 196.80806231 247.69588184 C196.99158511 243.96533635 197.28318331 240.27803478 197.69134784 236.56528187 C198.54389118 227.40616878 198.36084541 218.18541341 198.37811542 208.99521351 C198.38094279 207.97133911 198.38377017 206.94746471 198.38668323 205.89256382 C198.40162559 200.45802783 198.41088238 195.02351798 198.41522479 189.58896351 C198.41958362 185.15756345 198.43338106 180.72636092 198.45624042 176.2950182 C200.59620121 114.80328673 200.59620121 114.80328673 178.17499042 59.26865101 C177.66452167 58.58415882 177.15405292 57.89966663 176.62811542 57.19443226 C163.35561785 40.6038103 141.06706001 36.72066746 121.14524174 34.4566853 C115.63433694 33.9307427 110.10443032 33.98312849 104.57416034 33.99399281 C103.18557728 33.98962897 101.79699661 33.98444038 100.40841937 33.97850513 C96.68244628 33.96527282 92.95657562 33.96451937 89.23058367 33.96706843 C86.09081885 33.96815051 82.95107373 33.96322284 79.81131321 33.95846301 C72.38117259 33.94741887 64.95108252 33.94689937 57.52093768 33.95297718 C49.93152378 33.95899148 42.34229647 33.94675917 34.75291437 33.92540711 C28.17560276 33.9076031 21.59834947 33.90181948 15.02101475 33.90504485 C11.12025874 33.90683075 7.21963532 33.90450082 3.31890178 33.89033031 C-15.25310311 33.82858105 -33.40439616 34.63507388 -51.82500958 37.26865101 Z " fill="#FEFDFD" transform="translate(213.82500958442688,66.73134899139404)"/>
<path d="M0 0 C1.11375 0.38414062 2.2275 0.76828125 3.375 1.1640625 C27.1522068 10.26627448 46.67806603 29.187783 57.46484375 52.11328125 C58.80132633 55.37527368 59.93648656 58.63914613 61 62 C61.39316406 63.2271875 61.78632813 64.454375 62.19140625 65.71875 C66.53764388 80.68871376 67.05981007 97.92473653 63 113 C62.83387207 113.67579102 62.66774414 114.35158203 62.49658203 115.04785156 C56.05190628 140.88894254 40.6650951 162.03010352 17.74609375 175.89453125 C-4.37065432 188.66567966 -30.65479629 192.92396778 -55.62426758 186.91088867 C-81.09006368 180.06437517 -103.17533644 163.85323044 -116.3671875 140.96875 C-129.06534413 118.18714381 -133.25404183 91.60907091 -126.3203125 66.171875 C-119.26107113 42.90131897 -105.1558384 23.58448287 -85 10 C-84.20335937 9.44828125 -83.40671875 8.8965625 -82.5859375 8.328125 C-58.45465919 -7.32895859 -26.73234896 -9.4577023 0 0 Z " fill="#FEFDFD" transform="translate(288,164)"/>
<path d="M0 0 C0 0.33 0 0.66 0 1 C-2.31 1.33 -4.62 1.66 -7 2 C-6.59910156 2.37769531 -6.19820313 2.75539062 -5.78515625 3.14453125 C-1.26668291 7.51956099 2.67311782 12.21260143 6.61328125 17.109375 C8.99370482 19.99237572 11.46679782 22.75078833 14 25.5 C18.09351091 29.94727112 21.92442499 34.54717463 25.71875 39.25 C28.06718968 42.08099578 30.50909902 44.79383598 33 47.5 C39.0219177 54.04801347 44.67833939 60.87151563 50 68 C49.3922876 68.06993164 48.7845752 68.13986328 48.15844727 68.21191406 C15.39095809 72.05129963 -14.83485833 79.14921563 -37.64453125 104.96875 C-41.77222838 110.28067864 -44.91077926 116.03065425 -48 122 C-48.33217529 122.62052246 -48.66435059 123.24104492 -49.0065918 123.88037109 C-51.60805888 128.85607054 -53.46302429 133.87325557 -55.0625 139.25 C-55.31926514 140.11117432 -55.57603027 140.97234863 -55.84057617 141.85961914 C-60.80105239 159.22364879 -61.91282358 177.28026155 -62.5 195.25 C-62.53988037 196.42715576 -62.57976074 197.60431152 -62.62084961 198.81713867 C-63.281404 219.53897442 -63.6111645 240.2716679 -64 261 C-67.55095777 259.34004647 -69.5854939 257.52471095 -72.1875 254.5625 C-72.97640625 253.6653125 -73.7653125 252.768125 -74.578125 251.84375 C-77.67550793 248.20682295 -80.67978372 244.49943265 -83.68359375 240.78515625 C-86.84092094 236.98890956 -90.18800591 233.38216642 -93.53125 229.75 C-96.72881296 226.18815771 -99.71388343 222.47434167 -102.71875 218.75 C-105.06718968 215.91900422 -107.50909902 213.20616402 -110 210.5 C-114.10953207 206.03311732 -117.99501643 201.43368185 -121.796875 196.703125 C-123.74963029 194.11471633 -123.74963029 194.11471633 -125.50334167 192.79377747 C-129.21040397 189.49568402 -130.3616868 186.53874268 -130.67105579 181.57909679 C-130.77527521 177.79889645 -130.74543427 174.02689316 -130.69140625 170.24609375 C-130.68782047 168.58244652 -130.68647356 166.91879313 -130.6872406 165.25514221 C-130.682554 161.76386521 -130.6577874 158.27351433 -130.61743164 154.7824707 C-130.56704899 150.37494419 -130.55523773 145.96844221 -130.55688381 141.56066322 C-130.55303103 100.40443189 -126.78236729 62.8646111 -96.75 32.1875 C-71.15796199 6.88455827 -35.11098692 -0.66467162 0 0 Z " fill="#FE6541" transform="translate(130,0)"/>
<path d="M0 0 C18.47384244 -0.09405119 36.9476215 -0.16427347 55.42165279 -0.20724869 C64.00229402 -0.22774618 72.58278524 -0.2556167 81.16333008 -0.30175781 C88.65489094 -0.3420233 96.14634303 -0.36752547 103.63800913 -0.37635398 C107.59325664 -0.38150269 111.54819338 -0.39332458 115.50333977 -0.42292023 C177.48645289 -0.86827087 177.48645289 -0.86827087 200.12890625 20.04296875 C224.35170706 45.37829903 224.35587946 89.13604822 224.23046875 121.98046875 C224.22927162 124.09743725 224.22882491 126.2144063 224.2290802 128.33137512 C224.22753365 132.72038199 224.21938136 137.10930517 224.20581055 141.49829102 C224.1887072 147.09712774 224.18500065 152.69587419 224.18575573 158.294734 C224.18548294 162.64694566 224.17998619 166.99913796 224.17275429 171.35134315 C224.16959666 173.4160275 224.1676071 175.480714 224.16686058 177.54540062 C224.15936575 187.42184293 224.11438285 197.17491889 223 207 C222.87467466 209.10698568 222.76516243 211.21508584 222.68359375 213.32421875 C222.64169922 214.37158203 222.59980469 215.41894531 222.55664062 216.49804688 C222.51732422 217.55056641 222.47800781 218.60308594 222.4375 219.6875 C222.37272461 221.33008789 222.37272461 221.33008789 222.30664062 223.00585938 C222.20191731 225.67048597 222.09974221 228.33518311 222 231 C218.23745289 229.27063965 216.43276569 227.35173005 213.875 224.0625 C210.70458529 220.07609331 207.45622104 216.2415477 204 212.5 C199.90648909 208.05272888 196.07557501 203.45282537 192.28125 198.75 C189.93281032 195.91900422 187.49090098 193.20616402 185 190.5 C180.89046793 186.03311732 177.00498357 181.43368185 173.203125 176.703125 C171.19872766 174.1174733 171.19872766 174.1174733 169.42236328 172.53271484 C165.83348622 169.00972774 164.60616168 166.50863807 164.3359375 161.4453125 C164.32627027 159.33852361 164.34033646 157.23152589 164.375 155.125 C164.09325595 133.77437423 158.74745027 113.75953208 145 97 C143.96746094 95.63294922 143.96746094 95.63294922 142.9140625 94.23828125 C127.65170693 74.48537701 105.28150383 63.34048302 81 59 C78.30530639 58.68310527 75.6517842 58.52171806 72.9375 58.375 C71.62652344 58.30023438 70.31554687 58.22546875 68.96484375 58.1484375 C67.98644531 58.09945312 67.00804687 58.05046875 66 58 C66.99 57.34 67.98 56.68 69 56 C67.96552734 54.89205078 67.96552734 54.89205078 66.91015625 53.76171875 C62.29137964 48.78561558 57.75772135 43.79317445 53.5 38.5 C50.30067413 34.52369499 46.9740667 30.73340604 43.5 27 C39.13988569 22.31213741 35.02731188 17.4773378 31.015625 12.484375 C29.20500154 10.25267632 27.34087432 8.08991395 25.4375 5.9375 C23 3 23 3 23 1 C15.41 1 7.82 1 0 1 C0 0.67 0 0.34 0 0 Z " fill="#EA4965" transform="translate(188,101)"/>
<path d="M0 0 C5.03408097 3.74329097 8.67182147 8.14962888 12.578125 13.0390625 C14.96315907 15.95495899 17.44588616 18.73172134 20 21.5 C23.27418423 25.05670244 26.40642433 28.67161811 29.4375 32.4375 C32.65943748 36.43224789 36.00661846 40.24547626 39.5 44 C44.58722918 49.46910285 49.30255507 55.19257281 54 61 C55.25932116 62.55108468 56.52916865 64.09372141 57.8125 65.625 C58.33457031 66.25664062 58.85664063 66.88828125 59.39453125 67.5390625 C61.23458983 69.21347103 62.57041085 69.61000087 65 70 C59.71195552 92.31051147 43.00592762 112.64065401 24 125 C6.69295628 135.54949466 -10.54536214 140.70052179 -30.75 142.0625 C-31.92957275 142.14483887 -33.10914551 142.22717773 -34.32446289 142.31201172 C-54.9043761 143.70899487 -75.37274285 144.14843039 -96 144 C-96 143.67 -96 143.34 -96 143 C-93.03 142.67 -90.06 142.34 -87 142 C-95.23678542 132.31265641 -95.23678542 132.31265641 -103.6875 122.8125 C-106.71712868 119.47772886 -109.60608092 116.06712361 -112.4375 112.5625 C-116.29071149 107.79792022 -120.35748052 103.28323376 -124.5078125 98.77734375 C-127.80941431 95.09797246 -130.90876796 91.27296412 -133.9921875 87.41015625 C-135.96048736 84.96121763 -135.96048736 84.96121763 -138.2578125 82.80859375 C-140 81 -140 81 -140 79 C-131.74775161 76.9944301 -123.58516063 76.49575712 -115.125 76.0625 C-85.70938268 74.34976313 -54.0538152 70.11969327 -31 50 C-30.35160156 49.505 -29.70320313 49.01 -29.03515625 48.5 C-15.34229177 37.65416675 -6.61518172 19.56538123 -1.69140625 3.16015625 C-1 1 -1 1 0 0 Z " fill="#F8504C" transform="translate(439,368)"/>
<path d="M0 0 C11.89628916 9.00407207 20.57328314 21.72028844 23.8359375 36.3828125 C24.48851638 41.67413961 24.62844087 46.91807105 24.6796875 52.24609375 C24.69370605 53.25124023 24.70772461 54.25638672 24.72216797 55.29199219 C24.65801398 65.36252313 22.24084097 74.29618586 17.6796875 83.24609375 C17.33268799 83.92728271 16.98568848 84.60847168 16.62817383 85.31030273 C11.04822707 95.83081437 3.56324956 102.32377875 -6.6953125 108.18359375 C-7.52933594 108.70824219 -8.36335938 109.23289062 -9.22265625 109.7734375 C-22.82889425 117.53307718 -42.8928477 116.85766321 -57.6953125 113.18359375 C-70.2355276 109.64259697 -83.10055253 100.67507306 -89.75390625 89.38769531 C-96.58385781 77.08284487 -100.2731391 66.15790076 -100.1953125 51.93359375 C-100.19031738 50.73863281 -100.18532227 49.54367188 -100.18017578 48.3125 C-100.00188886 39.2924111 -98.87410853 32.27586543 -94.6953125 24.18359375 C-94.02628906 22.73726562 -94.02628906 22.73726562 -93.34375 21.26171875 C-86.36307487 7.14437576 -74.93120448 -2.38184852 -60.2578125 -7.75390625 C-40.00786614 -14.54996333 -17.72588579 -11.94570564 0 0 Z " fill="#FE6441" transform="translate(293.6953125,203.81640625)"/>
<path d="M0 0 C6.87858699 -0.07736634 13.75705816 -0.12913803 20.63598633 -0.16479492 C22.96610708 -0.17969155 25.29620079 -0.20001569 27.6262207 -0.22631836 C65.02255381 -0.63726707 100.32851737 5.816015 127.98828125 32.87109375 C154.27111679 59.66901554 160.54461278 95.24344872 160.29296875 131.3828125 C160.28735946 133.77847017 160.28309568 136.17413133 160.28010559 138.5697937 C160.26876174 144.81351564 160.23938692 151.05702145 160.20599365 157.30065918 C160.17506479 163.69650348 160.16155194 170.0923834 160.14648438 176.48828125 C160.1145053 188.9922814 160.0634386 201.49612259 160 214 C159.67 214 159.34 214 159 214 C159 204.43 159 194.86 159 185 C158.34 184.67 157.68 184.34 157 184 C157 183.67 157 183.34 157 183 C156.01 182.67 155.02 182.34 154 182 C152.60410053 180.44996996 151.28112981 178.83365761 150 177.1875 C146.63921298 172.97014876 143.17984898 168.94044328 139.5 165 C135.20955394 160.39083509 131.19582738 155.62208856 127.24609375 150.71484375 C124.9116941 147.89326505 122.48009402 145.19409288 120 142.5 C115.90648909 138.05272888 112.07557501 133.45282537 108.28125 128.75 C105.13805742 124.96094593 101.79841405 121.36730648 98.46484375 117.74609375 C96.07292703 115.08124834 93.80745116 112.35168175 91.5625 109.5625 C88.34056899 105.56776014 84.99344505 101.75445651 81.5 98 C77.21044887 93.38995664 73.19589328 88.62217044 69.24609375 83.71484375 C66.9116941 80.89326505 64.48009402 78.19409288 62 75.5 C57.90648909 71.05272888 54.07557501 66.45282537 50.28125 61.75 C47.13805742 57.96094593 43.79841405 54.36730648 40.46484375 50.74609375 C38.07292703 48.08124834 35.80745116 45.35168175 33.5625 42.5625 C30.34056899 38.56776014 26.99344505 34.75445651 23.5 31 C19.22309955 26.4035525 15.21878863 21.6512029 11.28125 16.7578125 C7.35926166 12.01650467 3.18127719 7.51298603 -1 3 C-0.67 2.01 -0.34 1.02 0 0 Z " fill="#D03B9B" transform="translate(352,0)"/>
<path d="M0 0 C8.40031702 8.38720385 16.3547216 17.06093485 23.7890625 26.3203125 C26.1093495 29.13253315 28.53071134 31.81797263 31 34.5 C35.09351091 38.94727112 38.92442499 43.54717463 42.71875 48.25 C45.85077731 52.02559456 49.17769703 55.60703036 52.5 59.21484375 C55.86542671 62.96413944 59.03253088 66.85834646 62.1875 70.78515625 C63.96126357 73.02753567 63.96126357 73.02753567 66 75 C66.31506634 77.37745094 66.31506634 77.37745094 66.40568542 80.39004517 C66.44320325 81.51028769 66.48072107 82.6305302 66.5193758 83.78471947 C66.54931724 85.00125521 66.57925867 86.21779095 66.61010742 87.47119141 C66.6474937 88.730805 66.68487997 89.99041859 66.72339916 91.28820229 C67.07741437 104.01114349 67.20010982 116.73364268 67.23828125 129.4609375 C67.24235678 130.64344715 67.2464323 131.8259568 67.25063133 133.04430008 C67.27120201 139.28132177 67.28563578 145.51832324 67.29516602 151.75537109 C67.30628953 158.11536623 67.34084229 164.47501738 67.38033772 170.83489037 C67.4066846 175.80946422 67.4148728 180.78395706 67.41844749 185.75859451 C67.42325098 188.10169477 67.43468073 190.44479301 67.45348549 192.78782272 C67.5951904 211.57899591 65.67860523 229.04082497 60 247 C55.29492188 247.25244141 55.29492188 247.25244141 52.640625 244.98046875 C51.85171875 244.05878906 51.0628125 243.13710938 50.25 242.1875 C49.81880859 241.69121094 49.38761719 241.19492187 48.94335938 240.68359375 C45.29436235 236.45225313 41.78939325 232.09812121 38.28125 227.75 C35.93281032 224.91900422 33.49090098 222.20616402 31 219.5 C26.90648909 215.05272888 23.07557501 210.45282537 19.28125 205.75 C16.14686579 201.97156424 12.81743654 198.38746615 9.4921875 194.77734375 C6.19058569 191.09797246 3.09123204 187.27296412 0.0078125 183.41015625 C-1.91674883 180.95103192 -1.91674883 180.95103192 -4.30078125 179.08984375 C-6 177 -6 177 -5.98828125 173.90625 C-5.76527344 172.7821875 -5.54226563 171.658125 -5.3125 170.5 C-5.10238281 169.3759375 -4.89226562 168.251875 -4.67578125 167.09375 C-4.30700286 165.40546974 -3.92665326 163.71893722 -3.49030113 162.04684734 C0.60259108 144.96035701 -0.65829652 126.27275058 -0.59528303 108.80258346 C-0.57940265 104.96293577 -0.55269541 101.12336178 -0.5272522 97.2837677 C-0.48089688 90.04901323 -0.44394698 82.8142442 -0.41057932 75.57941943 C-0.37204769 67.32753179 -0.32272155 59.07571894 -0.27259517 50.82389486 C-0.16992051 33.88265108 -0.08045552 16.9413636 0 0 Z " fill="#E44672" transform="translate(445,191)"/>
<path d="M0 0 C3.74888398 1.24962799 4.64619319 2.77896986 7.0625 5.875 C10.25774361 9.88329587 13.51929973 13.73150392 17 17.5 C20.27418423 21.05670244 23.40642433 24.67161811 26.4375 28.4375 C29.65943964 32.43225056 33.00663965 36.24545383 36.5 40 C40.86727734 44.6956212 45.00050793 49.52469707 48.984375 54.5546875 C50.89774689 56.97120721 50.89774689 56.97120721 52.890625 58.8203125 C56.372911 62.18869195 57.40491654 64.55241267 57.5625 69.4375 C56.40583093 90.07761695 50.41424173 109.08057569 35.375 123.75 C18.26327224 138.39847752 -6.18195284 142.05855244 -28 143 C-28.80937012 143.06445312 -29.61874023 143.12890625 -30.45263672 143.1953125 C-46.60412549 144.45728449 -46.60412549 144.45728449 -52.03125 141.15625 C-54.35301014 138.57288308 -56.15927177 135.94279514 -58 133 C-59.43479343 131.18942734 -60.89379312 129.39780336 -62.375 127.625 C-63.11492187 126.70976562 -63.85484375 125.79453125 -64.6171875 124.8515625 C-67.60034993 121.28154844 -70.74517033 117.88575997 -73.91357422 114.48095703 C-77.6821808 110.40717882 -81.17384708 106.14866561 -84.65234375 101.82421875 C-88.90579921 96.70733306 -93.46014258 91.86231459 -98 87 C-95.13638807 85.40675796 -92.79307888 84.67924397 -89.54296875 84.32421875 C-88.25640381 84.1701355 -88.25640381 84.1701355 -86.94384766 84.01293945 C-86.03425293 83.90554443 -85.1246582 83.79814941 -84.1875 83.6875 C-59.07596915 80.35550058 -35.61206827 68.36864234 -20 48 C-9.76060648 33.7736239 -2.09104996 17.54663666 0 0 Z " fill="#FF6541" transform="translate(352,268)"/>
<path d="M0 0 C1.38112131 -0.0369914 2.76187141 -0.09188802 4.14160156 -0.1640625 C15.62325601 -0.75154635 15.62325601 -0.75154635 19.60449219 2.3671875 C21.39320085 4.68016436 22.84720812 7.04090619 24.31005859 9.56982422 C25.30190083 10.80677325 26.32437331 12.01998604 27.38037109 13.20263672 C27.87730469 13.77304688 28.37423828 14.34345703 28.88623047 14.93115234 C29.39734375 15.51316406 29.90845703 16.09517578 30.43505859 16.69482422 C31.57314236 17.99945683 32.71116134 19.30414594 33.84912109 20.60888672 C34.42307617 21.2653418 34.99703125 21.92179687 35.58837891 22.59814453 C38.33824467 25.74731015 41.07381724 28.90882188 43.81005859 32.06982422 C47.19363538 35.97836745 50.58156032 39.88290852 53.98193359 43.77685547 C54.58070313 44.46392578 55.17947266 45.15099609 55.79638672 45.85888672 C56.94963074 47.18198839 58.10451277 48.50366458 59.26123047 49.82373047 C63.1975964 54.34489982 63.1975964 54.34489982 64.31005859 56.56982422 C63.63128662 56.66481201 62.95251465 56.7597998 62.25317383 56.85766602 C31.91104171 61.18491888 5.26714631 70.1540346 -14.37744141 95.25732422 C-23.36962974 107.83673617 -29.47261894 121.3235105 -32.81494141 136.44482422 C-33.24806641 137.99169922 -33.24806641 137.99169922 -33.68994141 139.56982422 C-34.67994141 139.89982422 -35.66994141 140.22982422 -36.68994141 140.56982422 C-42.01853345 134.86275274 -47.29344443 129.15712083 -52.18994141 123.06982422 C-55.38925862 119.09352996 -58.71579086 115.30314124 -62.18994141 111.56982422 C-66.47133093 106.96860756 -70.47969134 102.21128376 -74.42041016 97.31201172 C-77.65324893 93.40589671 -81.07701816 89.69708594 -84.52587891 85.97998047 C-88.85457607 81.15903074 -90.13027395 78.99089509 -89.91259766 72.52685547 C-88.36180813 51.93128233 -83.45386569 30.97570773 -67.68994141 16.56982422 C-64.82878721 14.25535484 -61.90001129 12.36336998 -58.68994141 10.56982422 C-57.96291016 10.13025391 -57.23587891 9.69068359 -56.48681641 9.23779297 C-40.31833724 0.60591135 -17.95728169 0.37294903 0 0 Z " fill="#FE6541" transform="translate(193.68994140625,101.43017578125)"/>
<path d="M0 0 C3.887783 3.18278243 7.13568089 6.14295076 10.25 10.125 C13.38126742 14.04433809 16.59814431 17.81289554 20 21.5 C24.09351091 25.94727112 27.92442499 30.54717463 31.71875 35.25 C34.86194258 39.03905407 38.20158595 42.63269352 41.53515625 46.25390625 C43.92707297 48.91875166 46.19254884 51.64831825 48.4375 54.4375 C51.65943101 58.43223986 55.00655495 62.24554349 58.5 66 C62.78955113 70.61004336 66.80410672 75.37782956 70.75390625 80.28515625 C73.0883059 83.10673495 75.51990598 85.80590712 78 88.5 C82.09351091 92.94727112 85.92442499 97.54717463 89.71875 102.25 C92.06718968 105.08099578 94.50909902 107.79383598 97 110.5 C101.09351091 114.94727112 104.92442499 119.54717463 108.71875 124.25 C111.86194258 128.03905407 115.20158595 131.63269352 118.53515625 135.25390625 C120.92707297 137.91875166 123.19254884 140.64831825 125.4375 143.4375 C129.09011755 147.9662304 132.93462732 152.24488214 136.89624023 156.49951172 C140.83711107 160.75784738 144.502904 165.18837798 148.125 169.72265625 C150.90776217 173.46002439 150.90776217 173.46002439 154.90112305 175.43237305 C155.94586792 175.47164917 155.94586792 175.47164917 157.01171875 175.51171875 C157.76904297 175.54716797 158.52636719 175.58261719 159.30664062 175.61914062 C160.48516602 175.65297852 160.48516602 175.65297852 161.6875 175.6875 C162.48478516 175.72166016 163.28207031 175.75582031 164.10351562 175.79101562 C166.06851904 175.87338104 168.03423696 175.93837067 170 176 C170 176.33 170 176.66 170 177 C153.54698321 177.25557321 137.18160464 176.95934536 120.75 176.125 C119.53677567 176.0660556 119.53677567 176.0660556 118.29904175 176.00592041 C86.20444867 174.42153524 53.44548049 168.66342824 30.6875 143.55175781 C8.18248578 117.77009025 -0.22782579 82.79972472 -0.09765625 49.21875 C-0.09578803 47.79528859 -0.09436603 46.37182654 -0.09336853 44.94836426 C-0.08957518 41.22646263 -0.07977257 37.50460087 -0.06866455 33.78271484 C-0.05838152 29.97494038 -0.05385623 26.16715939 -0.04882812 22.359375 C-0.03814702 14.90623195 -0.02110946 7.45312159 0 0 Z " fill="#FEC951" transform="translate(0,335)"/>
<path d="M0 0 C1.46952601 -0.0226754 2.93904907 -0.04554349 4.40856934 -0.06858826 C17.76780271 -0.26985172 31.12827352 -0.38263121 44.48867512 -0.47180843 C53.45421551 -0.53298695 62.41786401 -0.62077869 71.38232422 -0.77539062 C79.22839079 -0.91070254 87.07314873 -0.99624327 94.9203679 -1.0222159 C99.06480363 -1.03753177 103.20575286 -1.07656688 107.34911537 -1.1750927 C134.51074202 -1.79468154 134.51074202 -1.79468154 140.94389343 3.40444946 C144.1355486 6.7088065 146.19662973 10.275665 148.30737305 14.33569336 C149.42431277 15.730795 150.57224018 17.1037895 151.7878418 18.41381836 C152.47269653 19.21662231 152.47269653 19.21662231 153.17138672 20.03564453 C157.05624435 24.5855359 160.96784398 29.09765621 164.99487305 33.52319336 C168.8220162 37.73580417 172.40327681 42.1126162 175.97924805 46.53881836 C179.13575607 50.33086491 182.47593491 53.93666397 185.8503418 57.53491211 C187.8444104 59.8079601 189.65877361 62.08905065 191.4609375 64.51074219 C191.99564163 65.22796951 192.53034576 65.94519684 193.08125305 66.68415833 C193.48587265 67.22916489 193.89049225 67.77417145 194.30737305 68.33569336 C173.78407164 68.6399271 153.26114409 68.86888617 132.73604202 69.00925159 C123.20485117 69.07617097 113.67506458 69.16733181 104.14477539 69.31640625 C95.83406534 69.4463414 87.52437248 69.52993312 79.21267486 69.55884379 C74.81459662 69.57573498 70.41942716 69.61516358 66.02228546 69.7101841 C61.87461688 69.79907921 57.73102551 69.8255233 53.58249474 69.80609322 C52.06827983 69.80964182 50.55391503 69.83513644 49.04052925 69.88536453 C42.60704085 70.08823886 36.83744789 70.03500604 31.81649017 65.54010582 C28.68867204 62.35507528 25.98805216 58.89667392 23.30737305 55.33569336 C21.77059905 53.45668117 20.22986264 51.58089043 18.68237305 49.71069336 C17.96823242 48.82124023 17.2540918 47.93178711 16.51831055 47.01538086 C14.19802354 44.20316021 11.77666171 41.51772073 9.30737305 38.83569336 C6.01405606 35.25776873 2.86085983 31.6202967 -0.19262695 27.83569336 C-4.06974283 23.03382369 -8.1481503 18.46329415 -12.32543945 13.92163086 C-15.04066975 10.95548819 -17.68727522 7.9356313 -20.31762695 4.89428711 C-21.39916855 3.66833513 -22.53662295 2.49169736 -23.69262695 1.33569336 C-15.79647914 0.27965999 -7.95786875 0.10650136 0 0 Z " fill="#E24578" transform="translate(144.692626953125,-0.335693359375)"/>
<path d="M0 0 C2.08803626 0.08895161 4.17322135 0.24329217 6.25585938 0.41772461 C18.44025205 1.3058213 30.65294043 1.22846937 42.86343956 1.30332303 C46.32406341 1.32548666 49.78464762 1.35272386 53.24523926 1.37937927 C59.7718473 1.42890223 66.29847781 1.47398745 72.82512903 1.51740164 C80.26673901 1.5671238 87.70830915 1.62190992 95.14988041 1.67708123 C110.43321663 1.79027949 125.71658975 1.89724898 141 2 C141 2.33 141 2.66 141 3 C136.05 3.495 136.05 3.495 131 4 C135.65984626 9.84494297 140.40856062 15.53019118 145.5 21 C149.7896463 25.60995773 153.80411132 30.37783527 157.75390625 35.28515625 C160.0883059 38.10673495 162.51990598 40.80590712 165 43.5 C169.16287719 48.02486651 173.08971101 52.69159553 176.94921875 57.4765625 C178.7811918 59.73076172 180.65435645 61.93532707 182.5625 64.125 C185 67 185 67 185 68 C177.65495275 68.86801226 170.38432669 69.19370711 162.99194336 69.28808594 C161.83451126 69.30590118 160.67707916 69.32371643 159.48457336 69.34207153 C148.89258813 69.49559129 138.2996895 69.58523173 127.7068243 69.65206528 C119.89529046 69.70237998 112.08584317 69.78858932 104.2752561 69.92068648 C98.75823036 70.01082191 93.24177691 70.05853056 87.72404772 70.07564378 C84.43785243 70.08706729 81.15495773 70.12278827 77.86942863 70.19359589 C56.29701456 70.63698145 56.29701456 70.63698145 51.45181274 66.59216309 C49.15624463 63.81240924 47.5787012 61.22473525 46 58 C44.54568873 56.1756391 44.54568873 56.1756391 43.03125 54.6875 C37.8610671 49.19817 32.97712107 43.59278679 28.24609375 37.71484375 C25.9116941 34.89326505 23.48009402 32.19409288 21 29.5 C16.89879023 25.0438169 13.0521255 20.43848231 9.25 15.7265625 C5.64311347 11.35571736 1.83060956 7.17473051 -2 3 C-1 1 -1 1 0 0 Z " fill="#FF8847" transform="translate(168,443)"/>
<path d="M0 0 C0.33 0 0.66 0 1 0 C0.98588074 0.55995163 0.97176147 1.11990326 0.95721436 1.69682312 C0.82078778 7.58735716 0.77068647 13.47437636 0.76806641 19.36645508 C0.75614753 21.55743442 0.72307284 23.74841432 0.66748047 25.9387207 C-0.03515296 40.46553809 -0.03515296 40.46553809 6.15460205 53.03462219 C8.64464572 55.52296889 11.29998356 57.74013275 14 60 C15.58453119 61.83891871 17.13459905 63.70899736 18.625 65.625 C21.63363119 69.37221213 24.74492917 72.9644923 28 76.5 C31.27418423 80.05670244 34.40642433 83.67161811 37.4375 87.4375 C40.65943101 91.43223986 44.00655495 95.24554349 47.5 99 C51.78955113 103.61004336 55.80410672 108.37782956 59.75390625 113.28515625 C62.0883059 116.10673495 64.51990598 118.80590712 67 121.5 C71.09351091 125.94727112 74.92442499 130.54717463 78.71875 135.25 C81.86194258 139.03905407 85.20158595 142.63269352 88.53515625 146.25390625 C90.92707297 148.91875166 93.19254884 151.64831825 95.4375 154.4375 C98.6594418 158.43225324 102.00666084 162.2454314 105.5 166 C109.83615074 170.66266584 113.93729883 175.46576698 117.9296875 180.4296875 C118.61289063 181.27789062 119.29609375 182.12609375 120 183 C120.66644531 184.07765625 121.33289063 185.1553125 122.01953125 186.265625 C123.81447044 188.41279688 124.78243062 188.95151715 127.55273438 189.56884766 C130.65272585 189.81527555 133.7029122 189.88259826 136.8125 189.875 C137.88693359 189.895625 138.96136719 189.91625 140.06835938 189.9375 C142.71301554 189.98451611 145.3550121 190.0044491 148 190 C148 190.33 148 190.66 148 191 C78.67164306 191.55761223 78.67164306 191.55761223 54 186 C52.71351563 185.72414063 51.42703125 185.44828125 50.1015625 185.1640625 C35.17870872 181.62253331 22.50570533 175.05774406 14.00390625 161.9140625 C6.91914201 148.84152977 3.70015801 133.93868982 2.22857666 119.23872375 C2.07695729 117.75373452 1.91732562 116.26954018 1.74945068 114.78630066 C-0.73518492 92.47336389 -0.23308335 70.04950702 -0.1373291 47.63568115 C-0.11657204 42.25127756 -0.10767269 36.86685426 -0.09765625 31.48242188 C-0.07644665 20.98823064 -0.04248302 10.49412523 0 0 Z " fill="#FE954A" transform="translate(101,220)"/>
<path d="M0 0 C0 0.33 0 0.66 0 1 C-2.31 1.33 -4.62 1.66 -7 2 C-6.59910156 2.37769531 -6.19820313 2.75539062 -5.78515625 3.14453125 C-1.26668291 7.51956099 2.67311782 12.21260143 6.61328125 17.109375 C8.99370482 19.99237572 11.46679782 22.75078833 14 25.5 C18.09351091 29.94727112 21.92442499 34.54717463 25.71875 39.25 C28.06718968 42.08099578 30.50909902 44.79383598 33 47.5 C39.0219177 54.04801347 44.67833939 60.87151563 50 68 C49.3922876 68.06993164 48.7845752 68.13986328 48.15844727 68.21191406 C19.29280044 71.59411851 -7.59779107 77.20165503 -30 97 C-33.7902902 95.49066744 -35.58677989 93.31798482 -38.0625 90.125 C-41.40079673 85.92609147 -44.8393237 81.91950555 -48.5 78 C-52.7904724 73.39086198 -56.80417488 68.62208576 -60.75390625 63.71484375 C-63.0883059 60.89326505 -65.51990598 58.19409288 -68 55.5 C-72.12150398 51.02121394 -75.99429637 46.39521217 -79.81640625 41.66015625 C-83.09340113 37.6679675 -86.53235604 33.82669157 -90 30 C-84.89688382 18.5179886 -71.99546381 13.36137816 -60.86743164 9.01464844 C-48.99191464 4.65239832 -36.63188785 2.80616083 -24.125 1.25 C-22.59286865 1.05821167 -22.59286865 1.05821167 -21.02978516 0.86254883 C-13.99547839 0.05500723 -7.07711696 -0.14144804 0 0 Z " fill="#F8504C" transform="translate(130,0)"/>
<path d="M0 0 C0.54269531 0.69867188 1.08539063 1.39734375 1.64453125 2.1171875 C4.20044032 5.24531501 6.92119526 8.18533132 9.6875 11.125 C14.24750899 16.01196087 18.53749557 21.03948363 22.72265625 26.25390625 C25.21826547 29.26319147 27.83766805 32.13937022 30.5 35 C34.7846372 39.60465159 38.79634061 44.365106 42.73828125 49.26953125 C45.15411027 52.18605022 47.68065687 54.96812627 50.25 57.75 C53.85250425 61.66113 57.05218371 65.57827557 60 70 C57.56686634 70.97081117 55.12933062 71.92650211 52.6875 72.875 C52.01654297 73.14441406 51.34558594 73.41382813 50.65429688 73.69140625 C40.83260199 77.47252822 30.67827614 78.35953839 20.25 79.0625 C19.07042725 79.14483887 17.89085449 79.22717773 16.67553711 79.31201172 C-3.9043761 80.70899487 -24.37274285 81.14843039 -45 81 C-45 80.67 -45 80.34 -45 80 C-40.545 79.505 -40.545 79.505 -36 79 C-44.23678542 69.31265641 -44.23678542 69.31265641 -52.6875 59.8125 C-55.71712868 56.47772886 -58.60608092 53.06712361 -61.4375 49.5625 C-65.29071149 44.79792022 -69.35748052 40.28323376 -73.5078125 35.77734375 C-76.80941431 32.09797246 -79.90876796 28.27296412 -82.9921875 24.41015625 C-84.96048736 21.96121763 -84.96048736 21.96121763 -87.2578125 19.80859375 C-89 18 -89 18 -89 16 C-80.74775161 13.9944301 -72.58516063 13.49575712 -64.125 13.0625 C-41.77378214 11.7610908 -20.8895251 8.53717574 0 0 Z " fill="#FE6541" transform="translate(388,431)"/>
<path d="M0 0 C3.887783 3.18278243 7.13568089 6.14295076 10.25 10.125 C13.38126742 14.04433809 16.59814431 17.81289554 20 21.5 C23.27418423 25.05670244 26.40642433 28.67161811 29.4375 32.4375 C33.09571015 36.97316443 36.94742965 41.2570117 40.91381836 45.51928711 C43.90427 48.75193975 46.73779007 52.06696766 49.5 55.5 C54.43447159 61.53102084 59.73445199 67.25576581 65 73 C65.33 54.85 65.66 36.7 66 18 C66.33 18 66.66 18 67 18 C67.09338994 30.65836091 67.16411072 43.31663755 67.20724869 55.97527504 C67.22797071 61.85554956 67.2560012 67.73558542 67.30175781 73.61572266 C67.34577185 79.30867169 67.36925216 85.00139369 67.37950897 90.69449997 C67.38680205 92.84781841 67.40103746 95.00112687 67.42292023 97.15434647 C67.6011155 115.44469678 65.5351975 132.52642703 60 150 C55.29492188 150.25244141 55.29492188 150.25244141 52.640625 147.98046875 C51.85171875 147.05878906 51.0628125 146.13710938 50.25 145.1875 C49.81880859 144.69121094 49.38761719 144.19492187 48.94335938 143.68359375 C45.29436235 139.45225313 41.78939325 135.09812121 38.28125 130.75 C35.93281032 127.91900422 33.49090098 125.20616402 31 122.5 C26.90648909 118.05272888 23.07557501 113.45282537 19.28125 108.75 C16.14686579 104.97156424 12.81743654 101.38746615 9.4921875 97.77734375 C6.19058569 94.09797246 3.09123204 90.27296412 0.0078125 86.41015625 C-1.91674883 83.95103192 -1.91674883 83.95103192 -4.30078125 82.08984375 C-6 80 -6 80 -5.98828125 76.90625 C-5.76527344 75.7821875 -5.54226563 74.658125 -5.3125 73.5 C-5.10238281 72.3759375 -4.89226562 71.251875 -4.67578125 70.09375 C-4.31062854 68.42206823 -3.93212498 66.75197551 -3.48046875 65.1015625 C1.27928829 44.28246258 -0.36220833 21.24219323 0 0 Z " fill="#EE4B5E" transform="translate(445,288)"/>
<path d="M0 0 C6.60527225 6.39219895 12.6620542 13.29230245 18.4375 20.4375 C22.29941675 25.21284402 26.37674224 29.73667685 30.53515625 34.25390625 C32.92707297 36.91875166 35.19254884 39.64831825 37.4375 42.4375 C41.09034768 46.96651573 44.93314751 51.2476243 48.8984375 55.49951172 C52.83001036 59.74256482 56.45280567 64.17263675 60.02734375 68.72265625 C61.82121704 71.06163941 61.82121704 71.06163941 64.10638428 72.15058899 C66 74 66 74 66.40509033 77.47380066 C66.38117368 78.93899873 66.33457429 80.40392782 66.27050781 81.86791992 C66.25158478 82.66815079 66.23266174 83.46838165 66.21316528 84.29286194 C66.14576995 86.93965744 66.04956403 89.58458536 65.953125 92.23046875 C65.90079408 94.06459157 65.85025976 95.89876647 65.80145264 97.73298645 C65.66811456 102.56202045 65.51034131 107.38996029 65.34753418 112.21807861 C65.18572634 117.14430728 65.04694658 122.07117806 64.90625 126.99804688 C64.62675035 136.66613436 64.32144218 146.33322252 64 156 C60.44904223 154.34004647 58.4145061 152.52471095 55.8125 149.5625 C55.02359375 148.6653125 54.2346875 147.768125 53.421875 146.84375 C50.32449207 143.20682295 47.32021628 139.49943265 44.31640625 135.78515625 C41.15907906 131.98890956 37.81199409 128.38216642 34.46875 124.75 C31.27118704 121.18815771 28.28611657 117.47434167 25.28125 113.75 C22.93281032 110.91900422 20.49090098 108.20616402 18 105.5 C13.89046793 101.03311732 10.00498357 96.43368185 6.203125 91.703125 C4.25488552 89.1122042 4.25488552 89.1122042 2.49542236 87.81478882 C-0.74079262 84.97055471 -1.88994092 82.72563807 -2.54144287 78.43017578 C-2.80792914 73.83696803 -2.72833745 69.24642219 -2.65625 64.6484375 C-2.65012754 62.94406807 -2.64638084 61.23968861 -2.64489746 59.53530884 C-2.63571708 55.9726905 -2.60696651 52.41098288 -2.5625 48.84863281 C-2.50585044 44.28783384 -2.48406541 39.72774914 -2.4751358 35.1666317 C-2.46681431 31.65095927 -2.44716999 28.13543021 -2.42338562 24.61983109 C-2.4120132 22.93815878 -2.402485 21.25647294 -2.39485168 19.57477951 C-2.38106666 17.22457574 -2.35377805 14.87492717 -2.32226562 12.52490234 C-2.32002991 11.83386917 -2.31779419 11.142836 -2.31549072 10.43086243 C-2.2463787 6.5296594 -1.69927823 3.5199108 0 0 Z " fill="#FE8846" transform="translate(2,105)"/>
<path d="M0 0 C3.89692078 -0.04625926 7.79085168 -0.113984 11.68629551 -0.23270035 C15.48363492 -0.34791393 19.27829164 -0.4079575 23.07727337 -0.43052292 C24.51236864 -0.44817196 25.94737448 -0.48472174 27.38145351 -0.54153061 C33.57837482 -0.77564199 38.54704889 -0.91370938 43.58598423 2.98299789 C46.14069768 5.76116054 48.36975195 8.58979058 50.57179356 11.65206528 C52.06311925 13.49246164 53.56196141 15.32682064 55.07179356 17.15206528 C55.80398106 18.05956528 56.53616856 18.96706528 57.29054356 19.90206528 C59.63898324 22.73306106 62.08089258 25.44590125 64.57179356 28.15206528 C68.6640743 32.59799991 72.4942247 37.19610248 76.28663731 41.89815903 C78.65545381 44.75288661 81.12105773 47.48645738 83.63429356 50.21456528 C96.57179356 64.28586809 96.57179356 64.28586809 96.57179356 66.65206528 C87.26396666 67.21734848 77.95590999 67.708445 68.63948536 68.10792637 C64.31215681 68.29575229 59.98905205 68.50793678 55.66603184 68.77828598 C51.48517433 69.03880645 47.30586822 69.23207257 43.11960697 69.38110542 C41.5318291 69.4490382 39.94485321 69.54023667 38.35985661 69.65616417 C26.33750175 70.51304961 26.33750175 70.51304961 21.74511814 67.42293549 C18.30998488 64.41251199 15.49125159 60.98397353 12.79380131 57.31105232 C10.94494583 54.80106228 8.93735665 52.42513519 6.94679356 50.02706528 C6.23265293 49.13761215 5.51851231 48.24815903 4.78273106 47.33175278 C2.46244405 44.51953213 0.04108221 41.83409265 -2.42820644 39.15206528 C-5.72152343 35.57414065 -8.87471966 31.93666862 -11.92820644 28.15206528 C-15.80532232 23.35019561 -19.88372979 18.77966606 -24.06101894 14.23800278 C-26.77624924 11.27186011 -29.42285472 8.25200321 -32.05320644 5.21065903 C-33.13474804 3.98470704 -34.27220244 2.80806928 -35.42820644 1.65206528 C-23.68633574 0.09886079 -11.82709298 0.13862903 0 0 Z " fill="#EE4A5E" transform="translate(156.42820644378662,-0.6520652770996094)"/>
<path d="M0 0 C7.72283572 7.69238037 14.87585439 15.7686646 21.71875 24.25 C24.06718968 27.08099578 26.50909902 29.79383598 29 32.5 C33.09351091 36.94727112 36.92442499 41.54717463 40.71875 46.25 C43.85257553 50.02776228 47.18056695 53.61164267 50.5078125 57.21875 C53.82487844 60.92055399 56.91693548 64.78385906 59.9921875 68.6875 C62.1380071 71.32299866 62.1380071 71.32299866 66 74 C66 57.83 66 41.66 66 25 C66.33 25 66.66 25 67 25 C67.33 63.61 67.66 102.22 68 142 C63.51444244 140.87861061 62.74544771 140.01204708 59.8125 136.625 C59.02359375 135.71878906 58.2346875 134.81257812 57.421875 133.87890625 C54.34135437 130.21706157 51.32540184 126.50584471 48.31640625 122.78515625 C45.15907906 118.98890956 41.81199409 115.38216642 38.46875 111.75 C35.27118704 108.18815771 32.28611657 104.47434167 29.28125 100.75 C26.93281032 97.91900422 24.49090098 95.20616402 22 92.5 C17.95088933 88.09988283 14.12806203 83.57152436 10.3984375 78.8984375 C8.19684512 76.07868951 8.19684512 76.07868951 6.04324341 74.2943573 C1.22661096 69.7916474 -0.55281736 66.45899887 -0.90820312 59.82788086 C-0.93551791 57.03668893 -0.86407985 54.25462036 -0.78125 51.46484375 C-0.76630176 49.97558146 -0.75492695 48.48627944 -0.74694824 46.9969635 C-0.71661442 43.10463023 -0.63822555 39.21474127 -0.54931641 35.32336426 C-0.4670116 31.34156351 -0.43084254 27.35936198 -0.390625 23.37695312 C-0.3052026 15.58352917 -0.16893669 7.79210893 0 0 Z " fill="#FF9E4B" transform="translate(0,187)"/>
<path d="M0 0 C3.74888398 1.24962799 4.64619319 2.77896986 7.0625 5.875 C10.25774361 9.88329587 13.51929973 13.73150392 17 17.5 C20.27418423 21.05670244 23.40642433 24.67161811 26.4375 28.4375 C29.65943964 32.43225056 33.00663965 36.24545383 36.5 40 C40.86727734 44.6956212 45.00050793 49.52469707 48.984375 54.5546875 C50.89774689 56.97120721 50.89774689 56.97120721 52.890625 58.8203125 C56.372911 62.18869195 57.40491654 64.55241267 57.5625 69.4375 C56.56903677 87.16529941 52.06393479 105.49600092 40 119 C39.01 119.495 39.01 119.495 38 120 C37.50113281 119.37996094 37.00226563 118.75992188 36.48828125 118.12109375 C30.37917073 110.58615851 24.0635029 103.25021745 17.68945312 95.93945312 C14.9533226 92.79843855 12.22699678 89.64894369 9.5 86.5 C6.22916682 82.72429297 2.95705822 78.94972228 -0.3203125 75.1796875 C-7.27719466 67.1726713 -14.17052979 59.11598364 -21 51 C-19.6897432 47.35183402 -18.09040505 44.5783706 -15.75 41.5 C-7.26423902 29.56359762 -1.7488813 14.55520568 0 0 Z " fill="#F8504C" transform="translate(352,268)"/>
<path d="M0 0 C6.47551599 0.05841563 12.70453358 0.7989285 19.0859375 1.85546875 C20.72284546 2.12447998 20.72284546 2.12447998 22.39282227 2.39892578 C39.99482036 5.4541101 56.33528399 12.02281165 67.3359375 26.73046875 C79.3929259 44.88461301 82.90221875 67.25959485 84.8984375 88.54296875 C85.02436279 89.87908203 85.02436279 89.87908203 85.15283203 91.2421875 C85.69464111 97.56134301 85.8000339 103.82765603 85.7109375 110.16796875 C85.3809375 110.16796875 85.0509375 110.16796875 84.7109375 110.16796875 C84.7521875 109.07484375 84.7934375 107.98171875 84.8359375 106.85546875 C84.13239933 101.14675901 80.32123894 97.99888998 76.4609375 94.0234375 C73.87542142 91.338761 71.53602001 88.57847382 69.2109375 85.66796875 C65.24898518 80.75260545 61.07133317 76.10373122 56.77734375 71.48046875 C54.7109375 69.16796875 54.7109375 69.16796875 52.7109375 66.16796875 C51.7209375 65.83796875 50.7309375 65.50796875 49.7109375 65.16796875 C49.31841797 66.06128906 49.31841797 66.06128906 48.91796875 66.97265625 C46.57470485 71.23451486 42.52568414 74.0889302 38.3984375 76.54296875 C31.35303652 78.18143409 25.08726849 77.72399949 18.7109375 74.16796875 C12.95074636 70.3662426 9.93528672 65.7079357 7.7109375 59.16796875 C6.49614425 51.46663794 8.20681397 45.8809795 12.5234375 39.48046875 C15.02301333 36.83806001 17.57856178 35.00653711 20.7109375 33.16796875 C21.3709375 33.16796875 22.0309375 33.16796875 22.7109375 33.16796875 C20.56593158 29.30695809 18.10769079 26.2565794 15.0859375 23.04296875 C10.72985964 18.33610863 6.63174725 13.48832648 2.62109375 8.48046875 C-0.13457963 5.14435701 -2.31975927 2.94731158 -6.2890625 1.16796875 C-4.57065596 -0.55043779 -2.34320251 0.00857688 0 0 Z " fill="#E24779" transform="translate(326.2890625,100.83203125)"/>
<path d="M0 0 C11.89628916 9.00407207 20.57328314 21.72028844 23.8359375 36.3828125 C24.48851638 41.67413961 24.62844087 46.91807105 24.6796875 52.24609375 C24.69370605 53.25124023 24.70772461 54.25638672 24.72216797 55.29199219 C24.65832616 65.31351924 22.34367821 74.05949416 17.6171875 82.87109375 C17.29685547 83.48919922 16.97652344 84.10730469 16.64648438 84.74414062 C15.87532943 86.22890163 15.0914596 87.70704885 14.3046875 89.18359375 C13.73105469 88.45398438 13.15742188 87.724375 12.56640625 86.97265625 C10.49217141 84.41479153 8.34365744 81.98378323 6.1171875 79.55859375 C2.92216599 76.03467297 -0.14595141 72.44789499 -3.1328125 68.74609375 C-6.99356387 63.97219075 -11.06968325 59.44970947 -15.2265625 54.93359375 C-18.42412546 51.37175146 -21.40919593 47.65793542 -24.4140625 43.93359375 C-27.55725508 40.14453968 -30.89689845 36.55090023 -34.23046875 32.9296875 C-36.62238547 30.26484209 -38.88786134 27.5352755 -41.1328125 24.74609375 C-44.80515485 20.19135112 -48.67404642 15.89085864 -52.66186523 11.6159668 C-56.35542392 7.62859488 -59.74151696 3.46208028 -63.0390625 -0.85546875 C-64.72711486 -3.03819067 -64.72711486 -3.03819067 -67.6953125 -4.81640625 C-65.46767262 -5.63330802 -63.2383639 -6.44502497 -61.0078125 -7.25390625 C-60.38197266 -7.48400391 -59.75613281 -7.71410156 -59.11132812 -7.95117188 C-39.56356915 -15.01292774 -17.03816558 -11.48224202 0 0 Z " fill="#F8514B" transform="translate(293.6953125,203.81640625)"/>
<path d="M0 0 C1.38112131 -0.0369914 2.76187141 -0.09188802 4.14160156 -0.1640625 C15.62325601 -0.75154635 15.62325601 -0.75154635 19.60449219 2.3671875 C21.39320085 4.68016436 22.84720812 7.04090619 24.31005859 9.56982422 C25.30190083 10.80677325 26.32437331 12.01998604 27.38037109 13.20263672 C27.87730469 13.77304688 28.37423828 14.34345703 28.88623047 14.93115234 C29.39734375 15.51316406 29.90845703 16.09517578 30.43505859 16.69482422 C31.57314236 17.99945683 32.71116134 19.30414594 33.84912109 20.60888672 C34.42307617 21.2653418 34.99703125 21.92179687 35.58837891 22.59814453 C38.33824467 25.74731015 41.07381724 28.90882188 43.81005859 32.06982422 C47.19363538 35.97836745 50.58156032 39.88290852 53.98193359 43.77685547 C54.58070313 44.46392578 55.17947266 45.15099609 55.79638672 45.85888672 C56.94963074 47.18198839 58.10451277 48.50366458 59.26123047 49.82373047 C63.1975964 54.34489982 63.1975964 54.34489982 64.31005859 56.56982422 C63.63128662 56.66481201 62.95251465 56.7597998 62.25317383 56.85766602 C43.94020111 59.46937647 27.94913916 63.4046093 11.31005859 71.56982422 C4.44724389 64.30393849 -2.26256679 57.02027552 -8.51416016 49.21435547 C-10.82025841 46.41143174 -13.23145671 43.73979147 -15.68994141 41.06982422 C-18.9832584 37.49189959 -22.13645462 33.85442756 -25.18994141 30.06982422 C-29.10544055 25.21710453 -33.23502721 20.6076187 -37.45947266 16.02294922 C-39.24667306 14.05734177 -40.95844677 12.07226653 -42.62744141 10.00732422 C-44.63531357 7.40628003 -44.63531357 7.40628003 -47.68994141 5.56982422 C-44.08712758 4.91629477 -40.48247852 4.2734662 -36.87744141 3.63232422 C-35.87261719 3.44992188 -34.86779297 3.26751953 -33.83251953 3.07958984 C-22.60168515 1.09342942 -11.40023801 0.23676789 0 0 Z " fill="#F8504C" transform="translate(193.68994140625,101.43017578125)"/>
<path d="M0 0 C2.35807386 0.08587314 4.68446776 0.23144083 7.03515625 0.41772461 C15.50391001 1.01735515 23.94949624 1.21592913 32.4375 1.31640625 C33.93921368 1.33705849 35.44092264 1.35805654 36.94262695 1.37937927 C40.83532813 1.43374874 44.72807399 1.48352158 48.62084961 1.53222656 C52.61706367 1.58307628 56.61321536 1.63842593 60.609375 1.69335938 C68.40619673 1.79989442 76.20307144 1.90155733 84 2 C84 2.33 84 2.66 84 3 C75.42 3 66.84 3 58 3 C60.83854024 7.25781036 63.26110823 10.54040666 66.6875 14.1875 C70.08920844 17.86811864 73.35624239 21.5968267 76.5 25.5 C79.55348679 29.28460334 82.70668301 32.92207537 86 36.5 C90.08612807 40.93925025 93.9124938 45.5283286 97.6953125 50.2265625 C100.92968443 54.11877279 104.36997692 57.80616593 107.8359375 61.4921875 C109.90239701 63.88689329 111.41314516 66.27537876 113 69 C105.59403439 69.25600413 98.18903648 69.4508714 90.77952671 69.56993389 C87.33782702 69.6271132 83.89917408 69.70449683 80.45922852 69.82983398 C76.49533931 69.97334068 72.53263905 70.02578757 68.56640625 70.07421875 C67.34417862 70.13099289 66.12195099 70.18776703 64.86268616 70.2462616 C59.58398268 70.25004072 56.32642538 70.16542164 52.26205444 66.59439087 C49.98581097 63.82045283 47.97903558 60.99008655 46 58 C45.03923201 56.87067097 44.05422933 55.76079982 43.03125 54.6875 C37.8610671 49.19817 32.97712107 43.59278679 28.24609375 37.71484375 C25.9116941 34.89326505 23.48009402 32.19409288 21 29.5 C16.89879023 25.0438169 13.0521255 20.43848231 9.25 15.7265625 C5.64311347 11.35571736 1.83060956 7.17473051 -2 3 C-1 1 -1 1 0 0 Z " fill="#FF9E4A" transform="translate(168,443)"/>
<path d="M0 0 C2.23128423 2.1373035 4.07969385 4.17090992 6 6.5625 C7.15586582 7.94953899 8.31212675 9.3362488 9.46875 10.72265625 C10.34853516 11.79217529 10.34853516 11.79217529 11.24609375 12.88330078 C13.94221695 16.13711316 16.7218075 19.3163028 19.5 22.5 C20.58379875 23.74959649 21.66713072 24.99959797 22.75 26.25 C23.28625 26.86875 23.8225 27.4875 24.375 28.125 C30.33333333 35 36.29166667 41.875 42.25 48.75 C42.78633057 49.36883057 43.32266113 49.98766113 43.87524414 50.62524414 C44.95781325 51.87438737 46.04033284 53.12357352 47.12280273 54.37280273 C49.84242277 57.51126635 52.56291804 60.64896319 55.28515625 63.78515625 C61.31638566 70.73558373 67.32968422 77.70052026 73.30688477 84.69750977 C75.58527189 87.41082047 75.58527189 87.41082047 78 90 C78.43171946 93.24069935 78.22118593 94.6603021 76.41796875 97.4296875 C71.05671331 103.30735108 65.39032098 108.77619069 58 112 C56.015625 112.05859375 56.015625 112.05859375 54 111 C52.05848395 109.00216516 50.31277599 107.02929683 48.5625 104.875 C47.49019795 103.58933088 46.41725992 102.30419199 45.34375 101.01953125 C44.79203125 100.3538916 44.2403125 99.68825195 43.671875 99.00244141 C41.01272793 95.81752256 38.28739141 92.69115541 35.5625 89.5625 C34.46985769 88.3035541 33.3774108 87.04443858 32.28515625 85.78515625 C31.47135498 84.84760498 31.47135498 84.84760498 30.64111328 83.89111328 C27.38446866 80.13836571 24.13127905 76.38262268 20.87744141 72.62744141 C18.15771503 69.48891807 15.43715721 66.35112349 12.71484375 63.21484375 C11.62232902 61.95578714 10.52988087 60.69667275 9.4375 59.4375 C8.90157227 58.81979736 8.36564453 58.20209473 7.81347656 57.56567383 C4.10681807 53.28888955 0.42507293 48.99142788 -3.25 44.6875 C-6.74238372 40.59949391 -10.27051872 36.55274516 -13.875 32.5625 C-14.58140625 31.77617187 -15.2878125 30.98984375 -16.015625 30.1796875 C-17.29811291 28.77097047 -18.59920565 27.37887219 -19.921875 26.0078125 C-21.625 24.1875 -21.625 24.1875 -24 21 C-23.64973955 14.7853789 -19.27098859 11.0965201 -15 7 C-5.12706356 -1.18257005 -5.12706356 -1.18257005 0 0 Z " fill="#FD553F" transform="translate(229,200)"/>
<path d="M0 0 C3.55587944 1.33616928 5.61570079 4.53389698 7.97631836 7.39111328 C9.1401248 8.7676319 10.30419464 10.14392785 11.46850586 11.52001953 C12.06115234 12.22658691 12.65379883 12.9331543 13.2644043 13.66113281 C16.00732849 16.91505306 18.80573299 20.11996212 21.60131836 23.32861328 C26.35936311 28.81006992 31.08117673 34.32162531 35.79418945 39.84179688 C38.72144759 43.26001611 41.69691517 46.62494496 44.72631836 49.95361328 C47.89802184 53.4616217 50.99932457 57.01765376 54.03881836 60.64111328 C54.78131836 61.52541016 55.52381836 62.40970703 56.28881836 63.32080078 C57.91326431 65.59067392 58.63333025 67.04174004 59.03881836 69.76611328 C41.74227801 84.7980953 41.74227801 84.7980953 33.94897461 84.75439453 C31.12927648 83.29553231 29.44357344 81.26974788 27.35131836 78.89111328 C26.91561523 78.39933594 26.47991211 77.90755859 26.03100586 77.40087891 C22.34155966 73.20346547 18.82879595 68.86495875 15.32006836 64.51611328 C12.97162867 61.6851175 10.52971934 58.97227731 8.03881836 56.26611328 C3.94530744 51.81884216 0.11439337 47.21893865 -3.67993164 42.51611328 C-6.02837133 39.6851175 -8.47028066 36.97227731 -10.96118164 34.26611328 C-14.42275259 30.48392587 -17.83134111 26.67491763 -21.14868164 22.76611328 C-21.90536133 21.87923828 -22.66204102 20.99236328 -23.44165039 20.07861328 C-23.9430957 19.31548828 -24.44454102 18.55236328 -24.96118164 17.76611328 C-23.64376186 13.81385394 -22.14429927 13.52037127 -18.52368164 11.57861328 C-13.17521022 8.60157377 -8.67557924 5.24430847 -4.11743164 1.17236328 C-1.96118164 -0.23388672 -1.96118164 -0.23388672 0 0 Z " fill="#FD553F" transform="translate(413.961181640625,415.23388671875)"/>
<path d="M0 0 C2.359375 2.1171875 2.359375 2.1171875 4.75 4.875 C5.18119141 5.36677734 5.61238281 5.85855469 6.05664062 6.36523438 C9.71677559 10.57197808 13.21773833 14.91071793 16.71875 19.25 C19.06718968 22.08099578 21.50909902 24.79383598 24 27.5 C28.09351091 31.94727112 31.92442499 36.54717463 35.71875 41.25 C38.06718968 44.08099578 40.50909902 46.79383598 43 49.5 C57 64.7507837 57 64.7507837 57 68 C56.18917969 68.40089844 55.37835938 68.80179687 54.54296875 69.21484375 C46.47615319 73.35624732 39.82621811 77.96721005 33 84 C29.2097098 82.49066744 27.41322011 80.31798482 24.9375 77.125 C21.59920327 72.92609147 18.1606763 68.91950555 14.5 65 C10.2095276 60.39086198 6.19582512 55.62208576 2.24609375 50.71484375 C-0.0883059 47.89326505 -2.51990598 45.19409288 -5 42.5 C-9.12150398 38.02121394 -12.99429637 33.39521217 -16.81640625 28.66015625 C-20.09340113 24.6679675 -23.53235604 20.82669157 -27 17 C-24.07889638 10.42751686 -20.03150445 7.05039414 -13.875 3.75 C-12.92560547 3.2240625 -12.92560547 3.2240625 -11.95703125 2.6875 C-4.46392974 -1.4488193 -4.46392974 -1.4488193 0 0 Z " fill="#FD553F" transform="translate(67,13)"/>
<path d="M0 0 C1.99260502 1.72994345 3.5650555 3.31965917 5.25 5.3125 C5.72888672 5.85648437 6.20777344 6.40046875 6.70117188 6.9609375 C10.47836483 11.28489543 14.08873328 15.74599707 17.6875 20.21875 C20.19971133 23.24019336 22.82402457 26.12440078 25.5 29 C29.78511467 33.60522007 33.79557405 38.36809197 37.7421875 43.26953125 C40.93067788 47.12550837 44.31041696 50.79355531 47.69140625 54.48046875 C56 63.54822335 56 63.54822335 56 66 C54.19921875 67.375 54.19921875 67.375 51.6875 69 C41.52333438 75.76842565 41.52333438 75.76842565 34 85 C30.18511059 83.48601922 28.36923371 81.27002932 25.875 78.0625 C22.70458529 74.07609331 19.45622104 70.2415477 16 66.5 C12.72581577 62.94329756 9.59357567 59.32838189 6.5625 55.5625 C3.34056683 51.56775746 -0.00657611 47.75447891 -3.5 44 C-7.79972571 39.37852104 -11.83952653 34.6100764 -15.78125 29.67578125 C-18.82232643 26.00828591 -22.11403298 22.59559256 -25.4453125 19.19140625 C-27 17 -27 17 -26.9453125 14.92578125 C-23.05892599 7.0084732 -8.75750019 -1.77117981 0 0 Z " fill="#FD553F" transform="translate(149,108)"/>
<path d="M0 0 C8.43195056 8.33962994 16.36348294 17.07184698 23.7890625 26.3203125 C26.1093495 29.13253315 28.53071134 31.81797263 31 34.5 C34.29331699 38.07792463 37.44651321 41.71539666 40.5 45.5 C43.6360113 49.3866523 46.87910051 53.12744863 50.25 56.8125 C51.07628906 57.71742188 51.90257812 58.62234375 52.75390625 59.5546875 C54.0864115 61.00538017 55.42518748 62.45041838 56.77734375 63.8828125 C58.1875 65.4375 58.1875 65.4375 60 68 C59.83077973 70.85923904 59.10182065 71.89461773 57.1015625 73.96484375 C50.63997453 79.11169221 43.78940217 84.02466022 35.47265625 85.42578125 C31.83687931 84.79971539 30.62170556 82.95836516 28.25 80.1875 C27.81880859 79.69121094 27.38761719 79.19492187 26.94335938 78.68359375 C23.29436235 74.45225313 19.78939325 70.09812121 16.28125 65.75 C13.13805742 61.96094593 9.79841405 58.36730648 6.46484375 54.74609375 C4.07292703 52.08124834 1.80745116 49.35168175 -0.4375 46.5625 C-4.16020716 41.94871931 -8.07262855 37.57042889 -12.10058594 33.22583008 C-15.49881052 29.56018633 -18.78332397 25.82523636 -22 22 C-20.47447885 17.76352087 -17.33267042 15.76969055 -13.8125 13.25 C-8.50925718 9.33279041 -4.03897283 5.25800827 0 0 Z " fill="#FD553F" transform="translate(330,318)"/>
<path d="M0 0 C0.56332031 0.71929687 1.12664063 1.43859375 1.70703125 2.1796875 C3.94296152 4.92984364 6.27850882 7.52592739 8.6875 10.125 C12.06100578 13.80922342 15.30608236 17.54575614 18.4375 21.4375 C21.65943101 25.43223986 25.00655495 29.24554349 28.5 33 C32.78955113 37.61004336 36.80410672 42.37782956 40.75390625 47.28515625 C43.86996746 51.05152588 47.18685745 54.61824854 50.5 58.2109375 C53.88238283 61.98440835 57.03809236 65.9123093 60.1875 69.8828125 C61.82689486 72.07537133 61.82689486 72.07537133 64 73 C63.89042969 73.5878125 63.78085938 74.175625 63.66796875 74.78125 C62.70810249 80.21268833 61.90946117 85.62716676 61.26953125 91.10546875 C61.07870972 92.72582031 61.07870972 92.72582031 60.8840332 94.37890625 C60.62856931 96.57982597 60.38097298 98.78167352 60.14135742 100.984375 C60.02252197 102.00402344 59.90368652 103.02367187 59.78125 104.07421875 C59.6275293 105.46000122 59.6275293 105.46000122 59.47070312 106.8737793 C59.23770508 107.92625854 59.23770508 107.92625854 59 109 C58.01 109.495 58.01 109.495 57 110 C56.45472656 109.32195312 55.90945312 108.64390625 55.34765625 107.9453125 C51.49693469 103.19279803 47.62101363 98.52075922 43.5 94 C40.40444804 90.60401318 37.44848793 87.13828469 34.5625 83.5625 C30.70174863 78.788597 26.62562925 74.26611572 22.46875 69.75 C20.05621896 67.06262366 17.7674379 64.31034556 15.5 61.5 C11.62521275 56.70101438 7.54920622 52.13319926 3.375 47.59375 C0.18938675 44.114725 -2.91346518 40.56688957 -6 37 C-6.99 37.495 -6.99 37.495 -8 38 C-7.83933394 29.30942667 -6.57237518 21.2458521 -4.5625 12.8125 C-4.34505127 11.89186768 -4.12760254 10.97123535 -3.90356445 10.02270508 C-2.94467907 6.14356148 -2.24287246 3.36430869 0 0 Z " fill="#FE7644" transform="translate(9,70)"/>
<path d="M0 0 C5.14102104 -0.17382512 10.28031104 -0.30042611 15.42358398 -0.38452148 C17.17063206 -0.41959498 18.91747655 -0.46726971 20.66381836 -0.52807617 C35.11915591 -1.01857665 35.11915591 -1.01857665 39.59399414 1.40478516 C41.38231212 3.16791556 42.67836073 4.87175776 44 7 C44.75925781 7.89203125 45.51851563 8.7840625 46.30078125 9.703125 C46.96464844 10.54359375 47.62851562 11.3840625 48.3125 12.25 C51.4271238 16.12080581 54.63333359 19.84625351 58 23.5 C62.09351091 27.94727112 65.92442499 32.54717463 69.71875 37.25 C72.86194258 41.03905407 76.20158595 44.63269352 79.53515625 48.25390625 C82.70329364 51.78354267 85.65579357 55.46628898 88.62890625 59.16015625 C92.12907692 63.35228817 95.8647183 67.30715239 99.6171875 71.2734375 C101.77843136 73.74646736 103.42380552 76.12944714 105 79 C100.24963131 77.601666 95.52678422 76.20055555 90.875 74.5 C86.71730592 73.10183739 82.48927401 72.20042522 78.1875 71.375 C77.1497644 71.17293945 77.1497644 71.17293945 76.09106445 70.96679688 C71.84612701 70.19073893 67.89001636 69.96679655 63.5625 70 C59.85666767 69.74994384 58.42067709 69.37317018 55.61328125 66.8828125 C53.27667373 64.00385105 51.1519143 61.01876317 49 58 C47.36071454 56.14214315 45.69371901 54.30837076 44 52.5 C39.90648909 48.05272888 36.07557501 43.45282537 32.28125 38.75 C29.93281032 35.91900422 27.49090098 33.20616402 25 30.5 C20.91633388 26.06342447 17.09146606 21.47796496 13.3125 16.78125 C10.01485807 12.81516714 6.50442123 9.06642254 2.96875 5.3125 C1 3 1 3 0 0 Z " fill="#DC4184" transform="translate(281,0)"/>
<path d="M0 0 C5.20986529 -0.29939549 10.41461459 -0.51556707 15.63110352 -0.65917969 C17.39989498 -0.71908959 19.16810312 -0.80066228 20.93481445 -0.90527344 C36.38348217 -1.79629074 36.38348217 -1.79629074 41.5246582 2.52905273 C44.38921035 5.42127082 46.69558414 8.6475777 49 12 C50.50753963 13.86499124 52.0263424 15.72100933 53.5625 17.5625 C54.28566406 18.46097656 55.00882813 19.35945313 55.75390625 20.28515625 C58.0883059 23.10673495 60.51990598 25.80590712 63 28.5 C66.27418423 32.05670244 69.40642433 35.67161811 72.4375 39.4375 C75.72353198 43.51008218 79.13656233 47.41035357 82.6875 51.25 C83.15381836 51.75442627 83.62013672 52.25885254 84.10058594 52.77856445 C84.55208008 53.26671631 85.00357422 53.75486816 85.46875 54.2578125 C94 63.5 94 63.5 94 66 C89.42214827 66.89288812 85.09493567 67.12137195 80.43408203 67.11352539 C79.3354911 67.11374443 79.3354911 67.11374443 78.21470642 67.1139679 C75.81237751 67.1132755 73.41012774 67.10551482 71.0078125 67.09765625 C69.33486982 67.09578968 67.66192658 67.0943669 65.98898315 67.09336853 C61.59959385 67.08956219 57.21023797 67.07974808 52.82086182 67.06866455 C48.33630831 67.05840985 43.85174937 67.05386223 39.3671875 67.04882812 C30.57810971 67.03812403 21.78905902 67.02107035 13 67 C13 66.67 13 66.34 13 66 C26.86 65.67 40.72 65.34 55 65 C47.92258147 56.2969753 47.92258147 56.2969753 40.5 48 C36.20652848 43.39378392 32.19561053 38.62181915 28.24609375 33.71484375 C25.9116941 30.89326505 23.48009402 28.19409288 21 25.5 C16.8574463 20.99778272 12.95668987 16.35164652 9.1171875 11.58984375 C6.56641466 8.46961794 3.9105258 5.45613977 1.21484375 2.4609375 C0 1 0 1 0 0 Z " fill="#E7486D" transform="translate(197,0)"/>
<path d="M0 0 C6.58423312 6.3718385 12.62621952 13.245688 18.375 20.375 C22.05571847 24.92780507 25.92648648 29.23417411 29.91137695 33.5168457 C33.71385014 37.62760957 37.24263299 41.92266523 40.75390625 46.28515625 C43.87170229 50.05362276 47.191284 53.6218934 50.50390625 57.21875 C53.83741066 60.93307729 56.97062274 64.7927195 60.08984375 68.6875 C61.84112217 70.9753698 61.84112217 70.9753698 63.73828125 72.36328125 C65.78984959 75.02460365 65.34884803 77.97381571 65.25 81.1875 C65.23356445 82.27212524 65.23356445 82.27212524 65.21679688 83.37866211 C65.01504602 93.92343393 64.50016593 104.4659203 64 115 C60.23745289 113.27063965 58.43276569 111.35173005 55.875 108.0625 C52.70458529 104.07609331 49.45622104 100.2415477 46 96.5 C41.90648909 92.05272888 38.07557501 87.45282537 34.28125 82.75 C31.93281032 79.91900422 29.49090098 77.20616402 27 74.5 C22.89046793 70.03311732 19.00498357 65.43368185 15.203125 60.703125 C13.19872766 58.1174733 13.19872766 58.1174733 11.42236328 56.53271484 C7.83348622 53.00972774 6.60616168 50.50863807 6.3359375 45.4453125 C6.32544355 43.33852756 6.33952022 41.2315123 6.375 39.125 C6.26867175 28.47665215 4.8781149 19.20422555 2 9 C1.56884909 7.14914776 1.14917099 5.29551175 0.75 3.4375 C0.5025 2.303125 0.255 1.16875 0 0 Z " fill="#F04C5A" transform="translate(346,217)"/>
<path d="M0 0 C3.41872828 0.51189514 4.41677942 2.49612395 6.44140625 5.203125 C9.40979188 9.04629978 12.4038389 12.75318288 15.69140625 16.328125 C18.76794297 19.70273448 21.70258842 23.14628364 24.56640625 26.703125 C27.81091385 30.71636611 31.17867305 34.55248454 34.69140625 38.328125 C38.98942428 42.94782421 43.02186272 47.72049219 46.9765625 52.640625 C50.03738106 56.35463411 53.27600546 59.89331457 56.5390625 63.4296875 C58.19140625 65.328125 58.19140625 65.328125 58.19140625 66.328125 C42.86293853 68.59900911 27.66168854 68.54303595 12.19140625 68.328125 C12.19140625 67.998125 12.19140625 67.668125 12.19140625 67.328125 C16.64640625 66.833125 16.64640625 66.833125 21.19140625 66.328125 C12.95462083 56.64078141 12.95462083 56.64078141 4.50390625 47.140625 C1.47427757 43.80585386 -1.41467467 40.39524861 -4.24609375 36.890625 C-8.09930524 32.12604522 -12.16607427 27.61135876 -16.31640625 23.10546875 C-19.61800806 19.42609746 -22.71736171 15.60108912 -25.80078125 11.73828125 C-27.76908111 9.28934263 -27.76908111 9.28934263 -30.06640625 7.13671875 C-31.80859375 5.328125 -31.80859375 5.328125 -31.80859375 3.328125 C-22.88937149 1.13487362 -13.97507412 0.68145594 -4.82470703 0.40869141 C-3.21199891 0.34424557 -1.60309205 0.18728753 0 0 Z " fill="#FE7644" transform="translate(330.80859375,443.671875)"/>
<path d="M0 0 C7.37125254 -0.27972628 14.74133825 -0.49207686 22.11684895 -0.62174606 C25.54312103 -0.68403202 28.9657298 -0.76826167 32.38989258 -0.90527344 C56.34956222 -1.83914563 56.34956222 -1.83914563 62.15185547 2.53125 C65.02791624 5.33238787 67.00186538 8.52295881 69 12 C70.4720399 13.85585819 71.96838007 15.69299931 73.5 17.5 C74.221875 18.3971875 74.94375 19.294375 75.6875 20.21875 C78.19971133 23.24019336 80.82402457 26.12440078 83.5 29 C87.7895776 33.61001639 91.80410897 38.37783236 95.75390625 43.28515625 C98.0883059 46.10673495 100.51990598 48.80590712 103 51.5 C108.68287241 57.68012374 114.33587705 64.00381557 119 71 C115.30375108 70.39935955 112.35262435 69.33825863 109 67.6875 C102.83230536 64.8114591 96.55019793 62.81390096 90 61 C89.24203125 60.7834375 88.4840625 60.566875 87.703125 60.34375 C80.61139978 58.53082776 73.28065691 58.36451247 66 58 C66.99 57.34 67.98 56.68 69 56 C67.96552734 54.89205078 67.96552734 54.89205078 66.91015625 53.76171875 C62.29137964 48.78561558 57.75772135 43.79317445 53.5 38.5 C50.30067413 34.52369499 46.9740667 30.73340604 43.5 27 C39.13988569 22.31213741 35.02731188 17.4773378 31.015625 12.484375 C29.20500154 10.25267632 27.34087432 8.08991395 25.4375 5.9375 C23 3 23 3 23 1 C15.41 1 7.82 1 0 1 C0 0.67 0 0.34 0 0 Z " fill="#F14D5B" transform="translate(188,101)"/>
<path d="M0 0 C5.57916325 3.37623184 9.50075597 8.24979449 11.5 14.4375 C12.36193607 21.52352177 12.43972877 27.85218354 8.05859375 33.72265625 C3.56428613 38.66752103 -0.88750279 43.00384642 -7.78515625 43.65234375 C-15.31318651 43.93620613 -21.33121786 42.23016999 -27.078125 37.0703125 C-31.97320417 31.44904026 -34.27797789 25.17638592 -33.859375 17.7578125 C-32.74303405 10.55013292 -28.88065674 5.00617155 -23.125 0.625 C-16.4409731 -3.33034176 -7.02619533 -3.10774024 0 0 Z " fill="#FEFDFC" transform="translate(367.5,134.5625)"/>
<path d="M0 0 C5.1777593 -0.09908128 10.35496347 -0.17156806 15.53344727 -0.21972656 C17.29396175 -0.23980786 19.05440982 -0.26707879 20.81469727 -0.30175781 C23.34928802 -0.35043112 25.88299495 -0.37300305 28.41796875 -0.390625 C29.20149216 -0.41127014 29.98501556 -0.43191528 30.7922821 -0.45318604 C34.53993503 -0.4547153 36.71263796 -0.18638584 39.88891602 1.8737793 C46.70823273 8.74199131 52.95682761 16.02894087 58.9921875 23.58984375 C60.95065497 26.03870975 60.95065497 26.03870975 63.2578125 28.12890625 C65 30 65 30 65 33 C63.390625 34.2109375 63.390625 34.2109375 61.25 35.375 C56.62262247 38.11381885 53.93429739 40.7871904 51.8125 45.8125 C50.85875129 49.55412954 50.3972324 53.16008684 50 57 C46.38654725 54.28202769 43.6008384 51.4896234 40.8125 47.9375 C37.65893014 43.99946002 34.42093872 40.20823373 31 36.5 C27.72581577 32.94329756 24.59357567 29.32838189 21.5625 25.5625 C17.47973875 20.49524313 13.14002116 15.74831871 8.67578125 11.01953125 C5.50481527 7.56149177 2.7594387 3.78876739 0 0 Z " fill="#E7486D" transform="translate(284,101)"/>
<path d="M0 0 C2.93200474 2.85276137 5.64315404 5.65079784 8 9 C7.67 9.66 7.34 10.32 7 11 C4.36 8.03 1.72 5.06 -1 2 C-0.67 1.34 -0.34 0.68 0 0 Z " fill="#E04E88" transform="translate(387,121)"/>
</svg>
