<?xml version="1.0" encoding="UTF-8"?>
<svg version="1.1" xmlns="http://www.w3.org/2000/svg" width="512" height="512">
<path d="M0 0 C2.14530455 -0.00698272 4.29060891 -0.01402365 6.43591309 -0.02111816 C13.24894472 -0.04037529 20.0619441 -0.045294 26.875 -0.046875 C28.03601227 -0.04746414 29.19702454 -0.04805328 30.39321899 -0.04866028 C64.95752913 -0.06103759 99.35529 0.25111861 133.83032227 2.96557617 C137.03925244 3.21594014 140.248939 3.45383838 143.45898438 3.68945312 C150.01602211 4.17313187 156.57104446 4.67937201 163.125 5.203125 C164.58425903 5.31944275 164.58425903 5.31944275 166.07299805 5.43811035 C175.97099874 6.24287083 185.81947606 7.23073187 195.6484375 8.66015625 C196.44018372 8.77290894 197.23192993 8.88566162 198.04766846 9.00183105 C221.7291885 12.63316075 243.28282668 25.07716944 257.875 44.203125 C264.43659334 53.27886837 269.40807292 62.5204065 272.875 73.203125 C273.12612549 73.9760791 273.37725098 74.7490332 273.63598633 75.54541016 C276.05619453 83.63795773 276.97639904 91.83134924 277.8125 100.203125 C277.89360016 100.98859711 277.97470032 101.77406921 278.05825806 102.58334351 C279.76208621 119.19807799 280.93039386 135.85375596 282.0625 152.515625 C282.18937698 154.37272095 282.18937698 154.37272095 282.31881714 156.26733398 C282.88115269 164.5768761 283.39781333 172.88826851 283.875 181.203125 C283.93154755 182.15735352 283.98809509 183.11158203 284.0463562 184.09472656 C285.26887787 205.51996104 285.06228626 226.99994941 285.06030273 248.45166016 C285.06022206 252.83711931 285.06708345 257.22247269 285.08081055 261.60791016 C285.19864464 299.91227634 284.03612975 338.01779536 280.9375 376.203125 C280.85096161 377.28904938 280.76442322 378.37497375 280.67526245 379.49380493 C280.09755944 386.732208 279.49507273 393.9682375 278.875 401.203125 C278.77348633 402.40240631 278.77348633 402.40240631 278.66992188 403.62591553 C276.11321984 433.68116701 268.89357558 461.84412223 244.875 482.203125 C216.50004433 504.33794519 184.47799202 505.52735308 149.875 508.265625 C148.85532135 508.34780273 147.8356427 508.42998047 146.7850647 508.51464844 C108.93674376 511.53653708 71.14472615 512.58377734 33.18375778 512.52098083 C29.75573364 512.51553482 26.32771642 512.51317152 22.89968872 512.5111084 C-10.49657906 512.4798085 -43.75359991 512.0327131 -77.06469727 509.44067383 C-80.26204533 509.19248718 -83.46002558 508.95404058 -86.65820312 508.71679688 C-93.0865956 508.23576696 -99.51266316 507.72947144 -105.9375 507.203125 C-106.88464874 507.12557983 -107.83179749 507.04803467 -108.80764771 506.96813965 C-118.55304451 506.15335722 -128.24478454 505.1394387 -137.921875 503.71875 C-138.72361649 503.60233154 -139.52535797 503.48591309 -140.35139465 503.3659668 C-163.43084862 499.81198808 -184.87570949 487.90567294 -199.328125 469.37890625 C-203.50198503 463.6079059 -207.15819589 457.6507227 -210.4375 451.328125 C-210.75074219 450.74160156 -211.06398437 450.15507812 -211.38671875 449.55078125 C-217.19393437 437.86189853 -218.88796521 424.78303244 -220.125 411.953125 C-220.2429039 410.78990219 -220.2429039 410.78990219 -220.3631897 409.60317993 C-222.03519521 393.06152433 -223.18241317 376.47655716 -224.3125 359.890625 C-224.39717529 358.65219849 -224.48185059 357.41377197 -224.5690918 356.13781738 C-225.13135211 347.82864533 -225.64783479 339.51760747 -226.125 331.203125 C-226.18154755 330.24889648 -226.23809509 329.29466797 -226.2963562 328.31152344 C-227.51887787 306.88628896 -227.31228626 285.40630059 -227.31030273 263.95458984 C-227.31022206 259.56913069 -227.31708345 255.18377731 -227.33081055 250.79833984 C-227.44864464 212.49397366 -226.28612975 174.38845464 -223.1875 136.203125 C-223.10096161 135.11720062 -223.01442322 134.03127625 -222.92526245 132.91244507 C-222.34755944 125.674042 -221.74507273 118.4380125 -221.125 111.203125 C-221.05732422 110.40360413 -220.98964844 109.60408325 -220.91992188 108.78033447 C-218.26033348 77.51560484 -210.55595646 50.74942889 -186.07421875 29.515625 C-168.22497047 15.51992303 -149.19116478 9.35595631 -126.8125 7.203125 C-126.03573914 7.1245224 -125.25897827 7.0459198 -124.4586792 6.9649353 C-108.08371477 5.31095413 -91.66752412 4.15308383 -75.25 3.015625 C-74.03122162 2.93094971 -72.81244324 2.84627441 -71.55673218 2.7590332 C-67.97823163 2.51291958 -64.3993894 2.27273046 -60.8203125 2.03515625 C-59.28388344 1.93071953 -59.28388344 1.93071953 -57.71641541 1.82417297 C-38.48855706 0.57835557 -19.26556459 0.03926663 0 0 Z " fill="#006BAE" transform="translate(227.125,-0.203125)"/>
<path d="M0 0 C6.14624045 5.09235835 11.7936747 10.61023792 17.4375 16.25 C18.35982422 17.16007812 19.28214844 18.07015625 20.23242188 19.0078125 C21.10318359 19.87664062 21.97394531 20.74546875 22.87109375 21.640625 C23.66443115 22.42985352 24.45776855 23.21908203 25.27514648 24.03222656 C27 26 27 26 27 28 C27.66 28 28.32 28 29 28 C29 28.66 29 29.32 29 30 C29.66 30 30.32 30 31 30 C31 30.66 31 31.32 31 32 C32.32 32.66 33.64 33.32 35 34 C35 34.66 35 35.32 35 36 C35.66 36 36.32 36 37 36 C37 36.66 37 37.32 37 38 C37.66 38.33 38.32 38.66 39 39 C40.90993842 40.78662408 42.77555801 42.59040502 44.625 44.4375 C45.140625 44.94087891 45.65625 45.44425781 46.1875 45.96289062 C47.49890311 47.26908975 48.75410175 48.63117868 50 50 C50 50.66 50 51.32 50 52 C50.99 52.33 51.98 52.66 53 53 C52.814375 53.969375 52.62875 54.93875 52.4375 55.9375 C52.2209375 57.4534375 52.2209375 57.4534375 52 59 C52.33 59.33 52.66 59.66 53 60 C53.66 60 54.32 60 55 60 C55.33 59.01 55.66 58.02 56 57 C56.66 57 57.32 57 58 57 C58.99 59.97 58.99 59.97 60 63 C56.25 66.875 56.25 66.875 54 68 C50.67098753 70.21934164 50.24976756 71.34683329 49 75 C47.35 74.67 45.7 74.34 44 74 C46.475 76.475 46.475 76.475 49 79 C48.34 79 47.68 79 47 79 C46.731875 79.763125 46.46375 80.52625 46.1875 81.3125 C45.04204753 83.90483979 44.23584819 85.30075537 42 87 C41.01 87 40.02 87 39 87 C39 156.63 39 226.26 39 298 C61.44 298 83.88 298 107 298 C106.96519531 289.72808594 106.93039062 281.45617187 106.89453125 272.93359375 C106.87723552 266.99960856 106.86185995 261.0656425 106.8492384 255.13164806 C106.83266899 247.46083636 106.81169421 239.79012342 106.77368164 232.11938477 C106.7403455 225.38906003 106.72310911 218.65886427 106.71536827 211.92845345 C106.709857 209.37024315 106.69909549 206.81203821 106.68280983 204.25387383 C106.43210734 163.21342836 106.43210734 163.21342836 121.16015625 147.6796875 C129.31734341 140.23257396 139.0871544 137.30855759 150.04296875 137.66015625 C156.84223806 138.44157822 162.12151885 140.63939557 166.875 145.625 C177.54457089 159.24999193 178.17149898 178.9909093 178.11352539 195.60009766 C178.11367142 196.71346497 178.11381744 197.82683228 178.1139679 198.97393799 C178.11327629 202.62066661 178.10551938 206.2673429 178.09765625 209.9140625 C178.0957894 212.45567802 178.09436675 214.9972939 178.09336853 217.53890991 C178.08995235 223.52388569 178.08208666 229.50883931 178.07201904 235.49380624 C178.06079863 242.31373651 178.05533259 249.13366772 178.05032361 255.95360494 C178.03990223 269.96908205 178.02158064 283.98453585 178 298 C190.54 298 203.08 298 216 298 C212.75 306.125 212.75 306.125 209 308 C208.731875 308.763125 208.46375 309.52625 208.1875 310.3125 C206.73714469 313.59488307 204.88973708 314.94676576 202 317 C203.65 317.99 205.3 318.98 207 320 C208.65 318.68 210.3 317.36 212 316 C212.7425 316.33 213.485 316.66 214.25 317 C217.13883312 318.22782871 217.13883312 318.22782871 221 318 C219.515 319.98 219.515 319.98 218 322 C218.99 322.99 219.98 323.98 221 325 C221.99 324.34 222.98 323.68 224 323 C224.99 323 225.98 323 227 323 C228.69719127 322.05273046 230.36935236 321.05771739 232 320 C232 320.99 232 321.98 232 323 C231.67 323.33 231.34 323.66 231 324 C231.66 324.66 232.32 325.32 233 326 C232.34 326 231.68 326 231 326 C230.67 327.32 230.34 328.64 230 330 C230.680625 329.2575 230.680625 329.2575 231.375 328.5 C233 327 233 327 235 327 C235.33 327.33 235.66 327.66 236 328 C236.70125 327.814375 237.4025 327.62875 238.125 327.4375 C241.84388371 326.87158291 244.44467251 327.88073024 248 329 C248.99 329 249.98 329 251 329 C251 329.66 251 330.32 251 331 C252.32 330.67 253.64 330.34 255 330 C255.33 331.65 255.66 333.3 256 335 C256.99 333.35 257.98 331.7 259 330 C259.721875 330.309375 260.44375 330.61875 261.1875 330.9375 C263.94278597 332.07499416 263.94278597 332.07499416 266.75 332.5 C267.4925 332.665 268.235 332.83 269 333 C269.33 333.66 269.66 334.32 270 335 C270.33 333.68 270.66 332.36 271 331 C271.99 331.33 272.98 331.66 274 332 C274.825 331.814375 275.65 331.62875 276.5 331.4375 C279 331 279 331 282 333 C282.66 332.67 283.32 332.34 284 332 C284.66 332.99 285.32 333.98 286 335 C286.78375 334.835 287.5675 334.67 288.375 334.5 C291 334 291 334 293 334 C293.66 333.34 294.32 332.68 295 332 C296.67293936 332.30027117 298.33985384 332.63557767 300 333 C300.99 332.67 301.98 332.34 303 332 C304 334 304 334 304 335 C304.99 334.67 305.98 334.34 307 334 C307.33 334.33 307.66 334.66 308 335 C308.391875 334.484375 308.78375 333.96875 309.1875 333.4375 C309.785625 332.963125 310.38375 332.48875 311 332 C313.4375 332.375 313.4375 332.375 316 333 C318.23167185 332.63143136 318.23167185 332.63143136 320 332 C322.0817738 335.42880391 322.0817738 335.42880391 321.73828125 337.828125 C315.40003282 356.47397753 295.74699525 370.53371383 279.02734375 379.02197266 C270.40914053 383.17954998 261.73955469 385.21542704 252.33984375 386.5078125 C251.42483093 386.63542969 250.50981812 386.76304687 249.56707764 386.89453125 C232.19909536 389.24971325 214.69719422 390.45891209 197.22503662 391.75854492 C194.13213073 391.99010751 191.03995929 392.22999592 187.94775391 392.47070312 C118.91331529 397.73106589 48.08253658 397.60838182 -20.93969727 392.23754883 C-24.13704533 391.98936218 -27.33502558 391.75091558 -30.53320312 391.51367188 C-36.9615956 391.03264196 -43.38766316 390.52634644 -49.8125 390 C-50.75964874 389.92245483 -51.70679749 389.84490967 -52.68264771 389.76501465 C-62.42804451 388.95023222 -72.11978454 387.9363137 -81.796875 386.515625 C-82.59861649 386.39920654 -83.40035797 386.28278809 -84.22639465 386.1628418 C-106.19587327 382.77978692 -128.58726556 371.53653214 -142.17285156 353.4375 C-144.87977225 349.68912831 -147.4550696 345.85963511 -150 342 C-150.99 340.515 -150.99 340.515 -152 339 C-151.625 336.8125 -151.625 336.8125 -151 335 C-149.86111328 335.03480469 -149.86111328 335.03480469 -148.69921875 335.0703125 C-147.70535156 335.08835937 -146.71148437 335.10640625 -145.6875 335.125 C-144.20830078 335.15980469 -144.20830078 335.15980469 -142.69921875 335.1953125 C-139.77593473 335.20682639 -139.77593473 335.20682639 -137 333 C-136.34 333.66 -135.68 334.32 -135 335 C-133.68 334.01 -132.36 333.02 -131 332 C-130.443125 332.7425 -130.443125 332.7425 -129.875 333.5 C-127.1984132 335.64126944 -125.33938377 335.34785248 -122 335 C-121.01 334.34 -120.02 333.68 -119 333 C-118.34 333.66 -117.68 334.32 -117 335 C-115.68 333.35 -114.36 331.7 -113 330 C-113.66 329.67 -114.32 329.34 -115 329 C-111.31027982 326.69392489 -107.2966789 326.03317899 -103 326 C-100.98504093 326.61998741 -98.9812585 327.27954236 -97 328 C-93.8846217 327.64395677 -92.70426829 326.80284553 -90 325 C-89.113125 325.680625 -88.22625 326.36125 -87.3125 327.0625 C-84.24606506 329.30154217 -84.24606506 329.30154217 -81.3125 328.6875 C-80.549375 328.460625 -79.78625 328.23375 -79 328 C-78.01 328.33 -77.02 328.66 -76 329 C-76 329.66 -76 330.32 -76 331 C-74.68 329.68 -73.36 328.36 -72 327 C-71.34 327.66 -70.68 328.32 -70 329 C-69.5875 328.484375 -69.175 327.96875 -68.75 327.4375 C-68.1725 326.963125 -67.595 326.48875 -67 326 C-65 326.3125 -65 326.3125 -63 327 C-62.01 327 -61.02 327 -60 327 C-60.33 327.99 -60.66 328.98 -61 330 C-60.443125 329.46375 -59.88625 328.9275 -59.3125 328.375 C-58.549375 327.92125 -57.78625 327.4675 -57 327 C-55.31422289 327.61674772 -53.64551962 328.28272222 -52 329 C-51.01 328.34 -50.02 327.68 -49 327 C-48.01 328.485 -48.01 328.485 -47 330 C-45.68 328.35 -44.36 326.7 -43 325 C-43.5053125 324.51789063 -44.010625 324.03578125 -44.53125 323.5390625 C-45.1809375 322.90742188 -45.830625 322.27578125 -46.5 321.625 C-47.1496875 320.99851562 -47.799375 320.37203125 -48.46875 319.7265625 C-50 318 -50 318 -50 316 C-50.87640137 315.61146851 -50.87640137 315.61146851 -51.77050781 315.21508789 C-54.16639957 313.90931114 -55.75252382 312.49092728 -57.671875 310.55859375 C-58.33574219 309.89279297 -58.99960938 309.22699219 -59.68359375 308.54101562 C-60.70646484 307.49977539 -60.70646484 307.49977539 -61.75 306.4375 C-62.44738281 305.73947266 -63.14476563 305.04144531 -63.86328125 304.32226562 C-69 299.14031158 -69 299.14031158 -69 298 C-46.89 298 -24.78 298 -2 298 C-2 228.37 -2 158.74 -2 87 C-9.92 87 -17.84 87 -26 87 C-27.32 86.01 -28.64 85.02 -30 84 C-30 83.34 -30 82.68 -30 82 C-30.66 82 -31.32 82 -32 82 C-32 81.34 -32 80.68 -32 80 C-32.556875 79.773125 -33.11375 79.54625 -33.6875 79.3125 C-37.68438886 77.04399551 -40.53966649 74.38100054 -42 70 C-42.66 69.67 -43.32 69.34 -44 69 C-46 68 -46 68 -47 65 C-48.32407669 64.31513275 -49.65909241 63.65129797 -51 63 C-53.25 61 -53.25 61 -55 59 C-55 58.34 -55 57.68 -55 57 C-54.30777344 57.2165625 -53.61554688 57.433125 -52.90234375 57.65625 C-40.74166155 61.1169975 -28.48572746 61.95556238 -17 56 C-7.31493369 50.20610192 -0.55246642 41.65739926 3 31 C3.25351361 27.77538372 3.23132244 24.54605184 3.25 21.3125 C3.270625 20.43916016 3.29125 19.56582031 3.3125 18.66601562 C3.34812183 12.70381188 2.29909532 8.48757752 0 3 C0 2.01 0 1.02 0 0 Z M50 62 C49.67 62.66 49.34 63.32 49 64 C49.66 64 50.32 64 51 64 C50.67 63.34 50.34 62.68 50 62 Z M213 320 C213.33 320.66 213.66 321.32 214 322 C214.33 321.34 214.66 320.68 215 320 C214.34 320 213.68 320 213 320 Z M295 334 C296 337 296 337 296 337 Z " fill="#015C96" transform="translate(171,117)"/>
<path d="M0 0 C8.99281453 7.12289961 15.38285849 14.81596705 20.91796875 24.82421875 C21.29953125 25.48164063 21.68109375 26.1390625 22.07421875 26.81640625 C27.90216908 37.45683072 28.34991265 48.83837636 28.25854492 60.69042969 C28.25769677 62.24882999 28.25817745 63.80723149 28.25987244 65.3656311 C28.26072649 69.55910911 28.24319745 73.75232503 28.22215056 77.94574261 C28.20328431 82.34192736 28.20162554 86.73811938 28.19807434 91.13433838 C28.18878291 99.44258206 28.16420879 107.75070606 28.13402587 116.05889726 C28.10039105 125.52451661 28.08397311 134.99014194 28.06893957 144.45580626 C28.03765634 163.9120252 27.98268095 183.36808029 27.91796875 202.82421875 C5.47796875 202.82421875 -16.96203125 202.82421875 -40.08203125 202.82421875 C-40.13101563 194.78046875 -40.18 186.73671875 -40.23046875 178.44921875 C-40.26589047 173.326811 -40.30187071 168.20441917 -40.33984375 163.08203125 C-40.39994802 154.96714645 -40.45836639 146.85228587 -40.50390625 138.73730469 C-40.54066727 132.18846345 -40.5874441 125.6397364 -40.64009476 119.09100342 C-40.65850261 116.60343622 -40.67365967 114.11584258 -40.68537521 111.62823486 C-39.84437793 77.65693766 -39.84437793 77.65693766 -54.45703125 48.38671875 C-62.81447234 43.41205143 -70.68550601 42.47926726 -80.203125 44.48046875 C-91.09924183 47.70072239 -97.89856074 53.319502 -103.6484375 63.06640625 C-109.27299557 73.88640079 -110.37624282 85.7872022 -110.40087891 97.81323242 C-110.41092453 98.95600647 -110.42097015 100.09878052 -110.43132019 101.27618408 C-110.46195763 105.01484725 -110.47913307 108.75343946 -110.49609375 112.4921875 C-110.51482104 115.09964093 -110.53439559 117.70708841 -110.55477905 120.31452942 C-110.60133877 126.45171614 -110.63819227 132.58892017 -110.67145193 138.72619182 C-110.71360983 146.40801826 -110.7689141 154.08974327 -110.82421875 161.77148438 C-110.9226806 175.45567311 -111.00144786 189.13988715 -111.08203125 202.82421875 C-133.52203125 202.82421875 -155.96203125 202.82421875 -179.08203125 202.82421875 C-179.08203125 133.52421875 -179.08203125 64.22421875 -179.08203125 -7.17578125 C-158.62203125 -7.17578125 -138.16203125 -7.17578125 -117.08203125 -7.17578125 C-116.58703125 7.17921875 -116.58703125 7.17921875 -116.08203125 21.82421875 C-114.49390625 20.00921875 -112.90578125 18.19421875 -111.26953125 16.32421875 C-106.10408764 10.58785769 -100.54406547 6.07268364 -94.08203125 1.82421875 C-93.08623047 1.12039062 -93.08623047 1.12039062 -92.0703125 0.40234375 C-66.22178521 -17.15514649 -25.34523568 -17.8926442 0 0 Z " fill="#FDFEFE" transform="translate(389.08203125,212.17578125)"/>
<path d="M0 0 C2.14530455 -0.00698272 4.29060891 -0.01402365 6.43591309 -0.02111816 C13.24894472 -0.04037529 20.0619441 -0.045294 26.875 -0.046875 C28.03601227 -0.04746414 29.19702454 -0.04805328 30.39321899 -0.04866028 C64.95752913 -0.06103759 99.35529 0.25111861 133.83032227 2.96557617 C137.03925244 3.21594014 140.248939 3.45383838 143.45898438 3.68945312 C150.01602211 4.17313187 156.57104446 4.67937201 163.125 5.203125 C164.58425903 5.31944275 164.58425903 5.31944275 166.07299805 5.43811035 C175.97099874 6.24287083 185.81947606 7.23073187 195.6484375 8.66015625 C196.44018372 8.77290894 197.23192993 8.88566162 198.04766846 9.00183105 C217.97179504 12.05700118 235.54889761 21.05981179 249.875 35.203125 C250.205 36.193125 250.535 37.183125 250.875 38.203125 C250.30910156 38.40808594 249.74320312 38.61304688 249.16015625 38.82421875 C248.42667969 39.09363281 247.69320313 39.36304688 246.9375 39.640625 C246.20660156 39.90746094 245.47570312 40.17429688 244.72265625 40.44921875 C242.89194322 41.05699448 242.89194322 41.05699448 241.875 42.203125 C235.395 45.203125 235.395 45.203125 231.875 45.203125 C231.545 45.863125 231.215 46.523125 230.875 47.203125 C229.885 47.203125 228.895 47.203125 227.875 47.203125 C227.545 47.863125 227.215 48.523125 226.875 49.203125 C225.885 49.203125 224.895 49.203125 223.875 49.203125 C223.545 49.863125 223.215 50.523125 222.875 51.203125 C219.22916737 52.41840254 216.55358931 52.42932144 212.875 51.203125 C212.875 50.543125 212.875 49.883125 212.875 49.203125 C212.17375 48.935 211.4725 48.666875 210.75 48.390625 C202.355 44.923125 202.355 44.923125 199.875 41.203125 C199.545 41.863125 199.215 42.523125 198.875 43.203125 C196.895 42.543125 194.915 41.883125 192.875 41.203125 C192.875 41.863125 192.875 42.523125 192.875 43.203125 C192.215 43.203125 191.555 43.203125 190.875 43.203125 C190.545 43.863125 190.215 44.523125 189.875 45.203125 C189.215 44.213125 188.555 43.223125 187.875 42.203125 C187.545 42.863125 187.215 43.523125 186.875 44.203125 C184.8125 45.328125 184.8125 45.328125 182.875 46.203125 C181.875 44.203125 181.875 44.203125 182.8125 41.078125 C183.163125 40.129375 183.51375 39.180625 183.875 38.203125 C181.11235711 37.60579681 178.71467231 37.203125 175.875 37.203125 C174.885 37.203125 173.895 37.203125 172.875 37.203125 C172.215 38.853125 171.555 40.503125 170.875 42.203125 C170.215 42.203125 169.555 42.203125 168.875 42.203125 C168.875 42.863125 168.875 43.523125 168.875 44.203125 C167.24873596 45.58544943 165.5824998 46.92250015 163.875 48.203125 C164.865 48.533125 165.855 48.863125 166.875 49.203125 C165.24087557 50.91152781 164.00593906 52.13765547 161.875 53.203125 C162.535 54.193125 163.195 55.183125 163.875 56.203125 C163.070625 56.491875 162.26625 56.780625 161.4375 57.078125 C158.7423532 57.93575068 158.7423532 57.93575068 157.875 60.203125 C156.885 60.203125 155.895 60.203125 154.875 60.203125 C154.215 57.893125 153.555 55.583125 152.875 53.203125 C152.215 53.533125 151.555 53.863125 150.875 54.203125 C150.215 53.873125 149.555 53.543125 148.875 53.203125 C148.545 53.863125 148.215 54.523125 147.875 55.203125 C147.875 50.81344044 150.00305101 49.43406761 152.875 46.203125 C152.215 44.883125 151.555 43.563125 150.875 42.203125 C150.545 42.863125 150.215 43.523125 149.875 44.203125 C148.885 44.863125 147.895 45.523125 146.875 46.203125 C146.875 44.883125 146.875 43.563125 146.875 42.203125 C145.885 41.873125 144.895 41.543125 143.875 41.203125 C142.875 39.203125 142.875 39.203125 142.4375 37.203125 C141.99221638 34.99417406 141.99221638 34.99417406 139.875 33.203125 C139.875 33.863125 139.875 34.523125 139.875 35.203125 C135.47606534 39.12649916 132.64377018 40.203125 126.875 40.203125 C127.205 38.223125 127.535 36.243125 127.875 34.203125 C126.885 34.203125 125.895 34.203125 124.875 34.203125 C124.215 34.203125 123.555 34.203125 122.875 34.203125 C123.205 34.863125 123.535 35.523125 123.875 36.203125 C122.9375 38.328125 122.9375 38.328125 121.875 40.203125 C121.215 40.203125 120.555 40.203125 119.875 40.203125 C119.215 41.853125 118.555 43.503125 117.875 45.203125 C116.39 43.718125 116.39 43.718125 114.875 42.203125 C115.535 41.543125 116.195 40.883125 116.875 40.203125 C116.545 39.213125 116.215 38.223125 115.875 37.203125 C116.8125 34.515625 116.8125 34.515625 117.875 32.203125 C117.276875 32.368125 116.67875 32.533125 116.0625 32.703125 C113.875 33.203125 113.875 33.203125 110.875 33.203125 C110.545 32.543125 110.215 31.883125 109.875 31.203125 C108.885 31.203125 107.895 31.203125 106.875 31.203125 C106.545 31.863125 106.215 32.523125 105.875 33.203125 C105.875 32.543125 105.875 31.883125 105.875 31.203125 C103.85454558 31.80496249 101.85388961 32.47618596 99.875 33.203125 C99.545 33.863125 99.215 34.523125 98.875 35.203125 C98.215 33.883125 97.555 32.563125 96.875 31.203125 C96.24851562 31.21472656 95.62203125 31.22632812 94.9765625 31.23828125 C94.15929687 31.24730469 93.34203125 31.25632812 92.5 31.265625 C91.68789063 31.27722656 90.87578125 31.28882812 90.0390625 31.30078125 C87.875 31.203125 87.875 31.203125 85.875 30.203125 C85.545 30.863125 85.215 31.523125 84.875 32.203125 C84.875 31.543125 84.875 30.883125 84.875 30.203125 C84.215 30.203125 83.555 30.203125 82.875 30.203125 C82.545 30.863125 82.215 31.523125 81.875 32.203125 C81.545 31.873125 81.215 31.543125 80.875 31.203125 C73.71583645 30.15572763 66.48312927 30.05461768 59.26171875 30.0703125 C58.26915573 30.06899323 57.27659271 30.06767395 56.25395203 30.0663147 C53.02343594 30.06440492 49.79300728 30.07073731 46.5625 30.078125 C45.45360413 30.07901123 44.34470825 30.07989746 43.20220947 30.08081055 C21.99652917 30.10055477 0.80297356 30.46929568 -20.3943634 31.0506897 C-24.21124404 31.15151382 -28.02079974 31.20893484 -31.83911133 31.19091797 C-35.19813999 31.18299766 -38.49938961 31.32092275 -41.84765625 31.6171875 C-47.62329607 32.0945131 -53.39991643 32.48881859 -59.18359375 32.8515625 C-113.06203955 33.72059006 -113.06203955 33.72059006 -160.41796875 55.91796875 C-162.125 57.203125 -162.125 57.203125 -164.125 57.203125 C-164.125 57.863125 -164.125 58.523125 -164.125 59.203125 C-164.785 59.203125 -165.445 59.203125 -166.125 59.203125 C-166.125 59.863125 -166.125 60.523125 -166.125 61.203125 C-166.785 61.203125 -167.445 61.203125 -168.125 61.203125 C-168.125 61.863125 -168.125 62.523125 -168.125 63.203125 C-168.785 63.203125 -169.445 63.203125 -170.125 63.203125 C-170.38925781 63.77417969 -170.65351563 64.34523438 -170.92578125 64.93359375 C-172.19453585 67.33472217 -173.67710985 69.34882661 -175.3125 71.515625 C-188.41553306 90.18744711 -190.68175142 111.07725469 -192.50805664 133.2578125 C-192.81088433 136.93351408 -193.13132812 140.60733787 -193.45507812 144.28125 C-194.47769459 156.09104499 -195.37471673 167.88698382 -195.79948425 179.73504639 C-195.94937561 183.67963034 -196.27736421 187.33570548 -197.125 191.203125 C-197.18080612 194.70844699 -197.14856876 198.19695313 -197.0859375 201.70117188 C-197.04053355 205.91995578 -197.31121585 209.90795343 -197.89794922 214.09838867 C-198.33211562 218.12306453 -198.22786723 222.16019182 -198.1875 226.203125 C-198.18298828 227.07324219 -198.17847656 227.94335938 -198.17382812 228.83984375 C-198.1621736 230.96096793 -198.14424357 233.0820561 -198.125 235.203125 C-198.785 235.203125 -199.445 235.203125 -200.125 235.203125 C-200.125 239.163125 -200.125 243.123125 -200.125 247.203125 C-202.105 248.193125 -202.105 248.193125 -204.125 249.203125 C-204.47912344 250.53108791 -204.81021554 251.86529107 -205.125 253.203125 C-207.0625 255.453125 -207.0625 255.453125 -209.125 257.203125 C-209.785 257.203125 -210.445 257.203125 -211.125 257.203125 C-211.125 257.863125 -211.125 258.523125 -211.125 259.203125 C-211.785 259.203125 -212.445 259.203125 -213.125 259.203125 C-213.785 261.183125 -214.445 263.163125 -215.125 265.203125 C-215.785 265.203125 -216.445 265.203125 -217.125 265.203125 C-217.62 267.183125 -217.62 267.183125 -218.125 269.203125 C-218.785 269.203125 -219.445 269.203125 -220.125 269.203125 C-220.125 269.863125 -220.125 270.523125 -220.125 271.203125 C-220.785 271.203125 -221.445 271.203125 -222.125 271.203125 C-222.2075 271.821875 -222.29 272.440625 -222.375 273.078125 C-223.125 275.203125 -223.125 275.203125 -225.171875 276.3359375 C-225.81640625 276.62210937 -226.4609375 276.90828125 -227.125 277.203125 C-227.56515849 198.51107038 -227.56515849 198.51107038 -225.125 163.203125 C-225.05476624 162.17701111 -224.98453247 161.15089722 -224.91217041 160.09368896 C-223.78903703 143.78506475 -222.52093232 127.49059054 -221.125 111.203125 C-221.05732422 110.40360413 -220.98964844 109.60408325 -220.91992188 108.78033447 C-218.26033348 77.51560484 -210.55595646 50.74942889 -186.07421875 29.515625 C-168.22497047 15.51992303 -149.19116478 9.35595631 -126.8125 7.203125 C-126.03573914 7.1245224 -125.25897827 7.0459198 -124.4586792 6.9649353 C-108.08371477 5.31095413 -91.66752412 4.15308383 -75.25 3.015625 C-74.03122162 2.93094971 -72.81244324 2.84627441 -71.55673218 2.7590332 C-67.97823163 2.51291958 -64.3993894 2.27273046 -60.8203125 2.03515625 C-59.28388344 1.93071953 -59.28388344 1.93071953 -57.71641541 1.82417297 C-38.48855706 0.57835557 -19.26556459 0.03926663 0 0 Z M128.875 32.203125 C129.875 34.203125 129.875 34.203125 129.875 34.203125 Z M151.875 39.203125 C152.205 40.193125 152.535 41.183125 152.875 42.203125 C153.535 41.873125 154.195 41.543125 154.875 41.203125 C154.545 40.543125 154.215 39.883125 153.875 39.203125 C153.215 39.203125 152.555 39.203125 151.875 39.203125 Z M154.875 54.203125 C155.205 54.863125 155.535 55.523125 155.875 56.203125 C156.205 55.543125 156.535 54.883125 156.875 54.203125 C156.215 54.203125 155.555 54.203125 154.875 54.203125 Z " fill="#0174B4" transform="translate(227.125,-0.203125)"/>
<path d="M0 0 C22.44 0 44.88 0 68 0 C68 69.63 68 139.26 68 211 C45.56 211 23.12 211 0 211 C0 141.37 0 71.74 0 0 Z " fill="#FCFDFE" transform="translate(101,204)"/>
<path d="M0 0 C0.33 0 0.66 0 1 0 C1 21.12 1 42.24 1 64 C13.54 64 26.08 64 39 64 C35.75 72.125 35.75 72.125 32 74 C31.731875 74.763125 31.46375 75.52625 31.1875 76.3125 C29.73714469 79.59488307 27.88973708 80.94676576 25 83 C26.65 83.99 28.3 84.98 30 86 C31.65 84.68 33.3 83.36 35 82 C35.7425 82.33 36.485 82.66 37.25 83 C40.13883312 84.22782871 40.13883312 84.22782871 44 84 C43.01 85.32 42.02 86.64 41 88 C41.99 88.99 42.98 89.98 44 91 C44.99 90.34 45.98 89.68 47 89 C47.99 89 48.98 89 50 89 C51.69719127 88.05273046 53.36935236 87.05771739 55 86 C55 86.99 55 87.98 55 89 C54.67 89.33 54.34 89.66 54 90 C54.66 90.66 55.32 91.32 56 92 C55.34 92 54.68 92 54 92 C53.505 93.98 53.505 93.98 53 96 C53.45375 95.505 53.9075 95.01 54.375 94.5 C56 93 56 93 58 93 C58.33 93.33 58.66 93.66 59 94 C59.70125 93.814375 60.4025 93.62875 61.125 93.4375 C64.84388371 92.87158291 67.44467251 93.88073024 71 95 C71.99 95 72.98 95 74 95 C74 95.66 74 96.32 74 97 C75.32 96.67 76.64 96.34 78 96 C78.33 97.65 78.66 99.3 79 101 C79.99 99.35 80.98 97.7 82 96 C82.721875 96.309375 83.44375 96.61875 84.1875 96.9375 C86.94278597 98.07499416 86.94278597 98.07499416 89.75 98.5 C90.4925 98.665 91.235 98.83 92 99 C92.33 99.66 92.66 100.32 93 101 C93.33 99.68 93.66 98.36 94 97 C94.99 97.33 95.98 97.66 97 98 C97.825 97.814375 98.65 97.62875 99.5 97.4375 C102 97 102 97 105 99 C105.66 98.67 106.32 98.34 107 98 C107.99 99.485 107.99 99.485 109 101 C109.78375 100.835 110.5675 100.67 111.375 100.5 C114 100 114 100 116 100 C116.66 99.34 117.32 98.68 118 98 C119.67293936 98.30027117 121.33985384 98.63557767 123 99 C123.99 98.67 124.98 98.34 126 98 C127 100 127 100 127 101 C127.99 100.67 128.98 100.34 130 100 C130.33 100.33 130.66 100.66 131 101 C131.391875 100.484375 131.78375 99.96875 132.1875 99.4375 C132.785625 98.963125 133.38375 98.48875 134 98 C136.4375 98.375 136.4375 98.375 139 99 C141.23167185 98.63143136 141.23167185 98.63143136 143 98 C145.07655302 101.42020498 145.07655302 101.42020498 144.76171875 103.8046875 C142.29293659 110.91984428 136.97316225 117.4240302 132 123 C131.34 122.34 130.68 121.68 130 121 C130 120.67 130 120.34 130 120 C127.37493198 119.97309156 124.75013827 119.95320596 122.125 119.9375 C121.00544922 119.92493164 121.00544922 119.92493164 119.86328125 119.91210938 C115.80154422 119.79311916 115.80154422 119.79311916 112 121 C111.401875 120.814375 110.80375 120.62875 110.1875 120.4375 C107.2789533 119.85579066 105.69825514 120.89302353 103 122 C100 121 100 121 99 120 C98.01 120.33 97.02 120.66 96 121 C95.34 120.34 94.68 119.68 94 119 C93.67 119.99 93.34 120.98 93 122 C92.01 121.67 91.02 121.34 90 121 C90 120.34 90 119.68 90 119 C89.34 119 88.68 119 88 119 C87.34 119.99 86.68 120.98 86 122 C84 121 84 121 83 119 C82.01 118.67 81.02 118.34 80 118 C78.02 119.98 78.02 119.98 76 122 C75.34 121.67 74.68 121.34 74 121 C73.360625 121.165 72.72125 121.33 72.0625 121.5 C69.04691696 122.23105043 66.89751626 120.96583875 64 120 C63.01 120.495 63.01 120.495 62 121 C60 121 58 121 56 121 C54.66018514 121.3062434 53.32488113 121.63451555 52 122 C51.67 121.34 51.34 120.68 51 120 C50.071875 120.165 49.14375 120.33 48.1875 120.5 C45 121 45 121 42 121 C41.34 120.34 40.68 119.68 40 119 C37.96063386 118.92365356 37.96063386 118.92365356 35.875 119.5 C32.18099667 120.14243536 28.75333596 120.05957676 25 120 C23.68 120 22.36 120 21 120 C20.154375 119.79375 19.30875 119.5875 18.4375 119.375 C15.74805981 118.68062682 15.74805981 118.68062682 13 121 C12.67 120.34 12.34 119.68 12 119 C11.278125 119.165 10.55625 119.33 9.8125 119.5 C7.13572455 119.97587119 4.71050513 120.077443 2 120 C1.67 119.34 1.34 118.68 1 118 C1.33 117.67 1.66 117.34 2 117 C1.01 117.495 1.01 117.495 0 118 C-3.36415733 119.08133628 -6.48341357 119.07992242 -10 119 C-10.33 118.34 -10.66 117.68 -11 117 C-11.99 117.495 -11.99 117.495 -13 118 C-15.01206652 117.77643705 -17.02461174 117.54963677 -19.02734375 117.25390625 C-21.16442074 116.93617013 -21.16442074 116.93617013 -24 117 C-25.54810424 116.7446986 -27.09001386 116.44999707 -28.625 116.125 C-29.42164063 115.96257812 -30.21828125 115.80015625 -31.0390625 115.6328125 C-31.68617188 115.42398438 -32.33328125 115.21515625 -33 115 C-33.33 114.34 -33.66 113.68 -34 113 C-35.98 113.99 -35.98 113.99 -38 115 C-38.66 114.01 -39.32 113.02 -40 112 C-43.08365871 111.7497843 -43.08365871 111.7497843 -46 112 C-45.01 111.505 -45.01 111.505 -44 111 C-44 110.34 -44 109.68 -44 109 C-45.32 109 -46.64 109 -48 109 C-48.99 109 -49.98 109 -51 109 C-51.226875 108.401875 -51.45375 107.80375 -51.6875 107.1875 C-53.34268253 104.42886244 -55.20184321 103.50669981 -58 102 C-58.33 101.67 -58.66 101.34 -59 101 C-59.99 101.495 -59.99 101.495 -61 102 C-61.33 101.01 -61.66 100.02 -62 99 C-63.65 99.99 -65.3 100.98 -67 102 C-67.6875 99.6875 -67.6875 99.6875 -68 97 C-66.625 95.3125 -66.625 95.3125 -65 94 C-63.88214887 91.88214887 -63.88214887 91.88214887 -63 89 C-62.505 88.01 -62.505 88.01 -62 87 C-62.66 86.67 -63.32 86.34 -64 86 C-59.375 80.125 -59.375 80.125 -56 79 C-54.89930376 77.15873681 -54.89930376 77.15873681 -54 75 C-51.17387902 70.01214437 -48.23659308 65.87345653 -44 62 C-45.32 62 -46.64 62 -48 62 C-48 61.01 -48 60.02 -48 59 C-46.86047718 57.92953916 -45.71850643 56.86159991 -44.56640625 55.8046875 C-41.64319673 52.43680022 -39.73803877 48.36840303 -37.6484375 44.44921875 C-36.83246094 43.23685547 -36.83246094 43.23685547 -36 42 C-35.01 42 -34.02 42 -33 42 C-32.505 41.01 -32.505 41.01 -32 40 C-31.01 40.495 -31.01 40.495 -30 41 C-29.54625 39.865625 -29.0925 38.73125 -28.625 37.5625 C-27 34 -27 34 -25 33 C-25 32.34 -25 31.68 -25 31 C-24.01 31 -23.02 31 -22 31 C-21.86271484 30.11054688 -21.86271484 30.11054688 -21.72265625 29.203125 C-20.82767887 26.47465343 -19.66093699 25.52874959 -17.4375 23.75 C-16.79683594 23.22921875 -16.15617187 22.7084375 -15.49609375 22.171875 C-15.00238281 21.78515625 -14.50867188 21.3984375 -14 21 C-14.185625 20.236875 -14.37125 19.47375 -14.5625 18.6875 C-15 16 -15 16 -14 13 C-13.34 13 -12.68 13 -12 13 C-11.7421875 12.40574219 -11.484375 11.81148438 -11.21875 11.19921875 C-9.90163023 8.822493 -8.58656066 7.53214427 -6.5 5.8125 C-5.8915625 5.30332031 -5.283125 4.79414063 -4.65625 4.26953125 C-3 3 -3 3 -1 2 C-0.67 1.34 -0.34 0.68 0 0 Z M36 86 C36.33 86.66 36.66 87.32 37 88 C37.33 87.34 37.66 86.68 38 86 C37.34 86 36.68 86 36 86 Z M118 100 C119 103 119 103 119 103 Z M81 119 C81.66 119.99 82.32 120.98 83 122 C82.01 121.67 81.02 121.34 80 121 C80.33 120.34 80.66 119.68 81 119 Z " fill="#0060A2" transform="translate(348,351)"/>
<path d="M0 0 C1.47647255 -0.00422974 1.47647255 -0.00422974 2.98277283 -0.00854492 C4.06647659 -0.00652069 5.15018036 -0.00449646 6.26672363 -0.00241089 C7.40497086 -0.00416321 8.54321808 -0.00591553 9.71595764 -0.00772095 C13.49396267 -0.01213705 17.27192122 -0.0092023 21.04992676 -0.00582886 C23.66544606 -0.00650197 26.28096529 -0.00747205 28.89648438 -0.00872803 C34.3843232 -0.01054862 39.87214857 -0.0081463 45.35998535 -0.00338745 C51.70951843 0.00205496 58.0590194 0.00029223 64.40855169 -0.00521386 C70.51037364 -0.01029386 76.61218133 -0.00976223 82.71400452 -0.00683212 C85.31364445 -0.0061631 87.91328521 -0.00699042 90.51292419 -0.00931168 C94.14051512 -0.01183964 97.76804363 -0.00799552 101.39562988 -0.00241089 C102.47933365 -0.00443512 103.56303741 -0.00645935 104.67958069 -0.00854492 C105.66389572 -0.0057251 106.64821075 -0.00290527 107.66235352 0 C108.94988903 0.00056554 108.94988903 0.00056554 110.26343536 0.0011425 C112.33117676 0.12698364 112.33117676 0.12698364 114.33117676 1.12698364 C114.33117676 1.78698364 114.33117676 2.44698364 114.33117676 3.12698364 C114.92930176 2.90010864 115.52742676 2.67323364 116.14367676 2.43948364 C116.86555176 2.33635864 117.58742676 2.23323364 118.33117676 2.12698364 C120.08117676 3.56448364 120.08117676 3.56448364 121.33117676 5.12698364 C121.99117676 4.46698364 122.65117676 3.80698364 123.33117676 3.12698364 C123.66117676 3.78698364 123.99117676 4.44698364 124.33117676 5.12698364 C125.75430176 5.09604614 125.75430176 5.09604614 127.20617676 5.06448364 C130.33117676 5.12698364 130.33117676 5.12698364 132.33117676 6.12698364 C132.66117676 5.46698364 132.99117676 4.80698364 133.33117676 4.12698364 C133.88805176 4.31260864 134.44492676 4.49823364 135.01867676 4.68948364 C137.33977794 5.29342822 137.33977794 5.29342822 139.64367676 4.56448364 C142.33117676 4.12698364 142.33117676 4.12698364 145.76867676 5.12698364 C149.56847897 6.19359479 151.53177474 5.87034491 155.33117676 5.12698364 C158.01867676 5.56448364 158.01867676 5.56448364 160.33117676 6.12698364 C163.27866891 6.39450968 163.27866891 6.39450968 165.20617676 4.93948364 C165.90742676 4.67135864 166.60867676 4.40323364 167.33117676 4.12698364 C170.08117676 5.50198364 170.08117676 5.50198364 172.33117676 7.12698364 C172.66117676 6.46698364 172.99117676 5.80698364 173.33117676 5.12698364 C174.05305176 5.31260864 174.77492676 5.49823364 175.51867676 5.68948364 C178.48803099 6.15138319 180.43453674 5.81302996 183.33117676 5.12698364 C186.41206303 5.12698364 189.49252702 5.14471784 192.57336426 5.16213989 C195.11763433 5.17146444 197.66190521 5.18056978 200.20617676 5.18948364 C201.48621582 5.19786255 202.76625488 5.20624146 204.08508301 5.21487427 C205.31871582 5.21809692 206.55234863 5.22131958 207.82336426 5.22463989 C208.95113281 5.22987671 210.07890137 5.23511353 211.24084473 5.24050903 C214.06545781 5.136745 216.57685593 4.71598269 219.33117676 4.12698364 C223.54985798 4.78615258 227.38599477 6.55547826 231.01867676 8.75198364 C233.82950324 10.42328587 234.61679752 10.27352297 237.76867676 9.62698364 C240.67211112 9.06045986 243.37733042 9.12698364 246.33117676 9.12698364 C246.66117676 9.45698364 246.99117676 9.78698364 247.33117676 10.12698364 C248.38305176 9.77635864 249.43492676 9.42573364 250.51867676 9.06448364 C254.24332142 8.14858741 255.7444627 8.25453968 259.33117676 9.12698364 C261.4293889 8.72759597 261.4293889 8.72759597 263.33117676 8.12698364 C266.17084907 8.12698364 268.56853387 8.52965545 271.33117676 9.12698364 C271.66117676 8.46698364 271.99117676 7.80698364 272.33117676 7.12698364 C274.60210565 7.12698364 276.87305295 7.1522603 279.14367676 7.18948364 C281.74918305 7.19902762 283.92716539 7.02180918 286.51867676 6.56448364 C289.33117676 6.12698364 289.33117676 6.12698364 292.08117676 6.68948364 C292.82367676 6.83385864 293.56617676 6.97823364 294.33117676 7.12698364 C294.99117676 6.46698364 295.65117676 5.80698364 296.33117676 5.12698364 C298.40661621 4.915802 298.40661621 4.915802 300.94445801 4.96682739 C302.32214355 4.98326294 302.32214355 4.98326294 303.72766113 5.00003052 C304.68994629 5.02130005 305.65223145 5.04256958 306.64367676 5.06448364 C308.53552392 5.09911407 310.42746067 5.12920653 312.31945801 5.15432739 C313.16032959 5.1722937 314.00120117 5.19026001 314.86755371 5.20877075 C317.45672317 5.12281577 319.80118796 4.66385267 322.33117676 4.12698364 C324.39272063 4.0608237 326.45620044 4.0414249 328.51867676 4.06448364 C329.56410645 4.07350708 330.60953613 4.08253052 331.68664551 4.09182739 C332.55934082 4.10342896 333.43203613 4.11503052 334.33117676 4.12698364 C334.99117676 4.12698364 335.65117676 4.12698364 336.33117676 4.12698364 C336.99117676 4.33323364 337.65117676 4.53948364 338.33117676 4.75198364 C338.99117676 4.87573364 339.65117676 4.99948364 340.33117676 5.12698364 C340.99117676 4.46698364 341.65117676 3.80698364 342.33117676 3.12698364 C344.86560059 2.915802 344.86560059 2.915802 348.03820801 2.96682739 C349.18225098 2.97778442 350.32629395 2.98874146 351.50500488 3.00003052 C353.30614746 3.03193481 353.30614746 3.03193481 355.14367676 3.06448364 C357.50429104 3.09902922 359.8649753 3.12914271 362.22570801 3.15432739 C363.27605225 3.1722937 364.32639648 3.19026001 365.40856934 3.20877075 C368.17532489 3.13134505 370.64248007 2.75941766 373.33117676 2.12698364 C373.33117676 2.78698364 373.33117676 3.44698364 373.33117676 4.12698364 C374.01180176 3.77635864 374.69242676 3.42573364 375.39367676 3.06448364 C379.03933994 1.90097412 381.59953288 2.49330827 385.33117676 3.12698364 C385.99117676 2.79698364 386.65117676 2.46698364 387.33117676 2.12698364 C388.32117676 2.78698364 389.31117676 3.44698364 390.33117676 4.12698364 C389.33117676 7.12698364 389.33117676 7.12698364 387.24133301 8.37307739 C371.99000061 14.75395034 356.00199792 16.81078737 339.64367676 18.18948364 C337.79038114 18.35368092 335.93711024 18.51815736 334.0838623 18.68289185 C319.95075655 19.91545504 305.80100998 20.90720057 291.64367676 21.81448364 C290.69658844 21.87524078 289.74950012 21.93599792 288.77371216 21.99859619 C266.60135704 23.40252103 244.45916222 24.28475431 222.24133301 24.33010864 C220.09874453 24.33709182 217.95615623 24.34413273 215.81356812 24.35122681 C209.006935 24.37048749 202.20033416 24.37540285 195.39367676 24.37698364 C193.65366331 24.37786736 193.65366331 24.37786736 191.87849808 24.37876892 C156.96862755 24.39128006 122.21386537 24.07416977 87.39147949 21.36453247 C84.19413143 21.11634582 80.99615118 20.87789922 77.79797363 20.64065552 C71.36958115 20.1596256 64.9435136 19.65333008 58.51867676 19.12698364 C57.57152802 19.04943848 56.62437927 18.97189331 55.64852905 18.89199829 C45.91375348 18.07810387 36.22948593 17.06817989 26.56164551 15.65823364 C25.76356979 15.54390991 24.96549408 15.42958618 24.14323425 15.3117981 C14.25768342 13.79714858 4.04815748 11.11732616 -4.66882324 6.12698364 C-6.04382324 3.43948364 -6.04382324 3.43948364 -6.66882324 1.12698364 C-4.24354837 -0.0856538 -2.71022191 0.00119044 0 0 Z " fill="#035582" transform="translate(62.6688232421875,487.8730163574219)"/>
<path d="M0 0 C5.37171715 4.48897862 10.38732333 9.22690994 15.33984375 14.171875 C16.49027916 15.31731781 16.49027916 15.31731781 17.66395569 16.48590088 C19.27117373 18.08808634 20.87706651 19.69160223 22.48168945 21.29638672 C24.94918514 23.76167468 27.42459478 26.2188323 29.90039062 28.67578125 C31.4640299 30.23649017 33.02719812 31.7976712 34.58984375 33.359375 C35.33346664 34.09581238 36.07708954 34.83224976 36.84324646 35.59100342 C37.52137894 36.27221252 38.19951141 36.95342163 38.89819336 37.65527344 C39.49885117 38.25450623 40.09950897 38.85373901 40.71836853 39.47113037 C42 41 42 41 42 43 C42.66 43 43.32 43 44 43 C45.55078125 44.57421875 45.55078125 44.57421875 47.3125 46.6875 C49.43644684 49.19802294 51.55501344 51.60823421 53.9375 53.875 C56 56 56 56 56 58 C56.66 58 57.32 58 58 58 C58 58.66 58 59.32 58 60 C58.99 60.33 59.98 60.66 61 61 C61 61.66 61 62.32 61 63 C61.66 63 62.32 63 63 63 C64.25302637 64.45087263 65.50030698 65.90802809 66.69140625 67.41015625 C68.08784327 69.17378378 68.08784327 69.17378378 70.3125 71.1875 C72 73 72 73 72 76 C72.598125 76.226875 73.19625 76.45375 73.8125 76.6875 C76.61183411 78.36710046 77.58100061 80.09105125 79 83 C79 86 79 86 78.375 88 C77.70113419 90.3084494 77.70113419 90.3084494 80 93 C79.0925 93.4125 78.185 93.825 77.25 94.25 C74.17495636 95.90579273 72.31626463 97.43556415 70 100 C68.85397729 101.14602271 67.69472109 102.279839 66.5 103.375 C64.87928772 105.13077164 63.97312665 106.82917901 63 109 C62.34 109 61.68 109 61 109 C60.773125 109.7425 60.54625 110.485 60.3125 111.25 C58.7410439 114.5425747 57.00004284 115.97497109 54 118 C53.34 118 52.68 118 52 118 C51.0409375 119.4540625 51.0409375 119.4540625 50.0625 120.9375 C48 124 48 124 45 125 C44.01 125 43.02 125 42 125 C41.01 125.66 40.02 126.32 39 127 C37.68 125.68 36.36 124.36 35 123 C36.10868317 125.21736634 37.49440461 127.03617993 39 129 C37 131 35 133 33 135 C31.02 133.68 29.04 132.36 27 131 C28.98 133.475 28.98 133.475 31 136 C25.71428571 142.42857143 25.71428571 142.42857143 23 145 C21.68 144.34 20.36 143.68 19 143 C19.66 143.99 20.32 144.98 21 146 C19.02 146.99 19.02 146.99 17 148 C17.33 148.99 17.66 149.98 18 151 C14.25 154 14.25 154 12 154 C11.99668985 153.40807484 11.99337971 152.81614967 11.98996925 152.20628738 C11.90849899 137.75645437 11.81632946 123.30671828 11.71247292 108.85702896 C11.66250115 101.86906336 11.61605747 94.88110859 11.578125 87.89306641 C11.54147544 81.1432395 11.49472208 74.39354146 11.44193649 67.64382172 C11.42347199 65.07479771 11.40833507 62.50574747 11.39665604 59.93668365 C11.37965716 56.32517551 11.35058987 52.71394374 11.31884766 49.10253906 C11.31668747 48.05164597 11.31452728 47.00075287 11.31230164 45.91801453 C11.14764027 31.15397312 8.1731531 17.46752976 1.20703125 4.43359375 C0 2 0 2 0 0 Z M75 90 C75 90.66 75 91.32 75 92 C75.66 91.67 76.32 91.34 77 91 C76.34 90.67 75.68 90.34 75 90 Z " fill="#0061A3" transform="translate(406,229)"/>
<path d="M0 0 C8.36893865 6.24505674 16.17128052 14.94087284 18.38671875 25.421875 C18.65263252 28.64768407 18.66366218 31.87372729 18.69921875 35.109375 C18.74272461 36.40004883 18.74272461 36.40004883 18.78710938 37.71679688 C18.89285585 48.51107146 13.91988772 56.68598217 6.57421875 64.30078125 C-2.81325776 73.06368775 -12.19734543 75.86757339 -24.79296875 75.625 C-36.63414232 74.99540795 -45.30880579 69.10902232 -53.48828125 60.734375 C-61.49258572 50.80132246 -62.72831586 39.63598973 -61.61328125 27.421875 C-60.31259458 17.55034775 -53.91323539 9.21580481 -46.80078125 2.484375 C-32.48651587 -6.77779671 -15.07006559 -9.10060762 0 0 Z " fill="#FDFDFE" transform="translate(156.61328125,102.578125)"/>
<path d="M0 0 C0.763125 0.495 1.52625 0.99 2.3125 1.5 C4.92363751 3.24368308 4.92363751 3.24368308 8 3 C10.62113708 3 12.50935112 3.31292445 15 4 C15 4.66 15 5.32 15 6 C16.32 4.68 17.64 3.36 19 2 C19.99 2.99 19.99 2.99 21 4 C21.4125 3.484375 21.825 2.96875 22.25 2.4375 C22.8275 1.963125 23.405 1.48875 24 1 C26 1.3125 26 1.3125 28 2 C28.99 2 29.98 2 31 2 C30.67 2.99 30.34 3.98 30 5 C30.556875 4.46375 31.11375 3.9275 31.6875 3.375 C32.8321875 2.694375 32.8321875 2.694375 34 2 C35.68577711 2.61674772 37.35448038 3.28272222 39 4 C39.99 3.34 40.98 2.68 42 2 C42.99 3.485 42.99 3.485 44 5 C45.32 3.68 46.64 2.36 48 1 C50.95012857 2.36970255 53.5652222 3.82609125 56 6 C56 6.99 56 7.98 56 9 C56.556875 9.226875 57.11375 9.45375 57.6875 9.6875 C60.67204749 11.38143236 62.62654045 13.51614698 65 16 C65.61875 16.598125 66.2375 17.19625 66.875 17.8125 C67.514375 18.43125 68.15375 19.05 68.8125 19.6875 C69.41707031 20.26886719 70.02164063 20.85023438 70.64453125 21.44921875 C72 23 72 23 72 25 C72.66 25.33 73.32 25.66 74 26 C71.125 26.625 71.125 26.625 68 27 C67.01 26.01 67.01 26.01 66 25 C66 25.66 66 26.32 66 27 C65.34 27 64.68 27 64 27 C63.01 26.01 63.01 26.01 62 25 C60.32706064 25.30027117 58.66014616 25.63557767 57 26 C55.515 25.505 55.515 25.505 54 25 C52.32903337 25.31106174 50.6627332 25.64756957 49 26 C47.02734132 26.07866949 45.05232543 26.10784385 43.078125 26.09765625 C41.97082031 26.09443359 40.86351563 26.09121094 39.72265625 26.08789062 C38.57667969 26.07951172 37.43070312 26.07113281 36.25 26.0625 C34.50783203 26.05573242 34.50783203 26.05573242 32.73046875 26.04882812 C29.82026432 26.03691501 26.91015881 26.01982813 24 26 C23.67 26 23.34 26 23 26 C19.33333333 26 15.66666667 26 12 26 C11.505 25.01 11.505 25.01 11 24 C9.64664105 24.97272675 8.31337396 25.9739266 7 27 C7 27.33 7 27.66 7 28 C-11.48 28 -29.96 28 -49 28 C-49.33 28.66 -49.66 29.32 -50 30 C-51.45865479 27.89605554 -52.91693566 25.7918536 -54.375 23.6875 C-54.7875 23.09259766 -55.2 22.49769531 -55.625 21.88476562 C-61.01727293 14.10075874 -61.01727293 14.10075874 -60.625 11.8125 C-60.41875 11.214375 -60.2125 10.61625 -60 10 C-59.24074219 10.02320313 -58.48148438 10.04640625 -57.69921875 10.0703125 C-56.20841797 10.09738281 -56.20841797 10.09738281 -54.6875 10.125 C-53.20830078 10.15980469 -53.20830078 10.15980469 -51.69921875 10.1953125 C-48.77593473 10.20682639 -48.77593473 10.20682639 -46 8 C-45.34 8.66 -44.68 9.32 -44 10 C-42.68 9.01 -41.36 8.02 -40 7 C-39.62875 7.495 -39.2575 7.99 -38.875 8.5 C-36.1984132 10.64126944 -34.33938377 10.34785248 -31 10 C-30.01 9.34 -29.02 8.68 -28 8 C-27.34 8.66 -26.68 9.32 -26 10 C-24.68 8.35 -23.36 6.7 -22 5 C-22.66 4.67 -23.32 4.34 -24 4 C-20.31027982 1.69392489 -16.2966789 1.03317899 -12 1 C-9.98504093 1.61998741 -7.9812585 2.27954236 -6 3 C-2.94398022 2.66044225 -2.2166622 2.2166622 0 0 Z " fill="#0061A3" transform="translate(80,442)"/>
<path d="M0 0 C6.14624045 5.09235835 11.7936747 10.61023792 17.4375 16.25 C18.35982422 17.16007812 19.28214844 18.07015625 20.23242188 19.0078125 C21.10318359 19.87664062 21.97394531 20.74546875 22.87109375 21.640625 C23.66443115 22.42985352 24.45776855 23.21908203 25.27514648 24.03222656 C27 26 27 26 27 28 C27.66 28 28.32 28 29 28 C29 28.66 29 29.32 29 30 C29.66 30 30.32 30 31 30 C31 30.66 31 31.32 31 32 C32.32 32.66 33.64 33.32 35 34 C35 34.66 35 35.32 35 36 C35.66 36 36.32 36 37 36 C37 36.66 37 37.32 37 38 C37.66 38.33 38.32 38.66 39 39 C40.68662458 40.64646685 42.35511706 42.31183067 44 44 C43.67 44.99 43.34 45.98 43 47 C42.34 47 41.68 47 41 47 C41.99 48.98 41.99 48.98 43 51 C38.375 54 38.375 54 35 54 C34.67 53.34 34.34 52.68 34 52 C34.66 52 35.32 52 36 52 C35.67 51.34 35.34 50.68 35 50 C34.34 50.99 33.68 51.98 33 53 C32.34 53 31.68 53 31 53 C31.99 54.98 32.98 56.96 34 59 C34.99 58.01 34.99 58.01 36 57 C36.495 59.97 36.495 59.97 37 63 C35.68 63 34.36 63 33 63 C31.95107762 61.36368108 30.95093297 59.69514137 30 58 C28.515 57.505 28.515 57.505 27 57 C26.01 57.99 26.01 57.99 25 59 C25 58.34 25 57.68 25 57 C24.34 56.67 23.68 56.34 23 56 C23.495 55.01 23.495 55.01 24 54 C22.68 53.34 21.36 52.68 20 52 C20.99 54.97 20.99 54.97 22 58 C18.71023192 59.09658936 17.28696233 58.79953138 14 58 C14.66 57.01 15.32 56.02 16 55 C15.34 55 14.68 55 14 55 C12.23839202 57.86449609 12.23839202 57.86449609 12.4375 61.125 C12.623125 61.74375 12.80875 62.3625 13 63 C12.67 63.66 12.34 64.32 12 65 C11.34 64.01 10.68 63.02 10 62 C9.01 62 8.02 62 7 62 C6.505 60.02 6.505 60.02 6 58 C2.94874415 59.66009281 2.94874415 59.66009281 2.0625 62 C0.75812758 64.45528927 -0.46627297 64.98650919 -3 66 C-3.33 65.34 -3.66 64.68 -4 64 C-5.23396041 65.7142289 -5.23396041 65.7142289 -6 68 C-5.21297649 70.7193293 -5.21297649 70.7193293 -4 73 C-4.66 73 -5.32 73 -6 73 C-6.33 73.66 -6.66 74.32 -7 75 C-7.99 75 -8.98 75 -10 75 C-10 74.34 -10 73.68 -10 73 C-12.12498069 74.62280307 -12.12498069 74.62280307 -14 77 C-14.33448259 80.167832 -14.33448259 80.167832 -14 83 C-15.98 83.99 -15.98 83.99 -18 85 C-17.67 85.66 -17.34 86.32 -17 87 C-25.12628256 87.46882399 -25.12628256 87.46882399 -28.5625 85.625 C-30 84 -30 84 -30 82 C-30.66 82 -31.32 82 -32 82 C-32 81.34 -32 80.68 -32 80 C-32.556875 79.773125 -33.11375 79.54625 -33.6875 79.3125 C-37.68438886 77.04399551 -40.53966649 74.38100054 -42 70 C-42.66 69.67 -43.32 69.34 -44 69 C-46 68 -46 68 -47 65 C-48.32407669 64.31513275 -49.65909241 63.65129797 -51 63 C-53.25 61 -53.25 61 -55 59 C-55 58.34 -55 57.68 -55 57 C-54.30777344 57.2165625 -53.61554688 57.433125 -52.90234375 57.65625 C-40.74166155 61.1169975 -28.48572746 61.95556238 -17 56 C-7.31493369 50.20610192 -0.55246642 41.65739926 3 31 C3.25351361 27.77538372 3.23132244 24.54605184 3.25 21.3125 C3.270625 20.43916016 3.29125 19.56582031 3.3125 18.66601562 C3.34812183 12.70381188 2.29909532 8.48757752 0 3 C0 2.01 0 1.02 0 0 Z M37 57 C37.99 58.485 37.99 58.485 39 60 C38.34 60 37.68 60 37 60 C37 59.01 37 58.02 37 57 Z " fill="#025F99" transform="translate(171,117)"/>
<path d="M0 0 C0.33 0 0.66 0 1 0 C1 69.3 1 138.6 1 210 C0.67 210 0.34 210 0 210 C-0.13207774 193.01994452 -0.26252199 176.03987731 -0.39115143 159.05979538 C-0.45680993 150.39757047 -0.52325364 141.73535238 -0.59087086 133.07314253 C-0.63840495 126.97196534 -0.68445868 120.87077768 -0.7299757 114.76958513 C-0.76351045 110.30306836 -0.79939515 105.83657767 -0.836936 101.37009287 C-0.94411749 88.49517617 -1.04574064 75.62308324 -0.890625 62.74804688 C-0.88188103 61.86909885 -0.87313705 60.99015083 -0.86412811 60.08456802 C-0.82564842 56.25500633 -0.77100096 52.42783515 -0.6739502 48.5993042 C-0.65844116 47.34998108 -0.64293213 46.10065796 -0.62695312 44.81347656 C-0.60282349 43.77016174 -0.57869385 42.72684692 -0.55383301 41.6519165 C-1.11971428 38.28844521 -2.50454165 37.22399847 -5 35 C-5 34.34 -5 33.68 -5 33 C-5.556875 32.773125 -6.11375 32.54625 -6.6875 32.3125 C-9.65253447 30.6296426 -11.65353689 28.46378626 -14 26 C-14.763125 25.319375 -15.52625 24.63875 -16.3125 23.9375 C-18 22 -18 22 -18 18 C-16.5 16.25 -16.5 16.25 -15 15 C-15.66 15 -16.32 15 -17 15 C-16.67 12.69 -16.34 10.38 -16 8 C-15.01 8.33 -14.02 8.66 -13 9 C-13.33 10.65 -13.66 12.3 -14 14 C-10.72226496 13.24849977 -10.72226496 13.24849977 -9 10 C-6.875 8.8125 -6.875 8.8125 -5 8 C-4.67 8.33 -4.34 8.66 -4 9 C-3.34 9 -2.68 9 -2 9 C-1.34 6.03 -0.68 3.06 0 0 Z " fill="#016CAD" transform="translate(209,205)"/>
<path d="M0 0 C3.28674376 3.28674376 6.04776903 6.18040245 8.8125 9.8125 C9.41707031 10.60269531 10.02164062 11.39289063 10.64453125 12.20703125 C11.09183594 12.79871094 11.53914063 13.39039063 12 14 C10.42351454 17.68708075 8.12557062 20.29873145 5.4375 23.25 C4.63183594 24.14203125 3.82617188 25.0340625 2.99609375 25.953125 C2.33738281 26.62859375 1.67867188 27.3040625 1 28 C0.67 28 0.34 28 0 28 C0 18.76 0 9.52 0 0 Z " fill="#04527A" transform="translate(273,206)"/>
<path d="M0 0 C5.35152885 0.32433508 8.28280043 3.49704824 12 7 C10.140625 7.62109375 10.140625 7.62109375 8 8 C5.75 6.0625 5.75 6.0625 4 4 C3.67 4.99 3.34 5.98 3 7 C1.5 5.75 1.5 5.75 0 4 C0 2.68 0 1.36 0 0 Z " fill="#02588A" transform="translate(327,257)"/>
<path d="M0 0 C3.36720387 1.39332574 4.9859524 2.9789286 7 6 C4.625 5.8125 4.625 5.8125 2 5 C0.6875 2.4375 0.6875 2.4375 0 0 Z " fill="#0E6394" transform="translate(332,259)"/>
<path d="M0 0 C0.66 0.66 1.32 1.32 2 2 C4.32275177 2.40047444 6.65739357 2.7397104 9 3 C9 3.33 9 3.66 9 4 C5.7 4 2.4 4 -1 4 C-1 1 -1 1 0 0 Z " fill="#025C90" transform="translate(393,502)"/>
</svg>
