<?xml version="1.0" encoding="UTF-8"?>
<svg version="1.1" xmlns="http://www.w3.org/2000/svg" width="480" height="480">
<path d="M0 0 C0.65563934 -0.00350607 1.31127869 -0.00701215 1.98678589 -0.01062447 C4.18115235 -0.01991961 6.37525231 -0.01502012 8.56962967 -0.01015663 C10.15985621 -0.01389385 11.75008091 -0.01849566 13.34030271 -0.02388728 C17.70846904 -0.03612392 22.07655882 -0.03585602 26.44473839 -0.03349853 C31.15653667 -0.03309053 35.86831036 -0.04412793 40.5800972 -0.05361366 C49.8109744 -0.07022846 59.04182606 -0.07572343 68.27271697 -0.07683842 C75.77630633 -0.0777887 83.27988727 -0.08189799 90.78347397 -0.08823967 C112.05765869 -0.10585366 133.33182323 -0.11507833 154.60601529 -0.11357872 C156.32645625 -0.11345885 156.32645625 -0.11345885 158.08165359 -0.11333656 C159.23001478 -0.1132548 160.37837597 -0.11317304 161.56153598 -0.1130888 C180.17156333 -0.11227593 198.78150974 -0.13141338 217.39151368 -0.1596133 C236.50026738 -0.18834047 255.60898161 -0.20215367 274.71775746 -0.20042574 C285.44580837 -0.19976177 296.17377442 -0.20525736 306.90180588 -0.22678185 C316.03622356 -0.24499145 325.17051794 -0.24934279 334.30494592 -0.235763 C338.96442591 -0.22923217 343.62366933 -0.22912033 348.28312683 -0.2464695 C352.55186439 -0.26220019 356.82017779 -0.25933668 361.08890501 -0.24190123 C362.62994508 -0.23883132 364.1710168 -0.24246343 365.71201953 -0.25362138 C377.65290767 -0.33432869 386.83416208 1.47538706 396.21837234 9.19867516 C404.5386664 17.58260435 406.56232045 27.01856409 406.52876663 38.38953209 C406.53329774 39.51466343 406.53782886 40.63979477 406.54249728 41.79902101 C406.55516316 45.57127814 406.55351946 49.34339129 406.55186844 53.11566734 C406.5567656 55.81950996 406.56460097 58.52334246 406.57222366 61.22717857 C406.58882222 67.8110759 406.59433271 74.39493741 406.59544842 80.97885391 C406.59639951 86.33236812 406.60051287 91.68587055 406.60684967 97.03938103 C406.62445957 112.22643933 406.63368903 127.4134694 406.63218872 142.60053799 C406.63210881 143.41892911 406.6320289 144.23732024 406.63194656 145.08051109 C406.6318648 145.89990466 406.63178304 146.71929822 406.6316988 147.56352189 C406.63088615 160.83867892 406.65001922 174.11372241 406.6782233 187.38884661 C406.70697219 201.02834261 406.72076246 214.66778328 406.71903574 228.30731034 C406.7183725 235.96135074 406.72383602 243.61527214 406.74539185 251.2692852 C406.76363016 257.78697517 406.76792939 264.30449221 406.754373 270.82219669 C406.74785622 274.14511088 406.74986468 277.46742374 406.7650795 280.79034996 C406.78053275 284.39955185 406.77122185 288.00788768 406.75581741 291.61707115 C406.76610454 292.65775175 406.77639167 293.69843235 406.78699052 294.77064872 C406.68582047 305.52418384 402.93588276 314.64097803 395.26134109 322.25726891 C388.20772077 327.47761866 381.3783836 330.50382737 372.52268219 330.51453781 C371.86704285 330.51804389 371.2114035 330.52154996 370.5358963 330.52516228 C368.34152984 330.53445742 366.14742988 330.52955793 363.95305252 330.52469444 C362.36282598 330.52843166 360.77260128 330.53303347 359.18237948 330.53842509 C354.81421315 330.55066174 350.44612337 330.55039383 346.0779438 330.54803634 C341.36614552 330.54762834 336.65437183 330.55866574 331.94258499 330.56815147 C322.71170779 330.58476627 313.48085613 330.59026124 304.24996522 330.59137623 C296.74637586 330.59232651 289.24279492 330.5964358 281.73920822 330.60277748 C260.4650235 330.62039147 239.19085896 330.62961615 217.9166669 330.62811653 C216.19622594 330.62799666 216.19622594 330.62799666 214.44102859 330.62787437 C213.29266741 330.62779261 212.14430622 330.62771085 210.96114621 330.62762661 C192.35111886 330.62681375 173.74117245 330.64595119 155.13116851 330.67415111 C136.02241481 330.70287828 116.91370058 330.71669148 97.80492473 330.71496356 C87.07687382 330.71429958 76.34890777 330.71979517 65.62087631 330.74131966 C56.48645863 330.75952927 47.35216425 330.7638806 38.21773627 330.75030081 C33.55825628 330.74376998 28.89901286 330.74365814 24.23955536 330.76100731 C19.9708178 330.77673801 15.7025044 330.77387449 11.43377718 330.75643905 C9.89273711 330.75336913 8.35166539 330.75700125 6.81066266 330.7681592 C-6.21826233 330.85622044 -14.97040365 328.77678217 -24.53944016 319.62836266 C-32.27154646 311.29197096 -34.03894057 303.25953562 -34.00608444 292.12500572 C-34.01061556 290.99987438 -34.01514667 289.87474304 -34.01981509 288.71551681 C-34.03248097 284.94325968 -34.03083727 281.17114652 -34.02918625 277.39887047 C-34.03408341 274.69502785 -34.04191878 271.99119535 -34.04954147 269.28735924 C-34.06614003 262.70346191 -34.07165052 256.1196004 -34.07276623 249.5356839 C-34.07371732 244.18216969 -34.07783068 238.82866727 -34.08416748 233.47515678 C-34.10177738 218.28809848 -34.11100684 203.10106841 -34.10950653 187.91399983 C-34.10942662 187.0956087 -34.10934671 186.27721757 -34.10926437 185.43402672 C-34.10918261 184.61463315 -34.10910085 183.79523959 -34.10901661 182.95101592 C-34.10820396 169.67585889 -34.12733703 156.4008154 -34.15554111 143.12569121 C-34.18429 129.4861952 -34.19808027 115.84675453 -34.19635355 102.20722747 C-34.19569031 94.55318707 -34.20115383 86.89926567 -34.22270966 79.24525261 C-34.24094797 72.72756264 -34.2452472 66.2100456 -34.23169081 59.69234112 C-34.22517403 56.36942694 -34.22718249 53.04711408 -34.24239731 49.72418785 C-34.25785056 46.11498596 -34.24853966 42.50665013 -34.23313522 38.89746666 C-34.24342235 37.85678606 -34.25370948 36.81610547 -34.26430833 35.74388909 C-34.16313828 24.99035397 -30.41320057 15.87355978 -22.73865891 8.25726891 C-15.68503858 3.03691915 -8.85570141 0.01071044 0 0 Z " fill="#E84F4B" transform="translate(53.7386589050293,74.74273109436035)"/>
<path d="M0 0 C2.64 1.65 5.28 3.3 8 5 C8 5.66 8 6.32 8 7 C8.72920654 7.26876953 9.45841309 7.53753906 10.2097168 7.81445312 C14.799484 9.76457208 18.71616321 12.68357754 22.8125 15.5 C24.13797852 16.39138672 24.13797852 16.39138672 25.49023438 17.30078125 C26.32490234 17.87183594 27.15957031 18.44289062 28.01953125 19.03125 C28.78370361 19.55267578 29.54787598 20.07410156 30.33520508 20.61132812 C30.8845874 21.06958984 31.43396973 21.52785156 32 22 C32 22.66 32 23.32 32 24 C32.78375 24.309375 33.5675 24.61875 34.375 24.9375 C37 26 37 26 39 27 C39 27.66 39 28.32 39 29 C39.69480469 29.2475 40.38960937 29.495 41.10546875 29.75 C44.44024329 31.19011856 47.28754515 32.99075038 50.3125 35 C51.91544922 36.051875 51.91544922 36.051875 53.55078125 37.125 C54.35902344 37.74375 55.16726562 38.3625 56 39 C56 39.66 56 40.32 56 41 C56.64195313 41.20753906 57.28390625 41.41507813 57.9453125 41.62890625 C62.27252618 43.57117224 65.98908086 46.23513125 69.875 48.9375 C70.70765381 49.51145508 71.54030762 50.08541016 72.39819336 50.67675781 C78.49459931 54.89962846 84.50800043 59.22874387 90.45458984 63.65991211 C93.60146281 66.02805544 93.60146281 66.02805544 97 68 C97 68.66 97 69.32 97 70 C98.175625 70.4640625 98.175625 70.4640625 99.375 70.9375 C102 72 102 72 104 73 C104 73.66 104 74.32 104 75 C104.69480469 75.2475 105.38960938 75.495 106.10546875 75.75 C109.44024329 77.19011856 112.28754515 78.99075038 115.3125 81 C116.91544922 82.051875 116.91544922 82.051875 118.55078125 83.125 C119.35902344 83.74375 120.16726562 84.3625 121 85 C121 85.66 121 86.32 121 87 C121.64195312 87.20753906 122.28390625 87.41507812 122.9453125 87.62890625 C127.27252047 89.57116967 130.98911237 92.23510185 134.875 94.9375 C135.71272949 95.51508057 136.55045898 96.09266113 137.41357422 96.68774414 C142.710848 100.35760285 147.94064399 104.11018602 153.125 107.9375 C153.73569336 108.38625488 154.34638672 108.83500977 154.97558594 109.29736328 C157.57970002 111.2113943 160.17497456 113.13272218 162.75 115.0859375 C163.925625 115.94058594 163.925625 115.94058594 165.125 116.8125 C165.76695312 117.29332031 166.40890625 117.77414062 167.0703125 118.26953125 C169.05984839 119.25407025 169.05984839 119.25407025 171.35400391 118.22290039 C173.8842985 117.05347378 175.99692214 115.77543391 178.265625 114.1640625 C179.06444092 113.60058105 179.86325684 113.03709961 180.6862793 112.45654297 C181.53230713 111.85213379 182.37833496 111.24772461 183.25 110.625 C184.13534424 109.99867676 185.02068848 109.37235352 185.93286133 108.72705078 C187.75246315 107.43927243 189.5705785 106.14939117 191.38720703 104.85742188 C194.4562161 102.67567818 197.53363786 100.50607506 200.61206055 98.33764648 C202.69593881 96.86905283 204.77789604 95.39777311 206.859375 93.92578125 C209.63804944 91.96116134 212.4194242 90.00045993 215.203125 88.04296875 C222.46478281 82.93322386 229.69206169 77.78240412 236.875 72.5625 C243.07537574 68.05907629 249.34713637 63.67891669 255.6875 59.375 C261.96444834 55.11394577 268.13866566 50.75108974 274.23168945 46.23168945 C281.89363844 40.56602738 289.73602425 35.15683847 297.55273438 29.70800781 C301.25025535 27.12741556 304.93962838 24.53540616 308.625 21.9375 C309.30320801 21.46014404 309.98141602 20.98278809 310.68017578 20.4909668 C314.43861466 17.83745377 318.17101454 15.1520216 321.8828125 12.43359375 C322.69540527 11.84006104 323.50799805 11.24652832 324.34521484 10.63500977 C325.90895096 9.49054544 327.46937003 8.34153025 329.02587891 7.18725586 C329.73405762 6.6691333 330.44223633 6.15101074 331.171875 5.6171875 C331.7915918 5.15940918 332.41130859 4.70163086 333.04980469 4.22998047 C335 3 335 3 340 1 C340 82.51 340 164.02 340 248 C227.8 248 115.6 248 0 248 C0 166.16 0 84.32 0 0 Z " fill="#E0DFDF" transform="translate(70,157)"/>
<path d="M0 0 C127.38 0 254.76 0 386 0 C382.5104979 3.4895021 379.05717426 6.15669324 375 8.875 C373.55671073 9.85461339 372.1140305 10.83512453 370.671875 11.81640625 C369.91068359 12.33348145 369.14949219 12.85055664 368.36523438 13.38330078 C364.30346342 16.15962688 360.27737105 18.98660632 356.25 21.8125 C355.40864502 22.40224609 354.56729004 22.99199219 353.70043945 23.59960938 C351.98387832 24.80297854 350.26748875 26.00659247 348.55126953 27.21044922 C332.4167351 38.52778294 316.24646744 49.79311042 300.06347656 61.04101562 C290.03258861 68.01350222 280.00458593 74.98980758 270 82 C258.04292471 90.37829762 246.05230043 98.70824479 234.06347656 107.04101562 C232.11260318 108.3970709 230.16200008 109.75351511 228.21166992 111.11035156 C226.29420998 112.44280456 224.37512544 113.77292303 222.4543457 115.10058594 C217.68486474 118.40326142 212.95727725 121.74817728 208.28515625 125.1875 C207.37403076 125.84991699 206.46290527 126.51233398 205.52416992 127.19482422 C203.7984044 128.45221084 202.0830524 129.72405616 200.38012695 131.01220703 C194.75940986 135.08036699 194.75940986 135.08036699 191.453125 134.73046875 C190.64359375 134.15941406 189.8340625 133.58835938 189 133 C188.41943848 132.60490234 187.83887695 132.20980469 187.24072266 131.80273438 C185.08386793 130.30827066 182.98013498 128.75391574 180.875 127.1875 C174.53023507 122.53428337 168.13438243 117.98263539 161.625 113.5625 C155.13421187 109.14934895 148.67480629 104.6962363 142.25 100.1875 C135.07293731 95.151544 127.88621291 90.12997009 120.6875 85.125 C119.729646 84.45895752 118.77179199 83.79291504 117.78491211 83.10668945 C114.85677519 81.07088578 111.92842613 79.03538763 109 77 C97.17156229 68.77870475 85.34837497 60.55038677 73.55126953 52.28417969 C63.38536174 45.16382268 53.19154751 38.08358307 43 31 C36.27603343 26.32654136 29.55362991 21.65086104 22.83398438 16.97119141 C19.92814674 14.95002212 17.01888665 12.93384468 14.109375 10.91796875 C12.2603291 9.63293849 10.41136716 8.34778741 8.5625 7.0625 C7.69729736 6.4648584 6.83209473 5.8672168 5.94067383 5.25146484 C5.15716553 4.70570801 4.37365723 4.15995117 3.56640625 3.59765625 C2.87490479 3.11820557 2.18340332 2.63875488 1.47094727 2.14477539 C0.98553467 1.76699951 0.50012207 1.38922363 0 1 C0 0.67 0 0.34 0 0 Z " fill="#F4F4F4" transform="translate(47,75)"/>
<path d="M0 0 C2.96266987 2.96266987 5.65565039 5.66201158 8.26953125 8.85546875 C8.84388916 9.55486572 9.41824707 10.2542627 10.01000977 10.97485352 C10.60483154 11.70502686 11.19965332 12.4352002 11.8125 13.1875 C12.43632568 13.94925537 13.06015137 14.71101074 13.70288086 15.49584961 C17.45994005 20.09031088 21.18876428 24.70625723 24.8828125 29.3515625 C32.21087855 38.51840527 39.65366536 47.59515836 47.09765625 56.66796875 C47.72542969 57.43753906 48.35320312 58.20710938 49 59 C49.74121094 59.88300781 50.48242188 60.76601562 51.24609375 61.67578125 C53 64 53 64 53 66 C53.66 66 54.32 66 55 66 C56.26953125 67.40625 56.26953125 67.40625 57.8125 69.5 C61.3369734 74.16955547 64.98907601 78.71815021 68.6875 83.25 C70.31442892 85.24558684 71.9412009 87.24125872 73.56396484 89.24023438 C74.82861959 90.7899847 76.1102845 92.32582097 77.39453125 93.859375 C79 96 79 96 79 98 C79.66 98 80.32 98 81 98 C82.41015625 99.58203125 82.41015625 99.58203125 84.0625 101.8125 C88.23255121 107.32940005 92.60649697 112.66031686 97 118 C98.60485536 119.95776898 100.20903746 121.9160901 101.8125 123.875 C102.52019531 124.73867188 103.22789062 125.60234375 103.95703125 126.4921875 C104.96830078 127.73355469 104.96830078 127.73355469 106 129 C106.74636719 129.88945312 107.49273437 130.77890625 108.26171875 131.6953125 C110 134 110 134 110 136 C110.66 136 111.32 136 112 136 C113.48925781 137.66333008 113.48925781 137.66333008 115.203125 139.95703125 C115.82638672 140.78154785 116.44964844 141.60606445 117.09179688 142.45556641 C117.72150391 143.29522949 118.35121094 144.13489258 119 145 C120.11668043 146.44381791 121.23636391 147.88531936 122.359375 149.32421875 C122.91197998 150.03545898 123.46458496 150.74669922 124.03393555 151.47949219 C130.22338032 159.44326207 136.43393282 167.38978204 142.67333984 175.31445312 C144.95086206 178.20808827 147.22524007 181.10419323 149.5 184 C150.4166523 185.16667796 151.33331895 186.33334464 152.25 187.5 C154.08333333 189.83333333 155.91666667 192.16666667 157.75 194.5 C158.43074585 195.36637085 158.43074585 195.36637085 159.12524414 196.25024414 C160.04118328 197.41602923 160.95703626 198.58188201 161.87280273 199.74780273 C164.17489603 202.67852097 166.47851078 205.60801911 168.78515625 208.53515625 C173.44015702 214.44464995 178.08123711 220.36491186 182.6875 226.3125 C183.12199463 226.8701001 183.55648926 227.4277002 184.00415039 228.00219727 C187 231.8842553 187 231.8842553 187 233 C125.29 233 63.58 233 0 233 C0 156.11 0 79.22 0 0 Z " fill="#E0E0E0" transform="translate(70,172)"/>
<path d="M0 0 C0.33 0 0.66 0 1 0 C1.0916062 33.33440573 1.16206443 66.66878008 1.20426132 100.00328379 C1.20926399 103.94099148 1.2144413 107.87869893 1.21972656 111.81640625 C1.2207758 112.60031483 1.22182505 113.38422341 1.22290608 114.1918868 C1.24029928 126.87572791 1.27183097 139.55949632 1.30861118 152.24329434 C1.34605085 165.26334097 1.36824224 178.28334959 1.37635398 191.30344784 C1.38183549 199.33403359 1.39913242 207.36441381 1.43166587 215.39493628 C1.45535983 221.55844422 1.45781221 227.72179629 1.45243073 233.88534355 C1.45352999 236.40964585 1.46147092 238.93395603 1.4768219 241.4582119 C1.49678209 244.91007774 1.49191627 248.36107088 1.48101807 251.81295776 C1.49266943 252.80714875 1.5043208 253.80133974 1.51632524 254.82565773 C1.42611378 265.42834456 -2.44944039 274.50675014 -10 282 C-19.04851355 288.69676043 -26.80330953 290.30225613 -37.875 290.125 C-38.94492187 290.11597656 -40.01484375 290.10695313 -41.1171875 290.09765625 C-43.74502439 290.07419342 -46.37239406 290.04136459 -49 290 C-49.43395634 258.62804667 -49.76994256 227.25689076 -49.97024126 195.88264625 C-49.99400312 192.17411926 -50.0185954 188.46559821 -50.04370117 184.75708008 C-50.04868507 184.01881765 -50.05366897 183.28055522 -50.05880389 182.51992121 C-50.14135876 170.58410127 -50.29109125 158.65002972 -50.46590313 146.71524516 C-50.64393264 134.45804713 -50.74918779 122.20176106 -50.7876814 109.94332331 C-50.81368593 102.38514246 -50.89560879 94.83190283 -51.05041287 87.27524474 C-51.16326401 81.46873314 -51.17456655 75.66534669 -51.14904594 69.85795784 C-51.15425435 67.48458783 -51.19181231 65.11102332 -51.26490402 62.73877335 C-51.77605596 45.28625975 -51.77605596 45.28625975 -47.120579 39.77516532 C-42.57973732 35.78496059 -37.56913465 32.85854565 -32.19290507 30.13839471 C-29.44606454 28.71243753 -26.97601502 27.00347298 -24.48828125 25.16796875 C-23.77752441 24.66418701 -23.06676758 24.16040527 -22.33447266 23.64135742 C-8.7900509 13.90478306 -8.7900509 13.90478306 0 0 Z " fill="#CA3737" transform="translate(459,115)"/>
<path d="M0 0 C0.99 1.485 0.99 1.485 2 3 C8.54502584 12.67805461 17.18011644 19.39958427 26.75 25.9375 C27.554375 26.49373047 28.35875 27.04996094 29.1875 27.62304688 C30.00734375 28.18958984 30.8271875 28.75613281 31.671875 29.33984375 C32.46322751 29.91231118 33.25458002 30.48477861 34.06991291 31.07459354 C36.97295504 33.0926951 36.97295504 33.0926951 40.31219006 34.48991299 C44.9740836 36.87232229 49.02093498 39.03855863 50.74047685 44.23976827 C51.96853767 51.35867837 51.62649901 58.59395315 51.47583008 65.78735352 C51.47216111 68.23199771 51.47422538 70.67665623 51.48158264 73.12129211 C51.48453788 78.37506941 51.44780652 83.62695772 51.37449074 88.88015938 C51.26856279 96.47504787 51.23495539 104.06892323 51.21864685 111.66447031 C51.19023646 123.9888861 51.10384004 136.31217952 50.98071289 148.63598633 C50.86127472 160.60305183 50.76931098 172.56981184 50.71411133 184.53735352 C50.71069592 185.27576391 50.70728052 186.0141743 50.70376161 186.77496076 C50.68679538 190.47957281 50.67036736 194.18418701 50.65420687 197.88880265 C50.51957018 228.59333847 50.28974707 259.29651306 50 290 C46.37528143 290.11783281 42.75106597 290.18778808 39.125 290.25 C38.11179688 290.28351563 37.09859375 290.31703125 36.0546875 290.3515625 C24.81921454 290.49560703 17.27100144 287.0880728 9.19921875 279.37109375 C1.59709618 271.17484437 -0.30400454 263.25689109 -0.24050903 252.29397583 C-0.24221788 251.21487501 -0.24392673 250.13577419 -0.24568737 249.02397335 C-0.24898168 245.40800453 -0.23797933 241.79222126 -0.22705078 238.17626953 C-0.22648666 235.58428451 -0.22680325 232.99229917 -0.22793579 230.40031433 C-0.22898356 224.81988733 -0.22271826 219.23950717 -0.21146011 213.65909195 C-0.19519342 205.59079464 -0.18999591 197.52251993 -0.18748413 189.454208 C-0.18310886 176.36333938 -0.16980432 163.2724957 -0.15087891 150.18164062 C-0.13251576 137.46647262 -0.11836138 124.7513114 -0.10986328 112.03613281 C-0.10907511 110.86012757 -0.10907511 110.86012757 -0.10827102 109.66036464 C-0.10566091 105.72717775 -0.1031335 101.79399081 -0.10064721 97.86080384 C-0.07991995 65.24051773 -0.044699 32.62026221 0 0 Z " fill="#CA3737" transform="translate(20,115)"/>
<path d="M0 0 C3.71655106 3.57668086 6.97671197 7.34887411 10.125 11.4375 C11.09626402 12.68626803 12.0676208 13.93496393 13.0390625 15.18359375 C13.53051758 15.81765137 14.02197266 16.45170898 14.52832031 17.10498047 C16.83901995 20.08037041 19.17002229 23.03970025 21.5 26 C22.41677461 27.16658184 23.33344103 28.33324872 24.25 29.5 C24.70375 30.0775 25.1575 30.655 25.625 31.25 C30.66666667 37.66666667 35.70833333 44.08333333 40.75 50.5 C41.20383057 51.07758057 41.65766113 51.65516113 42.12524414 52.25024414 C43.04118328 53.41602923 43.95703626 54.58188201 44.87280273 55.74780273 C47.17489603 58.67852097 49.47851078 61.60801911 51.78515625 64.53515625 C56.44015702 70.44464995 61.08123711 76.36491186 65.6875 82.3125 C66.12199463 82.8701001 66.55648926 83.4277002 67.00415039 84.00219727 C70 87.8842553 70 87.8842553 70 89 C8.29 89 -53.42 89 -117 89 C-115.11756332 85.23512663 -114.50663759 84.32625224 -111.31640625 82.0390625 C-110.56359375 81.4925 -109.81078125 80.9459375 -109.03515625 80.3828125 C-108.21917969 79.80273438 -107.40320313 79.22265625 -106.5625 78.625 C-104.82406086 77.36740573 -103.08578404 76.10958705 -101.34765625 74.8515625 C-100.4570752 74.2112207 -99.56649414 73.57087891 -98.64892578 72.91113281 C-94.57580912 69.97248238 -90.5387947 66.98554453 -86.5 64 C-84.91686337 62.83306642 -83.33352936 61.66640059 -81.75 60.5 C-80.96625 59.9225 -80.1825 59.345 -79.375 58.75 C-34.25 25.5 -34.25 25.5 -31.87060547 23.74682617 C-30.3018386 22.59085017 -28.73315247 21.43476459 -27.16455078 20.27856445 C-22.98403768 17.19738437 -18.80176574 14.11862624 -14.6171875 11.04296875 C-13.73998047 10.39779297 -12.86277344 9.75261719 -11.95898438 9.08789062 C-10.26548349 7.84240585 -8.57149062 6.59758968 -6.87695312 5.35351562 C-6.12091797 4.79728516 -5.36488281 4.24105469 -4.5859375 3.66796875 C-3.9161084 3.17578857 -3.2462793 2.6836084 -2.55615234 2.17651367 C-1.04189394 1.08776212 -1.04189394 1.08776212 0 0 Z " fill="#EEEEEE" transform="translate(187,316)"/>
<path d="M0 0 C1.33855056 0.78281305 2.67073644 1.57651877 4 2.375 C5.11375 3.03628906 5.11375 3.03628906 6.25 3.7109375 C6.8275 4.13632813 7.405 4.56171875 8 5 C8 5.66 8 6.32 8 7 C8.72920654 7.26876953 9.45841309 7.53753906 10.2097168 7.81445312 C14.799484 9.76457208 18.71616321 12.68357754 22.8125 15.5 C24.13797852 16.39138672 24.13797852 16.39138672 25.49023438 17.30078125 C26.32490234 17.87183594 27.15957031 18.44289062 28.01953125 19.03125 C28.78370361 19.55267578 29.54787598 20.07410156 30.33520508 20.61132812 C30.8845874 21.06958984 31.43396973 21.52785156 32 22 C32 22.66 32 23.32 32 24 C32.78375 24.309375 33.5675 24.61875 34.375 24.9375 C37 26 37 26 39 27 C39 27.66 39 28.32 39 29 C39.69480469 29.2475 40.38960937 29.495 41.10546875 29.75 C44.44024329 31.19011856 47.28754515 32.99075038 50.3125 35 C51.91544922 36.051875 51.91544922 36.051875 53.55078125 37.125 C54.35902344 37.74375 55.16726562 38.3625 56 39 C56 39.66 56 40.32 56 41 C56.64195313 41.20753906 57.28390625 41.41507813 57.9453125 41.62890625 C62.27252618 43.57117224 65.98908086 46.23513125 69.875 48.9375 C70.70765381 49.51145508 71.54030762 50.08541016 72.39819336 50.67675781 C78.49459931 54.89962846 84.50800043 59.22874387 90.45458984 63.65991211 C93.60146281 66.02805544 93.60146281 66.02805544 97 68 C97 68.66 97 69.32 97 70 C98.175625 70.4640625 98.175625 70.4640625 99.375 70.9375 C102 72 102 72 104 73 C104 73.66 104 74.32 104 75 C104.69480469 75.2475 105.38960938 75.495 106.10546875 75.75 C109.44024329 77.19011856 112.28754515 78.99075038 115.3125 81 C116.91544922 82.051875 116.91544922 82.051875 118.55078125 83.125 C119.35902344 83.74375 120.16726562 84.3625 121 85 C121 85.66 121 86.32 121 87 C121.64195312 87.20753906 122.28390625 87.41507812 122.9453125 87.62890625 C127.27252047 89.57116967 130.98911237 92.23510185 134.875 94.9375 C135.71272949 95.51508057 136.55045898 96.09266113 137.41357422 96.68774414 C143.33881658 100.79264851 149.17506804 105.0082074 154.96459961 109.30175781 C159.54240891 112.6916025 164.20613199 115.92101161 169 119 C166.78328567 123.37955019 163.99560443 125.76301828 160 128.4375 C158.73711848 129.31082094 157.47546694 130.18592235 156.21484375 131.0625 C155.53663574 131.53171875 154.85842773 132.0009375 154.15966797 132.484375 C150.24331423 135.23281769 146.40710445 138.09000381 142.5625 140.9375 C140.95324049 142.12645841 139.34386598 143.31526119 137.734375 144.50390625 C136.94740234 145.08543457 136.16042969 145.66696289 135.34960938 146.26611328 C131.67626685 148.97684464 127.9949009 151.67659295 124.3125 154.375 C123.67062744 154.84542725 123.02875488 155.31585449 122.36743164 155.80053711 C120.91176235 156.86721753 119.45590536 157.93364181 118 159 C113.125 154.375 113.125 154.375 112 151 C111.34 151 110.68 151 110 151 C108.58984375 149.41796875 108.58984375 149.41796875 106.9375 147.1875 C102.76744879 141.67059995 98.39350303 136.33968314 94 131 C92.39514464 129.04223102 90.79096254 127.0839099 89.1875 125.125 C88.47980469 124.26132812 87.77210938 123.39765625 87.04296875 122.5078125 C86.03169922 121.26644531 86.03169922 121.26644531 85 120 C83.88044922 118.66582031 83.88044922 118.66582031 82.73828125 117.3046875 C81 115 81 115 81 113 C80.34 113 79.68 113 79 113 C77.73046875 111.59375 77.73046875 111.59375 76.1875 109.5 C72.6630266 104.83044453 69.01092399 100.28184979 65.3125 95.75 C63.68557108 93.75441316 62.0587991 91.75874128 60.43603516 89.75976562 C59.17138041 88.2100153 57.8897155 86.67417903 56.60546875 85.140625 C55 83 55 83 55 81 C54.34 81 53.68 81 53 81 C51.58984375 79.41796875 51.58984375 79.41796875 49.9375 77.1875 C47.31131374 73.71467875 44.64138862 70.29996131 41.875 66.9375 C37.59295156 61.72646478 33.33462401 56.49669315 29.08398438 51.26000977 C25.73224078 47.13101509 22.37601958 43.00577988 19.01147461 38.88720703 C17.92385301 37.54986894 16.84128606 36.2084035 15.76391602 34.86279297 C13.17024506 31.62596145 10.54245758 28.46734097 7.73828125 25.41015625 C2.32475649 19.34375684 -0.92095912 15.01065283 -0.6875 6.625 C-0.51394433 4.41160173 -0.30492459 2.19915312 0 0 Z " fill="#DAD8D8" transform="translate(70,157)"/>
</svg>
