<?xml version="1.0" encoding="UTF-8"?>
<svg version="1.1" xmlns="http://www.w3.org/2000/svg" width="100" height="100">
<path d="M0 0 C1.1149585 -0.00430527 1.1149585 -0.00430527 2.25244141 -0.00869751 C3.8225989 -0.01073726 5.39278186 -0.0052135 6.96289062 0.00732422 C9.36646332 0.02338047 11.76835461 0.00747398 14.171875 -0.01171875 C15.69792038 -0.0097363 17.22396471 -0.00589259 18.75 0 C19.46881348 -0.00607269 20.18762695 -0.01214539 20.92822266 -0.0184021 C23.67904974 0.02037743 25.87748134 0.13119393 28.32666016 1.44677734 C29.97559952 4.51655408 29.80214967 7.62483043 29.7734375 11.0234375 C29.77630768 11.76674316 29.77917786 12.51004883 29.78213501 13.27587891 C29.78417476 14.8460364 29.778651 16.41621936 29.76611328 17.98632812 C29.75005703 20.38990082 29.76596352 22.79179211 29.78515625 25.1953125 C29.7831738 26.72135788 29.77933009 28.24740221 29.7734375 29.7734375 C29.78254654 30.85165771 29.78254654 30.85165771 29.7918396 31.95166016 C29.75306007 34.70248724 29.64224357 36.90091884 28.32666016 39.35009766 C25.25688342 40.99903702 22.14860707 40.82558717 18.75 40.796875 C17.6350415 40.80118027 17.6350415 40.80118027 16.49755859 40.80557251 C14.9274011 40.80761226 13.35721814 40.8020885 11.78710938 40.78955078 C9.38353668 40.77349453 6.98164539 40.78940102 4.578125 40.80859375 C3.05207962 40.8066113 1.52603529 40.80276759 0 40.796875 C-0.71881348 40.80294769 -1.43762695 40.80902039 -2.17822266 40.8152771 C-4.92904974 40.77649757 -7.12748134 40.66568107 -9.57666016 39.35009766 C-11.22559952 36.28032092 -11.05214967 33.17204457 -11.0234375 29.7734375 C-11.02630768 29.03013184 -11.02917786 28.28682617 -11.03213501 27.52099609 C-11.03417476 25.9508386 -11.028651 24.38065564 -11.01611328 22.81054688 C-11.00005703 20.40697418 -11.01596352 18.00508289 -11.03515625 15.6015625 C-11.0331738 14.07551712 -11.02933009 12.54947279 -11.0234375 11.0234375 C-11.03254654 9.94521729 -11.03254654 9.94521729 -11.0418396 8.84521484 C-11.00306007 6.09438776 -10.89224357 3.89595616 -9.57666016 1.44677734 C-6.50688342 -0.20216202 -3.39860707 -0.02871217 0 0 Z M-6.625 6.3984375 C-6.93698539 9.27931673 -6.93698539 9.27931673 -6.890625 12.6484375 C-6.89320312 13.89625 -6.89578125 15.1440625 -6.8984375 16.4296875 C-6.89070313 17.739375 -6.88296875 19.0490625 -6.875 20.3984375 C-6.88273437 21.708125 -6.89046875 23.0178125 -6.8984375 24.3671875 C-6.89585938 25.615 -6.89328125 26.8628125 -6.890625 28.1484375 C-6.88836914 29.29828125 -6.88611328 30.448125 -6.88378906 31.6328125 C-6.90843676 34.54043582 -6.90843676 34.54043582 -4.625 36.3984375 C-1.74412077 36.71042289 -1.74412077 36.71042289 1.625 36.6640625 C2.8728125 36.66664062 4.120625 36.66921875 5.40625 36.671875 C6.7159375 36.66414063 8.025625 36.65640625 9.375 36.6484375 C11.33953125 36.66003906 11.33953125 36.66003906 13.34375 36.671875 C15.21546875 36.66800781 15.21546875 36.66800781 17.125 36.6640625 C18.84976563 36.66067871 18.84976563 36.66067871 20.609375 36.65722656 C23.51699832 36.68187426 23.51699832 36.68187426 25.375 34.3984375 C25.68698539 31.51755827 25.68698539 31.51755827 25.640625 28.1484375 C25.64320312 26.900625 25.64578125 25.6528125 25.6484375 24.3671875 C25.63683594 22.40265625 25.63683594 22.40265625 25.625 20.3984375 C25.63273437 19.08875 25.64046875 17.7790625 25.6484375 16.4296875 C25.64585938 15.181875 25.64328125 13.9340625 25.640625 12.6484375 C25.63836914 11.49859375 25.63611328 10.34875 25.63378906 9.1640625 C25.65843676 6.25643918 25.65843676 6.25643918 23.375 4.3984375 C20.49412077 4.08645211 20.49412077 4.08645211 17.125 4.1328125 C15.8771875 4.13023438 14.629375 4.12765625 13.34375 4.125 C12.0340625 4.13273437 10.724375 4.14046875 9.375 4.1484375 C7.41046875 4.13683594 7.41046875 4.13683594 5.40625 4.125 C3.53453125 4.12886719 3.53453125 4.12886719 1.625 4.1328125 C0.47515625 4.13506836 -0.6746875 4.13732422 -1.859375 4.13964844 C-4.76699832 4.11500074 -4.76699832 4.11500074 -6.625 6.3984375 Z " fill="#FD6A04" transform="translate(62.625,51.6015625)"/>
<path d="M0 0 C1.1149585 -0.00430527 1.1149585 -0.00430527 2.25244141 -0.00869751 C3.8225989 -0.01073726 5.39278186 -0.0052135 6.96289062 0.00732422 C9.36646332 0.02338047 11.76835461 0.00747398 14.171875 -0.01171875 C15.69792038 -0.0097363 17.22396471 -0.00589259 18.75 0 C19.46881348 -0.00607269 20.18762695 -0.01214539 20.92822266 -0.0184021 C23.67904974 0.02037743 25.87748134 0.13119393 28.32666016 1.44677734 C29.97559952 4.51655408 29.80214967 7.62483043 29.7734375 11.0234375 C29.77630768 11.76674316 29.77917786 12.51004883 29.78213501 13.27587891 C29.78417476 14.8460364 29.778651 16.41621936 29.76611328 17.98632812 C29.75005703 20.38990082 29.76596352 22.79179211 29.78515625 25.1953125 C29.7831738 26.72135788 29.77933009 28.24740221 29.7734375 29.7734375 C29.78254654 30.85165771 29.78254654 30.85165771 29.7918396 31.95166016 C29.75306007 34.70248724 29.64224357 36.90091884 28.32666016 39.35009766 C25.25688342 40.99903702 22.14860707 40.82558717 18.75 40.796875 C17.6350415 40.80118027 17.6350415 40.80118027 16.49755859 40.80557251 C14.9274011 40.80761226 13.35721814 40.8020885 11.78710938 40.78955078 C9.38353668 40.77349453 6.98164539 40.78940102 4.578125 40.80859375 C3.05207962 40.8066113 1.52603529 40.80276759 0 40.796875 C-0.71881348 40.80294769 -1.43762695 40.80902039 -2.17822266 40.8152771 C-4.92904974 40.77649757 -7.12748134 40.66568107 -9.57666016 39.35009766 C-11.22559952 36.28032092 -11.05214967 33.17204457 -11.0234375 29.7734375 C-11.02630768 29.03013184 -11.02917786 28.28682617 -11.03213501 27.52099609 C-11.03417476 25.9508386 -11.028651 24.38065564 -11.01611328 22.81054688 C-11.00005703 20.40697418 -11.01596352 18.00508289 -11.03515625 15.6015625 C-11.0331738 14.07551712 -11.02933009 12.54947279 -11.0234375 11.0234375 C-11.03254654 9.94521729 -11.03254654 9.94521729 -11.0418396 8.84521484 C-11.00306007 6.09438776 -10.89224357 3.89595616 -9.57666016 1.44677734 C-6.50688342 -0.20216202 -3.39860707 -0.02871217 0 0 Z M-6.625 6.3984375 C-6.93698539 9.27931673 -6.93698539 9.27931673 -6.890625 12.6484375 C-6.89320312 13.89625 -6.89578125 15.1440625 -6.8984375 16.4296875 C-6.89070312 17.739375 -6.88296875 19.0490625 -6.875 20.3984375 C-6.88273438 21.708125 -6.89046875 23.0178125 -6.8984375 24.3671875 C-6.89585938 25.615 -6.89328125 26.8628125 -6.890625 28.1484375 C-6.88836914 29.29828125 -6.88611328 30.448125 -6.88378906 31.6328125 C-6.90843676 34.54043582 -6.90843676 34.54043582 -4.625 36.3984375 C-1.74412077 36.71042289 -1.74412077 36.71042289 1.625 36.6640625 C2.8728125 36.66664062 4.120625 36.66921875 5.40625 36.671875 C6.7159375 36.66414063 8.025625 36.65640625 9.375 36.6484375 C11.33953125 36.66003906 11.33953125 36.66003906 13.34375 36.671875 C15.21546875 36.66800781 15.21546875 36.66800781 17.125 36.6640625 C18.84976563 36.66067871 18.84976563 36.66067871 20.609375 36.65722656 C23.51699832 36.68187426 23.51699832 36.68187426 25.375 34.3984375 C25.68698539 31.51755827 25.68698539 31.51755827 25.640625 28.1484375 C25.64320312 26.900625 25.64578125 25.6528125 25.6484375 24.3671875 C25.63683594 22.40265625 25.63683594 22.40265625 25.625 20.3984375 C25.63273437 19.08875 25.64046875 17.7790625 25.6484375 16.4296875 C25.64585938 15.181875 25.64328125 13.9340625 25.640625 12.6484375 C25.63836914 11.49859375 25.63611328 10.34875 25.63378906 9.1640625 C25.65843676 6.25643918 25.65843676 6.25643918 23.375 4.3984375 C20.49412077 4.08645211 20.49412077 4.08645211 17.125 4.1328125 C15.8771875 4.13023438 14.629375 4.12765625 13.34375 4.125 C12.0340625 4.13273437 10.724375 4.14046875 9.375 4.1484375 C7.41046875 4.13683594 7.41046875 4.13683594 5.40625 4.125 C3.53453125 4.12886719 3.53453125 4.12886719 1.625 4.1328125 C0.47515625 4.13506836 -0.6746875 4.13732422 -1.859375 4.13964844 C-4.76699832 4.11500074 -4.76699832 4.11500074 -6.625 6.3984375 Z " fill="#4E138A" transform="translate(18.625,51.6015625)"/>
<path d="M0 0 C1.1149585 -0.00430527 1.1149585 -0.00430527 2.25244141 -0.00869751 C3.8225989 -0.01073726 5.39278186 -0.0052135 6.96289062 0.00732422 C9.36646332 0.02338047 11.76835461 0.00747398 14.171875 -0.01171875 C15.69792038 -0.0097363 17.22396471 -0.00589259 18.75 0 C19.46881348 -0.00607269 20.18762695 -0.01214539 20.92822266 -0.0184021 C23.67904974 0.02037743 25.87748134 0.13119393 28.32666016 1.44677734 C29.97559952 4.51655408 29.80214967 7.62483043 29.7734375 11.0234375 C29.77630768 11.76674316 29.77917786 12.51004883 29.78213501 13.27587891 C29.78417476 14.8460364 29.778651 16.41621936 29.76611328 17.98632812 C29.75005703 20.38990082 29.76596352 22.79179211 29.78515625 25.1953125 C29.7831738 26.72135788 29.77933009 28.24740221 29.7734375 29.7734375 C29.78254654 30.85165771 29.78254654 30.85165771 29.7918396 31.95166016 C29.75306007 34.70248724 29.64224357 36.90091884 28.32666016 39.35009766 C25.25688342 40.99903702 22.14860707 40.82558717 18.75 40.796875 C17.6350415 40.80118027 17.6350415 40.80118027 16.49755859 40.80557251 C14.9274011 40.80761226 13.35721814 40.8020885 11.78710938 40.78955078 C9.38353668 40.77349453 6.98164539 40.78940102 4.578125 40.80859375 C3.05207962 40.8066113 1.52603529 40.80276759 0 40.796875 C-0.71881348 40.80294769 -1.43762695 40.80902039 -2.17822266 40.8152771 C-4.92904974 40.77649757 -7.12748134 40.66568107 -9.57666016 39.35009766 C-11.22559952 36.28032092 -11.05214967 33.17204457 -11.0234375 29.7734375 C-11.02630768 29.03013184 -11.02917786 28.28682617 -11.03213501 27.52099609 C-11.03417476 25.9508386 -11.028651 24.38065564 -11.01611328 22.81054688 C-11.00005703 20.40697418 -11.01596352 18.00508289 -11.03515625 15.6015625 C-11.0331738 14.07551712 -11.02933009 12.54947279 -11.0234375 11.0234375 C-11.03254654 9.94521729 -11.03254654 9.94521729 -11.0418396 8.84521484 C-11.00306007 6.09438776 -10.89224357 3.89595616 -9.57666016 1.44677734 C-6.50688342 -0.20216202 -3.39860707 -0.02871217 0 0 Z M-6.625 6.3984375 C-6.93698539 9.27931673 -6.93698539 9.27931673 -6.890625 12.6484375 C-6.89320312 13.89625 -6.89578125 15.1440625 -6.8984375 16.4296875 C-6.89070313 17.739375 -6.88296875 19.0490625 -6.875 20.3984375 C-6.88273437 21.708125 -6.89046875 23.0178125 -6.8984375 24.3671875 C-6.89585938 25.615 -6.89328125 26.8628125 -6.890625 28.1484375 C-6.88836914 29.29828125 -6.88611328 30.448125 -6.88378906 31.6328125 C-6.90843676 34.54043582 -6.90843676 34.54043582 -4.625 36.3984375 C-1.74412077 36.71042289 -1.74412077 36.71042289 1.625 36.6640625 C2.8728125 36.66664062 4.120625 36.66921875 5.40625 36.671875 C6.7159375 36.66414063 8.025625 36.65640625 9.375 36.6484375 C11.33953125 36.66003906 11.33953125 36.66003906 13.34375 36.671875 C15.21546875 36.66800781 15.21546875 36.66800781 17.125 36.6640625 C18.84976563 36.66067871 18.84976563 36.66067871 20.609375 36.65722656 C23.51699832 36.68187426 23.51699832 36.68187426 25.375 34.3984375 C25.68698539 31.51755827 25.68698539 31.51755827 25.640625 28.1484375 C25.64320312 26.900625 25.64578125 25.6528125 25.6484375 24.3671875 C25.63683594 22.40265625 25.63683594 22.40265625 25.625 20.3984375 C25.63273437 19.08875 25.64046875 17.7790625 25.6484375 16.4296875 C25.64585938 15.181875 25.64328125 13.9340625 25.640625 12.6484375 C25.63836914 11.49859375 25.63611328 10.34875 25.63378906 9.1640625 C25.65843676 6.25643918 25.65843676 6.25643918 23.375 4.3984375 C20.49412077 4.08645211 20.49412077 4.08645211 17.125 4.1328125 C15.8771875 4.13023438 14.629375 4.12765625 13.34375 4.125 C12.0340625 4.13273438 10.724375 4.14046875 9.375 4.1484375 C7.41046875 4.13683594 7.41046875 4.13683594 5.40625 4.125 C3.53453125 4.12886719 3.53453125 4.12886719 1.625 4.1328125 C0.47515625 4.13506836 -0.6746875 4.13732422 -1.859375 4.13964844 C-4.76699832 4.11500074 -4.76699832 4.11500074 -6.625 6.3984375 Z " fill="#FD6A04" transform="translate(62.625,7.6015625)"/>
<path d="M0 0 C1.1149585 -0.00430527 1.1149585 -0.00430527 2.25244141 -0.00869751 C3.8225989 -0.01073726 5.39278186 -0.0052135 6.96289062 0.00732422 C9.36646332 0.02338047 11.76835461 0.00747398 14.171875 -0.01171875 C15.69792038 -0.0097363 17.22396471 -0.00589259 18.75 0 C19.46881348 -0.00607269 20.18762695 -0.01214539 20.92822266 -0.0184021 C23.67904974 0.02037743 25.87748134 0.13119393 28.32666016 1.44677734 C29.97559952 4.51655408 29.80214967 7.62483043 29.7734375 11.0234375 C29.77630768 11.76674316 29.77917786 12.51004883 29.78213501 13.27587891 C29.78417476 14.8460364 29.778651 16.41621936 29.76611328 17.98632812 C29.75005703 20.38990082 29.76596352 22.79179211 29.78515625 25.1953125 C29.7831738 26.72135788 29.77933009 28.24740221 29.7734375 29.7734375 C29.78254654 30.85165771 29.78254654 30.85165771 29.7918396 31.95166016 C29.75306007 34.70248724 29.64224357 36.90091884 28.32666016 39.35009766 C25.25688342 40.99903702 22.14860707 40.82558717 18.75 40.796875 C17.6350415 40.80118027 17.6350415 40.80118027 16.49755859 40.80557251 C14.9274011 40.80761226 13.35721814 40.8020885 11.78710938 40.78955078 C9.38353668 40.77349453 6.98164539 40.78940102 4.578125 40.80859375 C3.05207962 40.8066113 1.52603529 40.80276759 0 40.796875 C-0.71881348 40.80294769 -1.43762695 40.80902039 -2.17822266 40.8152771 C-4.92904974 40.77649757 -7.12748134 40.66568107 -9.57666016 39.35009766 C-11.22559952 36.28032092 -11.05214967 33.17204457 -11.0234375 29.7734375 C-11.02630768 29.03013184 -11.02917786 28.28682617 -11.03213501 27.52099609 C-11.03417476 25.9508386 -11.028651 24.38065564 -11.01611328 22.81054688 C-11.00005703 20.40697418 -11.01596352 18.00508289 -11.03515625 15.6015625 C-11.0331738 14.07551712 -11.02933009 12.54947279 -11.0234375 11.0234375 C-11.03254654 9.94521729 -11.03254654 9.94521729 -11.0418396 8.84521484 C-11.00306007 6.09438776 -10.89224357 3.89595616 -9.57666016 1.44677734 C-6.50688342 -0.20216202 -3.39860707 -0.02871217 0 0 Z M-6.625 6.3984375 C-6.93698539 9.27931673 -6.93698539 9.27931673 -6.890625 12.6484375 C-6.89320312 13.89625 -6.89578125 15.1440625 -6.8984375 16.4296875 C-6.89070312 17.739375 -6.88296875 19.0490625 -6.875 20.3984375 C-6.88273438 21.708125 -6.89046875 23.0178125 -6.8984375 24.3671875 C-6.89585938 25.615 -6.89328125 26.8628125 -6.890625 28.1484375 C-6.88836914 29.29828125 -6.88611328 30.448125 -6.88378906 31.6328125 C-6.90843676 34.54043582 -6.90843676 34.54043582 -4.625 36.3984375 C-1.74412077 36.71042289 -1.74412077 36.71042289 1.625 36.6640625 C2.8728125 36.66664062 4.120625 36.66921875 5.40625 36.671875 C6.7159375 36.66414063 8.025625 36.65640625 9.375 36.6484375 C11.33953125 36.66003906 11.33953125 36.66003906 13.34375 36.671875 C15.21546875 36.66800781 15.21546875 36.66800781 17.125 36.6640625 C18.84976563 36.66067871 18.84976563 36.66067871 20.609375 36.65722656 C23.51699832 36.68187426 23.51699832 36.68187426 25.375 34.3984375 C25.68698539 31.51755827 25.68698539 31.51755827 25.640625 28.1484375 C25.64320312 26.900625 25.64578125 25.6528125 25.6484375 24.3671875 C25.63683594 22.40265625 25.63683594 22.40265625 25.625 20.3984375 C25.63273437 19.08875 25.64046875 17.7790625 25.6484375 16.4296875 C25.64585938 15.181875 25.64328125 13.9340625 25.640625 12.6484375 C25.63836914 11.49859375 25.63611328 10.34875 25.63378906 9.1640625 C25.65843676 6.25643918 25.65843676 6.25643918 23.375 4.3984375 C20.49412077 4.08645211 20.49412077 4.08645211 17.125 4.1328125 C15.8771875 4.13023438 14.629375 4.12765625 13.34375 4.125 C12.0340625 4.13273438 10.724375 4.14046875 9.375 4.1484375 C7.41046875 4.13683594 7.41046875 4.13683594 5.40625 4.125 C3.53453125 4.12886719 3.53453125 4.12886719 1.625 4.1328125 C0.47515625 4.13506836 -0.6746875 4.13732422 -1.859375 4.13964844 C-4.76699832 4.11500074 -4.76699832 4.11500074 -6.625 6.3984375 Z " fill="#4E138A" transform="translate(18.625,7.6015625)"/>
<path d="M0 0 C2.77141717 -0.08089542 5.54047819 -0.14044062 8.3125 -0.1875 C9.09818359 -0.21263672 9.88386719 -0.23777344 10.69335938 -0.26367188 C11.45068359 -0.27333984 12.20800781 -0.28300781 12.98828125 -0.29296875 C14.03302612 -0.31653442 14.03302612 -0.31653442 15.09887695 -0.34057617 C17 0 17 0 18.72583008 1.04174805 C20.68691531 4.05570946 20.42783638 7.14510812 20.3984375 10.625 C20.40130768 11.36830566 20.40417786 12.11161133 20.40713501 12.87744141 C20.40917476 14.4475989 20.403651 16.01778186 20.39111328 17.58789062 C20.37505703 19.99146332 20.39096352 22.39335461 20.41015625 24.796875 C20.4081738 26.32292038 20.40433009 27.84896471 20.3984375 29.375 C20.40754654 30.45322021 20.40754654 30.45322021 20.4168396 31.55322266 C20.37566101 34.47422779 20.33655876 36.50908568 18.6574707 38.95825195 C16.07719298 40.57999964 13.81259817 40.28427736 10.8125 40.1875 C9.72582031 40.16042969 8.63914062 40.13335937 7.51953125 40.10546875 C6.27236328 40.05326172 6.27236328 40.05326172 5 40 C5 38.68 5 37.36 5 36 C5.63808594 35.93941406 6.27617188 35.87882812 6.93359375 35.81640625 C7.75988281 35.73261719 8.58617187 35.64882812 9.4375 35.5625 C10.26121094 35.48128906 11.08492187 35.40007812 11.93359375 35.31640625 C13.98662025 35.21069185 13.98662025 35.21069185 15 34 C15.09993532 31.9394469 15.13080906 29.8754741 15.1328125 27.8125 C15.13410156 26.55695313 15.13539062 25.30140625 15.13671875 24.0078125 C15.13462402 23.35071289 15.1325293 22.69361328 15.13037109 22.01660156 C15.12502234 20.00838665 15.13031691 18.00039541 15.13671875 15.9921875 C15.13542969 14.73664063 15.13414063 13.48109375 15.1328125 12.1875 C15.13168457 11.02605469 15.13055664 9.86460938 15.12939453 8.66796875 C15.30337474 6.07936716 15.30337474 6.07936716 14 5 C11.65012738 4.76472227 9.29443961 4.58613583 6.9375 4.4375 C5.00197266 4.31181641 5.00197266 4.31181641 3.02734375 4.18359375 C1.52880859 4.09271484 1.52880859 4.09271484 0 4 C0 2.68 0 1.36 0 0 Z " fill="#CA1B63" transform="translate(28,52)"/>
<path d="M0 0 C2.77141717 -0.08089542 5.54047819 -0.14044062 8.3125 -0.1875 C9.09818359 -0.21263672 9.88386719 -0.23777344 10.69335938 -0.26367188 C11.45068359 -0.27333984 12.20800781 -0.28300781 12.98828125 -0.29296875 C14.03302612 -0.31653442 14.03302612 -0.31653442 15.09887695 -0.34057617 C17 0 17 0 18.72583008 1.04174805 C20.68691531 4.05570946 20.42783638 7.14510812 20.3984375 10.625 C20.40130768 11.36830566 20.40417786 12.11161133 20.40713501 12.87744141 C20.40917476 14.4475989 20.403651 16.01778186 20.39111328 17.58789062 C20.37505703 19.99146332 20.39096352 22.39335461 20.41015625 24.796875 C20.4081738 26.32292038 20.40433009 27.84896471 20.3984375 29.375 C20.40754654 30.45322021 20.40754654 30.45322021 20.4168396 31.55322266 C20.37566101 34.47422779 20.33655876 36.50908568 18.6574707 38.95825195 C16.07719298 40.57999964 13.81259817 40.28427736 10.8125 40.1875 C9.72582031 40.16042969 8.63914062 40.13335937 7.51953125 40.10546875 C6.27236328 40.05326172 6.27236328 40.05326172 5 40 C5 38.68 5 37.36 5 36 C5.63808594 35.93941406 6.27617188 35.87882812 6.93359375 35.81640625 C7.75988281 35.73261719 8.58617187 35.64882813 9.4375 35.5625 C10.26121094 35.48128906 11.08492187 35.40007813 11.93359375 35.31640625 C13.98662025 35.21069185 13.98662025 35.21069185 15 34 C15.09993532 31.9394469 15.13080906 29.8754741 15.1328125 27.8125 C15.13410156 26.55695312 15.13539062 25.30140625 15.13671875 24.0078125 C15.13462402 23.35071289 15.1325293 22.69361328 15.13037109 22.01660156 C15.12502234 20.00838665 15.13031691 18.00039541 15.13671875 15.9921875 C15.13542969 14.73664062 15.13414063 13.48109375 15.1328125 12.1875 C15.13168457 11.02605469 15.13055664 9.86460938 15.12939453 8.66796875 C15.30337474 6.07936716 15.30337474 6.07936716 14 5 C11.65012738 4.76472227 9.29443961 4.58613583 6.9375 4.4375 C5.00197266 4.31181641 5.00197266 4.31181641 3.02734375 4.18359375 C1.52880859 4.09271484 1.52880859 4.09271484 0 4 C0 2.68 0 1.36 0 0 Z " fill="#CA1B63" transform="translate(28,8)"/>
<path d="M0 0 C1.76923828 0.04060547 1.76923828 0.04060547 3.57421875 0.08203125 C4.47785156 0.11683594 5.38148437 0.15164062 6.3125 0.1875 C6.3125 1.5075 6.3125 2.8275 6.3125 4.1875 C5.60222656 4.24808594 4.89195313 4.30867188 4.16015625 4.37109375 C3.24105469 4.45488281 2.32195312 4.53867187 1.375 4.625 C0.45847656 4.70621094 -0.45804688 4.78742187 -1.40234375 4.87109375 C-3.64909732 4.94794976 -3.64909732 4.94794976 -4.6875 6.1875 C-4.78743532 8.2480531 -4.81830906 10.3120259 -4.8203125 12.375 C-4.82160156 13.63054687 -4.82289062 14.88609375 -4.82421875 16.1796875 C-4.82212402 16.83678711 -4.8200293 17.49388672 -4.81787109 18.17089844 C-4.81252234 20.17911335 -4.81781691 22.18710459 -4.82421875 24.1953125 C-4.82228516 26.07863281 -4.82228516 26.07863281 -4.8203125 28 C-4.81862061 29.74216797 -4.81862061 29.74216797 -4.81689453 31.51953125 C-4.99087474 34.10813284 -4.99087474 34.10813284 -3.6875 35.1875 C-2.00566052 35.42037008 -0.3162584 35.60014166 1.375 35.75 C2.29410156 35.83378906 3.21320313 35.91757813 4.16015625 36.00390625 C5.22556641 36.09478516 5.22556641 36.09478516 6.3125 36.1875 C6.3125 37.5075 6.3125 38.8275 6.3125 40.1875 C4.20896505 40.2685206 2.10454048 40.32669907 0 40.375 C-1.17175781 40.40980469 -2.34351563 40.44460937 -3.55078125 40.48046875 C-6.6875 40.1875 -6.6875 40.1875 -8.35864258 39.14575195 C-10.39421065 36.14606584 -10.11551913 33.06402284 -10.0859375 29.5625 C-10.08880768 28.81919434 -10.09167786 28.07588867 -10.09463501 27.31005859 C-10.09667476 25.7399011 -10.091151 24.16971814 -10.07861328 22.59960938 C-10.06255703 20.19603668 -10.07846352 17.79414539 -10.09765625 15.390625 C-10.0956738 13.86457962 -10.09183009 12.33853529 -10.0859375 10.8125 C-10.09504654 9.73427979 -10.09504654 9.73427979 -10.1043396 8.63427734 C-10.06328027 5.72173245 -10.02075107 3.67859073 -8.35864258 1.22924805 C-5.6528982 -0.45744461 -3.13065076 -0.09298963 0 0 Z " fill="#DC2554" transform="translate(61.6875,51.8125)"/>
<path d="M0 0 C1.76923828 0.04060547 1.76923828 0.04060547 3.57421875 0.08203125 C4.47785156 0.11683594 5.38148437 0.15164062 6.3125 0.1875 C6.3125 1.5075 6.3125 2.8275 6.3125 4.1875 C5.60222656 4.24808594 4.89195313 4.30867187 4.16015625 4.37109375 C3.24105469 4.45488281 2.32195312 4.53867188 1.375 4.625 C0.45847656 4.70621094 -0.45804688 4.78742187 -1.40234375 4.87109375 C-3.64909732 4.94794976 -3.64909732 4.94794976 -4.6875 6.1875 C-4.78743532 8.2480531 -4.81830906 10.3120259 -4.8203125 12.375 C-4.82160156 13.63054688 -4.82289062 14.88609375 -4.82421875 16.1796875 C-4.82212402 16.83678711 -4.8200293 17.49388672 -4.81787109 18.17089844 C-4.81252234 20.17911335 -4.81781691 22.18710459 -4.82421875 24.1953125 C-4.82228516 26.07863281 -4.82228516 26.07863281 -4.8203125 28 C-4.81862061 29.74216797 -4.81862061 29.74216797 -4.81689453 31.51953125 C-4.99087474 34.10813284 -4.99087474 34.10813284 -3.6875 35.1875 C-2.00566052 35.42037008 -0.3162584 35.60014166 1.375 35.75 C2.29410156 35.83378906 3.21320313 35.91757812 4.16015625 36.00390625 C5.22556641 36.09478516 5.22556641 36.09478516 6.3125 36.1875 C6.3125 37.5075 6.3125 38.8275 6.3125 40.1875 C4.20896505 40.2685206 2.10454048 40.32669907 0 40.375 C-1.17175781 40.40980469 -2.34351563 40.44460937 -3.55078125 40.48046875 C-6.6875 40.1875 -6.6875 40.1875 -8.35864258 39.14575195 C-10.39421065 36.14606584 -10.11551913 33.06402284 -10.0859375 29.5625 C-10.08880768 28.81919434 -10.09167786 28.07588867 -10.09463501 27.31005859 C-10.09667476 25.7399011 -10.091151 24.16971814 -10.07861328 22.59960938 C-10.06255703 20.19603668 -10.07846352 17.79414539 -10.09765625 15.390625 C-10.0956738 13.86457962 -10.09183009 12.33853529 -10.0859375 10.8125 C-10.09504654 9.73427979 -10.09504654 9.73427979 -10.1043396 8.63427734 C-10.06328027 5.72173245 -10.02075107 3.67859073 -8.35864258 1.22924805 C-5.6528982 -0.45744461 -3.13065076 -0.09298963 0 0 Z " fill="#DC2554" transform="translate(61.6875,7.8125)"/>
<path d="M0 0 C5.61 0 11.22 0 17 0 C17.33 1.32 17.66 2.64 18 4 C12.06 4 6.12 4 0 4 C-0.33 3.34 -0.66 2.68 -1 2 C-0.67 1.34 -0.34 0.68 0 0 Z " fill="#F55A17" transform="translate(68,52)"/>
<path d="M0 0 C5.61 0 11.22 0 17 0 C17.33 1.32 17.66 2.64 18 4 C12.06 4 6.12 4 0 4 C-0.33 3.34 -0.66 2.68 -1 2 C-0.67 1.34 -0.34 0.68 0 0 Z " fill="#F55A17" transform="translate(68,8)"/>
<path d="M0 0 C5.61 0 11.22 0 17 0 C17 1.33333333 17 2.66666667 17 4 C11.39 4 5.78 4 0 4 C-0.33 3.34 -0.66 2.68 -1 2 C-0.67 1.34 -0.34 0.68 0 0 Z " fill="#F55A17" transform="translate(68,88)"/>
<path d="M0 0 C5.61 0 11.22 0 17 0 C17 1.33333333 17 2.66666667 17 4 C11.39 4 5.78 4 0 4 C-0.33 3.34 -0.66 2.68 -1 2 C-0.67 1.34 -0.34 0.68 0 0 Z " fill="#F55A17" transform="translate(68,44)"/>
<path d="M0 0 C3.96 0 7.92 0 12 0 C12 1.32 12 2.64 12 4 C8.04 4 4.08 4 0 4 C0 2.68 0 1.36 0 0 Z " fill="#6E1580" transform="translate(21,88)"/>
<path d="M0 0 C3.96 0 7.92 0 12 0 C12 1.32 12 2.64 12 4 C8.04 4 4.08 4 0 4 C0 2.68 0 1.36 0 0 Z " fill="#A11871" transform="translate(28,52)"/>
<path d="M0 0 C3.96 0 7.92 0 12 0 C12 1.32 12 2.64 12 4 C8.04 4 4.08 4 0 4 C0 2.68 0 1.36 0 0 Z " fill="#6E1580" transform="translate(21,44)"/>
<path d="M0 0 C3.96 0 7.92 0 12 0 C12 1.32 12 2.64 12 4 C8.04 4 4.08 4 0 4 C0 2.68 0 1.36 0 0 Z " fill="#A11871" transform="translate(28,8)"/>
<path d="M0 0 C1.85772162 0.08984301 3.71247985 0.24611861 5.5625 0.4375 C7.08037109 0.59025391 7.08037109 0.59025391 8.62890625 0.74609375 C9.80259766 0.87177734 9.80259766 0.87177734 11 1 C11 2.32 11 3.64 11 5 C7.37 5 3.74 5 0 5 C-0.33 3.68 -0.66 2.36 -1 1 C-0.67 0.67 -0.34 0.34 0 0 Z " fill="#E13047" transform="translate(57,87)"/>
<path d="M0 0 C1.85772162 0.08984301 3.71247985 0.24611861 5.5625 0.4375 C7.08037109 0.59025391 7.08037109 0.59025391 8.62890625 0.74609375 C9.80259766 0.87177734 9.80259766 0.87177734 11 1 C11 2.32 11 3.64 11 5 C7.37 5 3.74 5 0 5 C-0.33 3.68 -0.66 2.36 -1 1 C-0.67 0.67 -0.34 0.34 0 0 Z " fill="#E13047" transform="translate(57,43)"/>
<path d="M0 0 C-0.33 1.32 -0.66 2.64 -1 4 C-4.3 4 -7.6 4 -11 4 C-11 2.68 -11 1.36 -11 0 C-9.54263913 -0.19491452 -8.08405407 -0.38069358 -6.625 -0.5625 C-5.81289063 -0.66691406 -5.00078125 -0.77132812 -4.1640625 -0.87890625 C-2 -1 -2 -1 0 0 Z " fill="#A6186F" transform="translate(44,88)"/>
<path d="M0 0 C3.63 0 7.26 0 11 0 C11 1.32 11 2.64 11 4 C7.37 4.33 3.74 4.66 0 5 C0 3.35 0 1.7 0 0 Z " fill="#E73B3B" transform="translate(57,52)"/>
<path d="M0 0 C-0.33 1.32 -0.66 2.64 -1 4 C-4.3 4 -7.6 4 -11 4 C-11 2.68 -11 1.36 -11 0 C-9.54263913 -0.19491452 -8.08405407 -0.38069358 -6.625 -0.5625 C-5.81289063 -0.66691406 -5.00078125 -0.77132812 -4.1640625 -0.87890625 C-2 -1 -2 -1 0 0 Z " fill="#A6186F" transform="translate(44,44)"/>
<path d="M0 0 C3.63 0 7.26 0 11 0 C11 1.32 11 2.64 11 4 C7.37 4.33 3.74 4.66 0 5 C0 3.35 0 1.7 0 0 Z " fill="#E73B3B" transform="translate(57,8)"/>
<path d="M0 0 C2.64 0 5.28 0 8 0 C8 1.32 8 2.64 8 4 C5.36 4 2.72 4 0 4 C-0.33 3.34 -0.66 2.68 -1 2 C-0.67 1.34 -0.34 0.68 0 0 Z " fill="#ED492B" transform="translate(68,88)"/>
<path d="M0 0 C2.64 0 5.28 0 8 0 C8 1.32 8 2.64 8 4 C5.36 4 2.72 4 0 4 C-0.33 3.34 -0.66 2.68 -1 2 C-0.67 1.34 -0.34 0.68 0 0 Z " fill="#ED492B" transform="translate(68,52)"/>
<path d="M0 0 C2.64 0 5.28 0 8 0 C8 1.32 8 2.64 8 4 C5.36 4 2.72 4 0 4 C-0.33 3.34 -0.66 2.68 -1 2 C-0.67 1.34 -0.34 0.68 0 0 Z " fill="#ED492B" transform="translate(68,44)"/>
<path d="M0 0 C2.64 0 5.28 0 8 0 C8 1.32 8 2.64 8 4 C5.36 4 2.72 4 0 4 C-0.33 3.34 -0.66 2.68 -1 2 C-0.67 1.34 -0.34 0.68 0 0 Z " fill="#ED492B" transform="translate(68,8)"/>
<path d="M0 0 C2.31 0 4.62 0 7 0 C7 1.32 7 2.64 7 4 C4.69 4 2.38 4 0 4 C0 2.68 0 1.36 0 0 Z " fill="#6E1580" transform="translate(21,52)"/>
<path d="M0 0 C2.31 0 4.62 0 7 0 C7 1.32 7 2.64 7 4 C4.69 4 2.38 4 0 4 C0 2.68 0 1.36 0 0 Z " fill="#6E1580" transform="translate(21,8)"/>
<path d="M0 0 C1.98 0 3.96 0 6 0 C6 1.32 6 2.64 6 4 C3.69 3.67 1.38 3.34 -1 3 C-0.67 2.01 -0.34 1.02 0 0 Z " fill="#E73B3B" transform="translate(62,88)"/>
<path d="M0 0 C1.98 0 3.96 0 6 0 C6 1.32 6 2.64 6 4 C3.69 3.67 1.38 3.34 -1 3 C-0.67 2.01 -0.34 1.02 0 0 Z " fill="#E73B3B" transform="translate(62,44)"/>
<path d="M0 0 C1.65 0 3.3 0 5 0 C5.33 1.32 5.66 2.64 6 4 C4.02 4.33 2.04 4.66 0 5 C0 3.35 0 1.7 0 0 Z " fill="#E13047" transform="translate(57,52)"/>
<path d="M0 0 C1.65 0 3.3 0 5 0 C5.33 1.32 5.66 2.64 6 4 C4.02 4.33 2.04 4.66 0 5 C0 3.35 0 1.7 0 0 Z " fill="#E13047" transform="translate(57,8)"/>
<path d="M0 0 C1.65 0 3.3 0 5 0 C5 1.32 5 2.64 5 4 C3.35 4 1.7 4 0 4 C0 2.68 0 1.36 0 0 Z " fill="#881778" transform="translate(28,88)"/>
<path d="M0 0 C1.65 0 3.3 0 5 0 C5 1.32 5 2.64 5 4 C3.35 4 1.7 4 0 4 C0 2.68 0 1.36 0 0 Z " fill="#881778" transform="translate(28,52)"/>
<path d="M0 0 C1.65 0 3.3 0 5 0 C5 1.32 5 2.64 5 4 C3.35 4 1.7 4 0 4 C0 2.68 0 1.36 0 0 Z " fill="#881778" transform="translate(28,44)"/>
<path d="M0 0 C1.65 0 3.3 0 5 0 C5 1.32 5 2.64 5 4 C3.35 4 1.7 4 0 4 C0 2.68 0 1.36 0 0 Z " fill="#881778" transform="translate(28,8)"/>
<path d="M0 0 C1.65 0 3.3 0 5 0 C4.67 1.32 4.34 2.64 4 4 C2.68 4 1.36 4 0 4 C0 2.68 0 1.36 0 0 Z " fill="#BA1968" transform="translate(40,52)"/>
<path d="M0 0 C1.65 0 3.3 0 5 0 C4.67 1.32 4.34 2.64 4 4 C2.68 4 1.36 4 0 4 C0 2.68 0 1.36 0 0 Z " fill="#BA1968" transform="translate(40,8)"/>
</svg>
