<?xml version="1.0" encoding="UTF-8"?>
<svg version="1.1" xmlns="http://www.w3.org/2000/svg" width="512" height="512">
<path d="M0 0 C168.96 0 337.92 0 512 0 C512 168.96 512 337.92 512 512 C343.04 512 174.08 512 0 512 C0 343.04 0 174.08 0 0 Z " fill="#000000" transform="translate(0,0)"/>
<path d="M0 0 C0.82894775 0.00115814 1.65789551 0.00231628 2.51196289 0.00350952 C15.66715274 0.03974928 28.4348639 0.79432427 41.375 3.3125 C42.04805176 3.4352832 42.72110352 3.55806641 43.41455078 3.68457031 C75.20270058 9.51386982 103.22094435 24.00720005 126.375 46.3125 C127.06851562 46.94285156 127.76203125 47.57320312 128.4765625 48.22265625 C146.57815231 65.1696179 163.48330318 93.85401591 168.375 118.3125 C168.07934077 119.98626059 167.7503779 121.65479667 167.375 123.3125 C163.46257221 124.45864168 159.54817321 125.59775536 155.63183594 126.73046875 C154.30054975 127.11657414 152.96981223 127.50457669 151.63964844 127.89453125 C149.72477112 128.45554164 147.80771904 129.00911203 145.890625 129.5625 C144.73852539 129.89765625 143.58642578 130.2328125 142.39941406 130.578125 C139.375 131.3125 139.375 131.3125 135.375 131.3125 C135.09527344 130.4153125 134.81554687 129.518125 134.52734375 128.59375 C128.59433081 110.12700877 120.98699739 93.2909276 108.375 78.3125 C107.69824219 77.50167969 107.02148438 76.69085938 106.32421875 75.85546875 C83.13573509 49.04249742 49.64145763 38.39940123 15.375 35.3125 C-1.14823638 34.32570491 -17.3813912 35.1488622 -33.625 38.3125 C-34.38345215 38.45703613 -35.1419043 38.60157227 -35.92333984 38.75048828 C-56.96452061 42.8836591 -76.72117778 51.758093 -92.625 66.3125 C-93.53765625 67.13234375 -94.4503125 67.9521875 -95.390625 68.796875 C-107.21947121 79.96489181 -114.91560843 93.6343128 -121.625 108.3125 C-122.15867188 109.45589844 -122.69234375 110.59929687 -123.2421875 111.77734375 C-144.39910949 160.50403714 -142.10955485 227.02339692 -123.47265625 276.20410156 C-117.18852704 291.83478702 -108.36873022 306.21951386 -96.625 318.3125 C-96.07585937 318.92351562 -95.52671875 319.53453125 -94.9609375 320.1640625 C-72.25329145 344.66147376 -36.25622034 352.03746101 -4.4453125 353.45410156 C29.41858142 354.67377571 64.84686229 348.31298323 90.625 324.875 C106.97444441 309.53837625 116.80881828 292.43272483 117.75 269.6875 C117.40368475 253.21588084 112.20735415 238.74515161 100.8984375 226.68359375 C96.72312184 222.76034823 92.1294841 219.49400525 87.375 216.3125 C87.21644531 217.0653125 87.05789063 217.818125 86.89453125 218.59375 C82.67001271 237.8258123 76.97326523 256.52503286 63.375 271.3125 C62.67632812 272.09109375 61.97765625 272.8696875 61.2578125 273.671875 C46.51668273 289.30481689 26.01783209 296.63953507 4.95703125 297.51171875 C-11.95338267 298.0022165 -27.66948758 295.62111801 -42.625 287.3125 C-43.57761719 286.78785156 -44.53023438 286.26320313 -45.51171875 285.72265625 C-55.96685517 279.52539965 -64.30432753 271.28450819 -69.625 260.3125 C-70.18445313 259.18585938 -70.74390625 258.05921875 -71.3203125 256.8984375 C-77.78808518 242.696734 -77.90922643 226.00413834 -72.87890625 211.28125 C-65.44029116 193.66957564 -50.62187488 180.62816306 -33.421875 172.8671875 C-20.26731797 167.56088068 -6.9842571 165.16277384 7.140625 165.14453125 C8.05527527 165.14120285 8.96992554 165.13787445 9.91229248 165.13444519 C11.83849591 165.1294082 13.76470796 165.12703586 15.69091797 165.12719727 C18.60268913 165.12501671 21.51407721 165.10684254 24.42578125 165.08789062 C33.94078957 165.06008505 43.05883722 165.1546224 52.375 167.3125 C48.12401711 152.56972956 44.05505608 139.64826363 29.93359375 131.6328125 C15.92588443 124.40440678 -2.68300019 124.13082862 -17.7578125 128.26171875 C-28.01107544 132.01938596 -35.55819485 137.29896092 -41.625 146.3125 C-48.52075976 142.70073648 -54.85249853 138.51304947 -61.1875 134 C-62.55745117 133.03223633 -62.55745117 133.03223633 -63.95507812 132.04492188 C-66.18126155 130.47144145 -68.40446231 128.89393268 -70.625 127.3125 C-69.70325401 125.89320451 -68.77646862 124.47718122 -67.84765625 123.0625 C-67.33211182 122.27359375 -66.81656738 121.4846875 -66.28540039 120.671875 C-54.1522035 103.43099649 -33.25988324 94.85137202 -13.30859375 90.84765625 C8.99921207 87.66082685 34.60220369 91.23858828 53.375 104.3125 C57.62622553 107.72109131 61.52208736 111.46526176 65.375 115.3125 C65.97183594 115.89773437 66.56867188 116.48296875 67.18359375 117.0859375 C82.31801271 133.24572359 87.43313268 156.9418553 88.375 178.3125 C89.23867188 178.57933594 90.10234375 178.84617188 90.9921875 179.12109375 C101.62122343 182.86457638 110.65738926 189.32077462 119.375 196.3125 C120.08140625 196.85261719 120.7878125 197.39273438 121.515625 197.94921875 C138.96897522 212.03251151 148.076232 233.1483977 151.9921875 254.7109375 C155.00122405 283.02044468 148.56829823 310.79425073 130.8125 333.37890625 C109.45358175 359.08491203 82.53535549 376.06922484 49.9375 384.0625 C49.14077881 384.26117676 48.34405762 384.45985352 47.52319336 384.66455078 C32.55661512 388.13588076 17.48336346 388.68956862 2.1875 388.625 C1.28835876 388.62317719 0.38921753 388.62135437 -0.53717041 388.61947632 C-41.02429722 388.4814653 -81.36085768 378.32433239 -112.625 351.3125 C-113.59308594 350.47847656 -114.56117188 349.64445312 -115.55859375 348.78515625 C-122.64564404 342.55322453 -128.93299939 335.86442193 -134.625 328.3125 C-135.02928223 327.77737793 -135.43356445 327.24225586 -135.85009766 326.69091797 C-149.17957051 308.69111059 -157.40610627 287.67511205 -163.625 266.3125 C-163.88007324 265.43948242 -164.13514648 264.56646484 -164.39794922 263.66699219 C-174.96942076 226.39202637 -175.15450247 182.38412658 -168.625 144.3125 C-168.37556641 142.85360352 -168.37556641 142.85360352 -168.12109375 141.36523438 C-160.37183163 98.11287135 -140.05270301 55.85066005 -103.5 29.8125 C-72.54527165 8.67156017 -37.23624595 -0.1620795 0 0 Z " fill="#FDFDFD" transform="translate(257.625,61.6875)"/>
<path d="M0 0 C1.90567749 0.00688843 1.90567749 0.00688843 3.84985352 0.01391602 C15.74029477 0.12790602 27.22664039 1.24087262 38.9375 3.25 C38.26997308 20.87271066 33.71187809 39.36006242 21.078125 52.35546875 C9.85099658 62.29188715 -4.42864161 65.14964639 -19.04296875 64.5703125 C-31.00926237 63.78331708 -41.3746941 59.5337219 -50.0625 51.25 C-55.65937008 43.94297518 -56.86027192 37.26996965 -56.0625 28.25 C-54.59484665 20.71159869 -49.84551958 15.04698551 -43.76953125 10.5546875 C-30.14484961 1.93366478 -15.8553008 -0.11836222 0 0 Z " fill="#020202" transform="translate(272.0625,260.75)"/>
<path d="M0 0 C0.33 0 0.66 0 1 0 C1 15.18 1 30.36 1 46 C-14.18 46 -29.36 46 -45 46 C-45 45.67 -45 45.34 -45 45 C-44.18917969 44.78085937 -43.37835938 44.56171875 -42.54296875 44.3359375 C-26.78322813 39.82267069 -15.88842266 32.94657658 -7 19 C-3.70124024 12.87610594 -1.4118974 6.80277838 0 0 Z " fill="#47704C" transform="translate(511,466)"/>
<path d="M0 0 C0.33 0 0.66 0 1 0 C1.21914063 0.81082031 1.43828125 1.62164062 1.6640625 2.45703125 C6.17732931 18.21677187 13.05342342 29.11157734 27 38 C33.12389406 41.29875976 39.19722162 43.5881026 46 45 C46 45.33 46 45.66 46 46 C30.82 46 15.64 46 0 46 C0 30.82 0 15.64 0 0 Z " fill="#47704C" transform="translate(0,466)"/>
<path d="M0 0 C15.18 0 30.36 0 46 0 C46 15.18 46 30.36 46 46 C45.67 46 45.34 46 45 46 C44.78085937 45.18917969 44.56171875 44.37835938 44.3359375 43.54296875 C39.82267069 27.78322813 32.94657658 16.88842266 19 8 C12.87610594 4.70124024 6.80277838 2.4118974 0 1 C0 0.67 0 0.34 0 0 Z " fill="#47704C" transform="translate(466,0)"/>
<path d="M0 0 C15.18 0 30.36 0 46 0 C46 0.33 46 0.66 46 1 C45.18917969 1.21914063 44.37835938 1.43828125 43.54296875 1.6640625 C27.78322813 6.17732931 16.88842266 13.05342342 8 27 C4.70124024 33.12389406 2.4118974 39.19722162 1 46 C0.67 46 0.34 46 0 46 C0 30.82 0 15.64 0 0 Z " fill="#47704C" transform="translate(0,0)"/>
</svg>
