<?xml version="1.0" encoding="UTF-8"?>
<svg version="1.1" xmlns="http://www.w3.org/2000/svg" width="88" height="86">
<path d="M0 0 C0.69451767 -0.0065712 1.38903534 -0.0131424 2.104599 -0.01991272 C4.40721745 -0.03965262 6.70977066 -0.05131001 9.01245117 -0.0612793 C9.79872076 -0.06535482 10.58499035 -0.06943035 11.39508629 -0.07362938 C15.55700799 -0.09449346 19.71889668 -0.10879347 23.88085938 -0.11816406 C28.17846811 -0.12922703 32.47555885 -0.16362416 36.7729845 -0.20333576 C40.07843484 -0.22948956 43.38376155 -0.23785479 46.68930626 -0.24144554 C48.27333765 -0.24631504 49.85736339 -0.25793948 51.44129372 -0.27648354 C53.66049778 -0.30084924 55.8783592 -0.29991548 58.09765625 -0.29296875 C59.99056145 -0.30176811 59.99056145 -0.30176811 61.92170715 -0.31074524 C65.83046514 0.26328776 67.46445561 1.4251864 70.24291992 4.17700195 C71.70162796 7.09441803 71.39445573 9.67573102 71.41992188 12.93408203 C71.42649307 13.6285997 71.43306427 14.32311737 71.43983459 15.03868103 C71.4595745 17.34129949 71.47123188 19.64385269 71.48120117 21.9465332 C71.4852767 22.73280279 71.48935223 23.51907238 71.49355125 24.32916832 C71.51441533 28.49109002 71.52871534 32.65297871 71.53808594 36.81494141 C71.54914891 41.11255014 71.58354604 45.40964088 71.62325764 49.70706654 C71.64941144 53.01251687 71.65777666 56.31784358 71.66136742 59.62338829 C71.66623692 61.20741968 71.67786136 62.79144542 71.69640541 64.37537575 C71.72077112 66.59457981 71.71983736 68.81244123 71.71289062 71.03173828 C71.71875687 72.29367508 71.72462311 73.55561188 71.73066711 74.85578918 C71.15663411 78.76454717 69.99473547 80.39853764 67.24291992 83.17700195 C64.32550385 84.63570999 61.74419085 84.32853776 58.48583984 84.35400391 C57.79132217 84.3605751 57.0968045 84.3671463 56.38124084 84.37391663 C54.07862239 84.39365653 51.77606919 84.40531391 49.47338867 84.4152832 C48.68711908 84.41935873 47.90084949 84.42343426 47.09075356 84.42763329 C42.92883186 84.44849736 38.76694316 84.46279738 34.60498047 84.47216797 C30.30737173 84.48323094 26.01028099 84.51762807 21.71285534 84.55733967 C18.407405 84.58349347 15.10207829 84.59185869 11.79653358 84.59544945 C10.21250219 84.60031895 8.62847645 84.61194339 7.04454613 84.63048744 C4.82534206 84.65485315 2.60748065 84.65391939 0.38818359 84.64697266 C-0.8737532 84.6528389 -2.13569 84.65870514 -3.43586731 84.66474915 C-7.3446253 84.09071614 -8.97861576 82.9288175 -11.75708008 80.17700195 C-13.21578812 77.25958588 -12.90861589 74.67827289 -12.93408203 71.41992188 C-12.94065323 70.72540421 -12.94722443 70.03088654 -12.95399475 69.31532288 C-12.97373465 67.01270442 -12.98539204 64.71015122 -12.99536133 62.4074707 C-12.99943686 61.62120111 -13.00351238 60.83493153 -13.00771141 60.02483559 C-13.02857549 55.86291389 -13.0428755 51.70102519 -13.05224609 47.5390625 C-13.06330906 43.24145376 -13.09770619 38.94436302 -13.13741779 34.64693737 C-13.1635716 31.34148704 -13.17193682 28.03616032 -13.17552757 24.73061562 C-13.18039707 23.14658422 -13.19202151 21.56255849 -13.21056557 19.97862816 C-13.23493127 17.7594241 -13.23399751 15.54156268 -13.22705078 13.32226562 C-13.23291702 12.06032883 -13.23878326 10.79839203 -13.24482727 9.49821472 C-12.67079427 5.58945674 -11.50889563 3.95546627 -8.75708008 1.17700195 C-5.839664 -0.28170608 -3.25835101 0.02546615 0 0 Z M32.24291992 14.17700195 C32.22310059 15.32700684 32.20328125 16.47701172 32.18286133 17.66186523 C32.10655947 21.94479581 32.01788046 26.22739751 31.92553711 30.51000977 C31.8873487 32.36052946 31.85247841 34.21112082 31.82104492 36.06176758 C31.77517352 38.72804303 31.71721634 41.39382944 31.65698242 44.05981445 C31.63965561 45.29297897 31.63965561 45.29297897 31.62197876 46.55105591 C31.50641112 51.08982395 31.15388947 54.97351156 29.24291992 59.17700195 C25.49244511 61.6773185 23.68435726 61.71303749 19.24291992 61.17700195 C15.86170001 58.73101308 14.47355209 57.28403636 13.61791992 53.17700195 C14.45360284 49.16572394 16.07217258 47.69918734 19.24291992 45.17700195 C21.55541992 44.36450195 21.55541992 44.36450195 23.24291992 44.17700195 C23.24291992 41.53700195 23.24291992 38.89700195 23.24291992 36.17700195 C16.9917262 37.10773524 12.61196843 38.28782863 8.24291992 43.17700195 C5.31489486 48.52428177 4.69473947 53.24638508 6.39135742 59.1027832 C8.39363253 63.97988451 11.27791955 67.0214124 16.05541992 69.11450195 C21.70923126 70.90327842 26.18259841 70.24678428 31.49291992 67.48950195 C35.57870998 64.05372395 38.23572672 60.4402838 39.24291992 55.17700195 C39.3879984 53.29943457 39.48925691 51.41823703 39.55932617 49.53637695 C39.62216797 47.93149414 39.62216797 47.93149414 39.6862793 46.29418945 C39.7255957 45.18301758 39.76491211 44.0718457 39.80541992 42.92700195 C39.87019531 41.23704102 39.87019531 41.23704102 39.9362793 39.51293945 C40.04224007 36.73441241 40.14431134 33.95579805 40.24291992 31.17700195 C41.02666992 31.81637695 41.81041992 32.45575195 42.61791992 33.11450195 C46.46781613 36.1394204 48.39143311 36.28246906 53.24291992 36.17700195 C53.24291992 33.53700195 53.24291992 30.89700195 53.24291992 28.17700195 C51.95378505 27.50545262 50.66151788 26.83991336 49.36791992 26.17700195 C48.64862305 25.80575195 47.92932617 25.43450195 47.18823242 25.05200195 C45.29443015 24.04026449 45.29443015 24.04026449 43.24291992 24.17700195 C41.50629658 20.95184432 40.35232712 17.66371029 39.24291992 14.17700195 C36.93291992 14.17700195 34.62291992 14.17700195 32.24291992 14.17700195 Z " fill="#000000" transform="translate(14.757080078125,0.822998046875)"/>
</svg>
