<?xml version="1.0" encoding="UTF-8"?>
<svg version="1.1" xmlns="http://www.w3.org/2000/svg" width="512" height="512">
<path d="M0 0 C0.7178297 -0.00350607 1.43565939 -0.00701215 2.1752415 -0.01062447 C4.56914279 -0.01989305 6.96279837 -0.01502699 9.35670948 -0.01015663 C11.09501668 -0.01389519 12.83332219 -0.01849753 14.57162505 -0.02388728 C19.33993577 -0.03610737 24.10817626 -0.03585797 28.87649906 -0.03349853 C34.02254208 -0.03309011 39.16856267 -0.04413193 44.31459522 -0.05361366 C54.39377349 -0.07021942 64.47292836 -0.07572303 74.55211916 -0.07683842 C82.74642418 -0.07778913 90.94072149 -0.0819006 99.13502407 -0.08823967 C122.37434616 -0.10585123 145.61364979 -0.11507872 168.85297861 -0.11357872 C170.73183886 -0.11345885 170.73183886 -0.11345885 172.64865589 -0.11333656 C173.90276128 -0.1132548 175.15686666 -0.11317304 176.44897524 -0.1130888 C196.77047533 -0.11227602 217.09190128 -0.13141205 237.41337993 -0.1596133 C258.28616031 -0.18835071 279.15890454 -0.2021531 300.0317052 -0.20042574 C311.7474193 -0.19976212 323.46305568 -0.2052423 335.17875195 -0.22678185 C345.15441566 -0.24500493 355.12996643 -0.24933169 365.1056396 -0.235763 C370.19282917 -0.22923899 375.27980213 -0.22909577 380.36697102 -0.2464695 C385.02991339 -0.26223024 389.69246793 -0.25930593 394.35540102 -0.24190123 C396.03640669 -0.23883794 397.71744152 -0.24243828 399.39841279 -0.25362138 C417.19734819 -0.36412954 431.32665295 4.0697261 444.62155628 16.33148766 C453.93026732 26.07500049 459.57372408 38.8197606 459.59841442 52.29809093 C459.60106625 53.01070606 459.60371807 53.72332118 459.60645026 54.45753071 C459.61414114 56.85773438 459.61470235 59.25788686 459.61530018 61.65810204 C459.61931497 63.39153062 459.62375322 65.12495827 459.62857974 66.85838479 C459.64054973 71.63185166 459.6461947 76.40530841 459.65076089 81.17878735 C459.65671553 86.32357136 459.6683259 91.46834327 459.6790514 96.61311913 C459.70358116 109.04470404 459.71820474 121.47629297 459.73111147 133.90789464 C459.73482341 137.41969034 459.73879665 140.93148563 459.74286413 144.44328094 C459.76810403 166.25368815 459.790156 188.06409599 459.80259228 209.87451458 C459.80552196 214.92731097 459.80848362 219.98010733 459.81149769 225.03290367 C459.81224374 226.28874644 459.81298979 227.54458921 459.81375845 228.83848783 C459.82640574 249.17183511 459.85961977 269.50509481 459.90129952 289.83840118 C459.9437475 310.71783995 459.96729075 331.59723394 459.97251284 352.47671574 C459.97592403 364.19817014 459.98764465 375.91948777 460.02061558 387.64089966 C460.04865674 397.62612691 460.0595976 407.61118936 460.04842012 417.59645293 C460.04324364 422.68796569 460.04605452 427.77913357 460.07088566 432.87059593 C460.09346757 437.54003157 460.09256919 442.20887636 460.07368179 446.87832298 C460.07089424 448.55949022 460.07641033 450.2406983 460.09149472 451.92180017 C460.24080689 469.65962195 455.83468984 484.13726369 443.45358753 497.40961266 C429.98003337 509.87401398 414.74038857 512.86770027 396.97827625 512.7719326 C395.23707521 512.77726684 393.49587877 512.78433754 391.754691 512.79297966 C387.00145737 512.81151772 382.24853718 512.80533262 377.49529099 512.79482663 C372.35677975 512.7878094 367.21833128 512.80385168 362.07983875 512.81682396 C352.02537763 512.83842729 341.97102985 512.83834642 331.91655315 512.83019841 C323.74144661 512.82388948 315.56637303 512.82504364 307.39126682 512.83147049 C305.64360148 512.83282297 305.64360148 512.83282297 303.86062976 512.83420278 C301.49344166 512.83605405 299.12625357 512.83791661 296.75906549 512.83979034 C274.57823743 512.85635616 252.39747303 512.84766008 230.2166488 512.83080476 C209.94205949 512.81611026 189.66761841 512.8307349 169.39304818 512.85957492 C148.55398935 512.88899621 127.71499886 512.89993313 106.87592018 512.89039272 C104.51700172 512.88937021 102.15808325 512.8883756 99.79916477 512.88740921 C98.63865576 512.88693282 97.47814675 512.88645643 96.2824708 512.8859656 C88.12251472 512.88380502 79.96262361 512.89358669 71.80268192 512.90818024 C61.85058828 512.92573127 51.89868354 512.92554642 41.94659723 512.90282858 C36.87326537 512.89171145 31.80026596 512.88846652 26.72694874 512.90712929 C22.07449941 512.92402302 17.42267024 512.91746346 12.77026044 512.8929125 C11.09542953 512.88805785 9.42054774 512.89146589 7.74575974 512.90439994 C-10.21524055 513.03299961 -24.37826091 508.40803782 -37.91359997 496.09711266 C-43.18027574 490.60101729 -46.70229174 484.29365598 -49.53859997 477.25726891 C-49.79326172 476.62817074 -50.04792348 475.99907258 -50.31030226 475.35091084 C-53.23062549 467.07423777 -52.96319775 458.78413824 -52.93300915 450.13490868 C-52.93790293 448.39629876 -52.94409498 446.6576921 -52.95146704 444.91909093 C-52.96782815 440.15913026 -52.96555641 435.39933564 -52.96009207 430.63935673 C-52.95741711 425.49875439 -52.9719625 420.35819584 -52.98418713 415.21761131 C-53.00522442 405.15273237 -53.00978292 395.08791106 -53.00799924 385.02301273 C-53.00669063 376.83925719 -53.01050082 368.65551959 -53.01792431 360.47176743 C-53.02002355 358.11268892 -53.02212116 355.75361041 -53.02421713 353.39453191 C-53.02526066 352.22026936 -53.02630418 351.04600682 -53.02737933 349.83616056 C-53.04627523 327.6353293 -53.04523365 305.43453109 -53.03841001 283.23369511 C-53.03283641 262.93951933 -53.05365338 242.64546985 -53.08677047 222.35132358 C-53.12053381 201.49880487 -53.13567242 180.64634661 -53.13105345 159.79380006 C-53.12881126 148.09256886 -53.13401517 136.39145438 -53.15894604 124.69024658 C-53.17999339 114.72710856 -53.18351713 104.76415123 -53.16464645 94.8010057 C-53.15550944 89.72161355 -53.15428311 84.64255799 -53.1750021 79.56319237 C-53.19379191 74.90508095 -53.18911941 70.24757991 -53.16645628 65.58949115 C-53.16229063 63.91254814 -53.16640135 62.23555758 -53.18005222 60.55866496 C-53.31656085 42.55028328 -48.64571683 28.57346143 -36.44875622 14.91742516 C-26.72624161 5.48459441 -13.49083589 0.01494402 0 0 Z M30.46140003 78.25726891 C32.30303083 82.05662773 34.54362152 85.51091815 36.89890003 89.00726891 C37.33919544 89.66412682 37.77949085 90.32098473 38.23312855 90.99774742 C42.7951676 97.78650559 47.43199701 104.52363845 52.07907581 111.25433922 C54.33531617 114.52353666 56.58599008 117.79655638 58.83640003 121.06976891 C59.50916981 122.04804649 59.50916981 122.04804649 60.19553089 123.04608727 C64.3469505 129.0852486 68.48386798 135.13429753 72.62057972 141.18353844 C77.44174502 148.23216795 82.27770577 155.2705379 87.11862659 162.30560875 C89.40048522 165.62218655 91.68085758 168.93978601 93.96140003 172.25726891 C94.87805979 173.59060699 95.79472646 174.92394032 96.71140003 176.25726891 C109.54473337 194.92393557 122.3780667 213.59060224 135.21140003 232.25726891 C135.6652306 232.91734947 136.11906116 233.57743004 136.58664417 234.25751305 C137.50263522 235.5899376 138.41848825 236.92245703 139.33420277 238.25507164 C141.6350801 241.60310381 143.93838479 244.94941671 146.24655628 248.29242516 C152.40749712 257.22238882 158.47046187 266.21238179 164.46140003 275.25726891 C162.78392054 279.28910558 159.99317269 282.32642738 157.14890003 285.56976891 C156.61909534 286.18078453 156.08929066 286.79180016 155.54343128 287.42133141 C154.42070627 288.71536422 153.29615049 290.00781058 152.16989613 291.29877281 C149.96781061 293.82308405 147.7747121 296.35511683 145.58151722 298.88715172 C144.49542578 300.14083774 143.40883159 301.3940884 142.32175159 302.64691734 C136.67238174 309.15868355 131.06533092 315.70640316 125.46140003 322.25726891 C118.77238329 330.07657494 112.06391247 337.87792437 105.31931019 345.64935875 C99.67132896 352.16081158 94.06458691 358.70727289 88.46140003 365.25726891 C81.77238329 373.07657494 75.06391247 380.87792437 68.31931019 388.64935875 C63.6709467 394.00837082 59.04940251 399.389911 54.43796253 404.78070641 C52.4163502 407.14392452 50.38993567 409.50289934 48.35983753 411.85883141 C37.40430915 422.51777395 37.40430915 422.51777395 30.46140003 434.25726891 C47.71172055 436.43906859 47.71172055 436.43906859 63.51999378 431.97211266 C66.41140056 429.09958814 68.39345261 425.75124686 70.46140003 422.25726891 C71.9522707 420.37892583 73.47261833 418.52353711 75.02390003 416.69476891 C75.74706409 415.79629234 76.47022816 414.89781578 77.21530628 413.97211266 C79.54970593 411.15053395 81.98130602 408.45136179 84.46140003 405.75726891 C88.57518912 401.2874177 92.432273 396.66681997 96.24655628 391.94086266 C98.4177283 389.31018334 100.6638136 386.77784466 102.96140003 384.25726891 C106.07598671 380.83987518 109.05326623 377.35204541 111.96140003 373.75726891 C115.57289137 369.29306433 119.34800698 365.02724777 123.21530628 360.78461266 C125.52327601 358.18764498 127.71695866 355.52322878 129.89890003 352.81976891 C133.75848606 348.04730688 137.83339994 343.52617782 141.98874378 339.01117516 C145.20849522 335.42519607 148.22045179 331.69025399 151.24655628 327.94086266 C153.4177283 325.31018334 155.6638136 322.77784466 157.96140003 320.25726891 C161.90829821 315.92530749 165.62274493 311.44061607 169.30905628 306.88617516 C172.27316866 303.26576203 175.34879271 299.75019481 178.46140003 296.25726891 C182.15820545 300.72761512 185.46026959 305.43915996 188.77390003 310.19476891 C189.38274036 311.06649742 189.9915807 311.93822594 190.61887074 312.83637047 C196.44909127 321.20331363 202.1925802 329.62868977 207.92624378 338.06195641 C212.30990167 344.50955217 216.72833199 350.93297989 221.15085316 357.35394859 C223.42295065 360.65373846 225.69197916 363.95563791 227.96140003 367.25726891 C228.87805289 368.59061173 229.79471954 369.92394508 230.71140003 371.25726891 C247.21140003 395.25726891 247.21140003 395.25726891 248.58713245 397.25848961 C249.5011642 398.587887 250.41538857 399.91715198 251.32980824 401.24628258 C253.6634099 404.63875963 255.99331848 408.03367942 258.31686878 411.43305016 C258.79124378 412.12592125 259.26561878 412.81879234 259.75436878 413.53265953 C260.63977503 414.82604709 261.52402663 416.12022642 262.40671253 417.41547203 C263.2384427 418.6293835 264.09249754 419.82831417 264.96864796 421.0105648 C266.46140003 423.25726891 266.46140003 423.25726891 267.67302418 426.01752281 C269.56914624 429.6640827 271.17947625 431.74088813 274.46140003 434.25726891 C281.84936683 436.34598072 289.96723106 435.53217624 297.55515003 435.33148766 C299.83054303 435.31095634 302.10598485 435.29530531 304.38144398 435.28432274 C310.35368969 435.2424385 316.322965 435.13449269 322.29404163 435.01257896 C328.39368983 434.89979547 334.49382089 434.84975872 340.59421253 434.79437828 C352.55124269 434.67661189 364.50607382 434.48902016 376.46140003 434.25726891 C375.2608768 431.17967614 374.11279609 428.4992001 372.16843128 425.82367516 C371.48188465 424.8673922 371.48188465 424.8673922 370.78146839 423.89179039 C370.28397083 423.2080233 369.78647327 422.52425621 369.27390003 421.81976891 C364.38917764 415.00609571 359.60944576 408.13002249 354.89890003 401.19476891 C353.62156364 399.31585766 352.34421999 397.43695134 351.06686878 395.55805016 C350.45504749 394.65780113 349.8432262 393.75755211 349.21286488 392.83002281 C346.72338067 389.1731808 344.21969159 385.52622756 341.71140003 381.88226891 C341.05168201 380.9236898 341.05168201 380.9236898 340.37863636 379.94574547 C339.50694633 378.67953846 338.63512185 377.41342399 337.76315784 376.14740562 C330.92607678 366.22004599 324.10638896 356.28094459 317.30222034 346.33099937 C312.48105504 339.28236987 307.6450943 332.24399991 302.80417347 325.20892906 C300.06208507 321.22342821 297.32200346 317.23654728 294.58151722 313.24994469 C292.3155494 309.9537725 290.04915312 306.65789693 287.78171253 303.36273766 C286.88323888 302.05677295 285.98480165 300.75078317 285.08640003 299.44476891 C284.63418079 298.7874276 284.18196156 298.13008629 283.7160387 297.45282555 C281.28547135 293.91764871 278.86013799 290.3789963 276.44186878 286.83539391 C271.16090953 279.09827021 265.86015802 271.37630643 260.50485706 263.69037437 C259.14876911 261.74389401 257.7942613 259.79631177 256.4413805 257.84760094 C253.15823003 253.11893785 249.85904071 248.4036908 246.51999378 243.71430016 C245.31280946 241.99956416 244.1057708 240.2847256 242.89890003 238.56976891 C242.33235706 237.78601891 241.76581409 237.00226891 241.18210316 236.19476891 C240.67485706 235.46902672 240.16761097 234.74328453 239.64499378 233.99555016 C239.196964 233.36689049 238.74893421 232.73823082 238.28732777 232.09052086 C237.46140003 230.25726891 237.46140003 230.25726891 237.68820667 228.18793297 C238.91220768 225.13160206 241.20404731 223.02164839 243.46140003 220.69476891 C247.15736481 216.78245497 250.70821163 212.82814602 254.08640003 208.63226891 C256.95021786 205.07542755 259.88486331 201.63187838 262.96140003 198.25726891 C266.05695199 194.86128209 269.0129121 191.3955536 271.89890003 187.81976891 C275.75848606 183.04730688 279.83339994 178.52617782 283.98874378 174.01117516 C287.20849522 170.42519607 290.22045179 166.69025399 293.24655628 162.94086266 C296.1262089 159.45175975 299.16833879 156.1272997 302.21530628 152.78461266 C304.52327601 150.18764498 306.71695866 147.52322878 308.89890003 144.81976891 C312.75848606 140.04730688 316.83339994 135.52617782 320.98874378 131.01117516 C324.20849522 127.42519607 327.22045179 123.69025399 330.24655628 119.94086266 C332.4177283 117.31018334 334.6638136 114.77784466 336.96140003 112.25726891 C340.87663999 107.96138062 344.54700266 103.50736967 348.19968128 98.98773766 C351.09236559 95.49553328 354.13557176 92.15943076 357.22311878 88.83930016 C360.16084907 85.45040012 362.80786629 81.87065081 365.46140003 78.25726891 C347.39188926 75.817284 347.39188926 75.817284 330.99655628 81.10492516 C328.14009262 84.1675211 325.91184417 87.60241438 323.76511097 91.18793297 C321.67206822 94.51014838 319.07234671 97.33767194 316.46140003 100.25726891 C315.46921321 101.41128561 314.47963683 102.56755168 313.49265003 103.72601891 C310.330062 107.41570494 307.14693819 111.08739651 303.96140003 114.75726891 C297.76414491 121.897885 291.60750249 129.07261712 285.46140003 136.25726891 C278.77238329 144.07657494 272.06391247 151.87792437 265.31931019 159.64935875 C259.67132896 166.16081158 254.06458691 172.70727289 248.46140003 179.25726891 C240.1646828 188.95593968 231.82967766 198.62025241 223.46140003 208.25726891 C220.49075917 205.45563606 218.23725543 202.62078673 216.02390003 199.19476891 C212.45967841 193.75568722 208.82671626 188.37023478 205.14890003 183.00726891 C204.59033314 182.19209801 204.03176624 181.37692711 203.45627308 180.53705406 C199.01741307 174.06203734 194.57208614 167.59145693 190.12155628 161.12445641 C188.37712514 158.58953022 186.6349679 156.05306882 184.89499378 153.51508141 C180.20532404 146.67796237 175.49154291 139.85850215 170.75021839 133.05707359 C164.70026703 124.37806302 158.67442374 115.68379034 152.71140003 106.94476891 C151.88237171 105.73119713 151.88237171 105.73119713 151.03659534 104.49310875 C150.48068714 103.67664879 149.92477894 102.86018883 149.35202503 102.01898766 C148.77353809 101.2080616 148.19505116 100.39713554 147.59903431 99.56163597 C145.92928727 96.98053162 144.61427217 94.56921578 143.28976917 91.81889915 C138.79477635 82.97040447 138.79477635 82.97040447 131.04378986 77.24733353 C124.02300964 75.71308667 116.88874382 76.19097065 109.75827503 76.49945641 C107.46624263 76.53307732 105.17407985 76.55867675 102.88187122 76.57663536 C96.88105377 76.64500177 90.88822297 76.82142752 84.89053822 77.02130699 C78.75770609 77.20627172 72.62356782 77.28782324 66.48874378 77.37836266 C54.47614103 77.57075628 42.46943731 77.87746638 30.46140003 78.25726891 Z " fill="#000000" transform="translate(52.53859996795654,-0.25726890563964844)"/>
<path d="M0 0 C6.6326189 -0.38294165 13.26236471 -0.64398979 19.90356445 -0.82397461 C22.15757685 -0.8990384 24.41086762 -1.00113984 26.66235352 -1.1315918 C44.82176437 -2.15675225 44.82176437 -2.15675225 50.06283569 1.39984131 C53.49290996 4.81014312 55.79693768 8.70517495 57.94918823 13.00564575 C59.72442145 16.37489228 61.97446587 19.40833555 64.1875 22.5 C65.10306432 23.83751487 66.01744259 25.17584395 66.9296875 26.515625 C70.52698803 31.78148098 74.16916504 37.01593148 77.8125 42.25 C78.49513916 43.23073486 79.17777832 44.21146973 79.88110352 45.22192383 C86.00004532 54.00774477 92.13778985 62.78033732 98.28222656 71.54833984 C101.1896209 75.69786428 104.09468001 79.84902306 107 84 C108.16665575 85.66667431 109.33332241 87.33334098 110.5 89 C112.83333333 92.33333333 115.16666667 95.66666667 117.5 99 C118.07733887 99.8247583 118.65467773 100.6495166 119.24951172 101.49926758 C120.41784967 103.16834507 121.58614384 104.83745322 122.75439453 106.5065918 C125.64513489 110.63662338 128.53659854 114.76614446 131.4296875 118.89453125 C138.31728062 128.72500507 145.18294378 138.57042296 152.03417969 148.42626953 C158.09800618 157.14686679 164.18658311 165.84996444 170.28222656 174.54833984 C173.1896209 178.69786428 176.09468001 182.84902306 179 187 C180.16665575 188.66667431 181.33332241 190.33334098 182.5 192 C189.5 202 196.5 212 203.5 222 C204.07733887 222.8247583 204.65467773 223.6495166 205.24951172 224.49926758 C206.41784967 226.16834507 207.58614384 227.83745322 208.75439453 229.5065918 C211.64513489 233.63662338 214.53659854 237.76614446 217.4296875 241.89453125 C223.63561112 250.75207678 229.82670451 259.6196781 236 268.5 C250.79842188 289.89336476 250.79842188 289.89336476 266 311 C265.67 311.66 265.34 312.32 265 313 C258.50983954 313.38303441 252.02261713 313.64402181 245.52368164 313.82397461 C243.31814761 313.89902571 241.11335062 314.00111832 238.91040039 314.1315918 C221.21082644 315.15295214 221.21082644 315.15295214 216.00094604 311.65957642 C212.53750533 308.23822429 210.23378955 304.24042525 208.02389526 299.93502808 C206.5649581 297.17782773 204.75804739 294.72106206 202.91796875 292.20703125 C201.67257989 290.41016905 200.42910263 288.6119805 199.1875 286.8125 C197.80625403 284.81882718 196.42473875 282.82534091 195.04296875 280.83203125 C194.36411621 279.85186035 193.68526367 278.87168945 192.98583984 277.86181641 C190.00421291 273.56495989 187.00281925 269.28206068 184 265 C178.30118745 256.86871786 172.62811514 248.71975952 166.9609375 240.56640625 C162.08638721 233.55571134 157.19431952 226.55750338 152.29345703 219.56518555 C147.8051668 213.15833883 143.33824876 206.73680916 138.875 200.3125 C133.75592026 192.94597479 128.61389376 185.59682006 123.43261719 178.27392578 C117.84992968 170.38174483 112.31308464 162.45757737 106.7734375 154.53515625 C105.03766367 152.0538408 103.30037486 149.57359426 101.5625 147.09375 C94.67713052 137.26744773 87.81437756 127.42572364 80.96582031 117.57373047 C74.90199382 108.85313321 68.81341689 100.15003556 62.71777344 91.45166016 C59.8103791 87.30213572 56.90531999 83.15097694 54 79 C52.83334425 77.33332569 51.66667759 75.66665902 50.5 74 C48.16666667 70.66666667 45.83333333 67.33333333 43.5 64 C42.92266113 63.1752417 42.34532227 62.3504834 41.75048828 61.50073242 C40.58215033 59.83165493 39.41385616 58.16254678 38.24560547 56.4934082 C35.35486511 52.36337662 32.46340146 48.23385554 29.5703125 44.10546875 C28.42180896 42.4661921 27.27337156 40.82686911 26.125 39.1875 C25.56063232 38.38183594 24.99626465 37.57617188 24.41479492 36.74609375 C19.00348009 29.01542694 13.61810405 21.26675428 8.24072266 13.51245117 C7.60054199 12.59052979 6.96036133 11.6686084 6.30078125 10.71875 C5.73528564 9.90341797 5.16979004 9.08808594 4.5871582 8.24804688 C3.52775822 6.74751541 2.42909026 5.27396684 1.29370117 3.83007812 C0 2 0 2 0 0 Z " fill="#000000" transform="translate(123,100)"/>
</svg>
