<?xml version="1.0" encoding="UTF-8"?>
<svg version="1.1" xmlns="http://www.w3.org/2000/svg" width="512" height="512">
<path d="M0 0 C3.4127795 -0.0028209 6.82554742 -0.00834283 10.23832321 -0.01401138 C48.4714684 -0.05996168 86.55270735 1.08845837 124.66267014 4.24712753 C125.72586472 4.33333359 126.7890593 4.41953964 127.88447189 4.508358 C203.45329523 10.64095804 203.45329523 10.64095804 230.72517014 42.49712753 C248.39509499 64.88111361 251.33328528 89.70038368 253.66267014 117.18462753 C253.881606 119.70555438 254.10068248 122.22646902 254.3198967 124.74737167 C255.82320659 142.21832194 257.20821513 159.69321905 258.00043869 177.21285629 C258.10832622 179.48110253 258.23425759 181.74805648 258.3589592 184.01543808 C259.55148071 207.40080632 259.34608466 230.83852739 259.35017014 254.24712753 C259.35061199 255.40621628 259.35105385 256.56530502 259.35150909 257.75951767 C259.35875572 294.04057255 258.92478929 330.12198116 256.10017014 366.30962753 C255.9106838 368.80832293 255.72123197 371.30702095 255.53181076 373.80572128 C254.94289296 381.47665094 254.312307 389.14362191 253.66267014 396.80962753 C253.51688019 398.56339706 253.51688019 398.56339706 253.36814499 400.35259628 C250.59793098 433.05562966 243.52635407 459.57530659 218.66657639 482.55962753 C198.53608081 499.48378801 175.04345645 504.07311335 149.60017014 506.30962753 C148.68763474 506.39233902 147.77509933 506.47505051 146.83491135 506.5602684 C131.68854945 507.93111497 116.5273434 509.03104944 101.35017014 509.99712753 C99.9235405 510.08812729 99.9235405 510.08812729 98.46809006 510.18096542 C76.42983647 511.57042084 54.44589902 512.46981394 32.36188889 512.47759628 C30.14125169 512.48082873 27.92061468 512.48419408 25.69997787 512.48768234 C21.07043085 512.49361573 16.44090232 512.4955286 11.81135178 512.49493027 C7.1628742 512.49484958 2.51449639 512.50171006 -2.13396072 512.51543808 C-31.78287155 512.6015249 -61.30471895 512.16622122 -90.89982986 510.30962753 C-91.57462513 510.26750263 -92.24942039 510.22537773 -92.944664 510.18197632 C-101.26960027 509.65762318 -109.58548577 509.04219546 -117.89982986 508.37212753 C-118.98919846 508.28592148 -120.07856705 508.19971542 -121.20094681 508.11089706 C-197.15942884 502.08754451 -197.15942884 502.08754451 -224.52482986 470.12212753 C-241.81030939 448.22515082 -245.09286757 423.85384355 -247.39982986 396.93462753 C-247.50588547 395.70282761 -247.61194107 394.47102768 -247.72121048 393.20190048 C-248.38149436 385.45993753 -249.00962275 377.71580692 -249.6141243 369.9692955 C-249.79576518 367.6426159 -249.97948838 365.3160972 -250.16600418 362.98980331 C-255.79237202 292.56681885 -255.76944795 220.04307012 -250.16276932 149.61974716 C-249.87816923 146.03694394 -249.60464735 142.4533776 -249.33147049 138.86968613 C-248.74082161 131.20102675 -248.11058823 123.53611362 -247.46232986 115.87212753 C-247.36513657 114.70099411 -247.26794327 113.52986069 -247.16780472 112.32323837 C-244.40058935 79.59565669 -237.34635313 53.06275337 -212.46623611 30.05962753 C-190.56087504 11.6432977 -165.06019864 8.16957445 -137.52482986 5.80962753 C-136.29336227 5.70357193 -135.06189468 5.59751633 -133.79310989 5.48824692 C-124.83159939 4.72371409 -115.86662619 4.00903555 -106.89982986 3.30962753 C-105.8019313 3.22179001 -104.70403275 3.13395248 -103.57286453 3.04345322 C-69.07014651 0.29471825 -34.59299699 0.02612262 0 0 Z " fill="#E60000" transform="translate(252.89982986450195,-0.3096275329589844)"/>
<path d="M0 0 C3.78788238 0.00537184 7.5756465 0.00000744 11.36352539 -0.00634766 C33.45902054 -0.01370081 55.44517175 0.82093454 77.47485352 2.50537109 C78.76466629 2.60390884 78.76466629 2.60390884 80.08053589 2.70443726 C130.19974169 6.58296814 130.19974169 6.58296814 148.47875977 26.07568359 C166.32821894 47.07974517 163.44727347 89.87646573 163.41235352 115.94287109 C163.41141693 116.84932373 163.41048035 117.75577637 163.40951538 118.68969727 C163.37699409 133.25539082 163.00448056 147.65834994 161.22485352 162.13037109 C161.14708679 162.77872925 161.06932007 163.4270874 160.98919678 164.09509277 C160.4580893 168.50301588 159.88851671 172.90406118 159.27841187 177.30175781 C159.07969774 178.74427816 158.88693675 180.18763414 158.70083618 181.63183594 C156.76967741 196.36774245 151.66572833 206.47447675 140.22485352 216.13037109 C127.79884545 225.31393621 113.03343901 228.8016263 97.91235352 230.13037109 C97.02845947 230.21085693 96.14456543 230.29134277 95.23388672 230.37426758 C87.46624499 231.06095769 79.69056407 231.64043694 71.91235352 232.19287109 C70.2633606 232.31178711 70.2633606 232.31178711 68.58105469 232.43310547 C46.28986113 233.95379456 24.00010004 234.36975546 1.66235352 234.38037109 C0.94806561 234.38110752 0.23377769 234.38184395 -0.5021553 234.38260269 C-27.01955283 234.40475962 -53.34932119 233.45392971 -79.77514648 231.13037109 C-81.23395971 231.006249 -82.69278097 230.88222137 -84.15161133 230.75830078 C-106.99652281 228.78018715 -126.86151151 225.24553058 -142.62670898 206.98583984 C-147.17769047 201.12336862 -149.97182117 195.58148848 -151.09155273 188.16943359 C-151.19304626 187.511483 -151.29453979 186.85353241 -151.39910889 186.17564392 C-151.72438662 184.0371889 -152.03269506 181.89681373 -152.33764648 179.75537109 C-152.44531342 179.01374725 -152.55298035 178.27212341 -152.66390991 177.50802612 C-153.40481285 172.38690333 -154.10509553 167.26122426 -154.77514648 162.13037109 C-154.9137207 161.06931152 -155.05229492 160.00825195 -155.19506836 158.91503906 C-159.53957545 123.47785196 -157.63193633 86.39837257 -151.83764648 51.25537109 C-151.69230469 50.36438721 -151.54696289 49.47340332 -151.3972168 48.55541992 C-148.7440191 33.95301634 -141.87338502 24.38790942 -129.95874023 15.59130859 C-121.75101058 10.09991165 -112.44844408 7.05786928 -102.71264648 5.63037109 C-101.89884521 5.51000488 -101.08504395 5.38963867 -100.24658203 5.265625 C-90.56644157 3.94951409 -80.82541332 3.24186301 -71.08764648 2.50537109 C-70.27230438 2.44293213 -69.45696228 2.38049316 -68.61691284 2.31616211 C-45.75585876 0.58935003 -22.92352212 -0.03852444 0 0 Z " fill="#FEFEFE" transform="translate(252.775146484375,138.86962890625)"/>
<path d="M0 0 C7.07050448 3.85663881 13.95052012 7.72695687 20.75 12 C22.58804873 13.1466239 24.42660896 14.29242817 26.265625 15.4375 C27.20728516 16.02402344 28.14894531 16.61054688 29.11914062 17.21484375 C33.89420221 20.17376327 38.69730557 23.08622462 43.5 26 C51.70743592 30.98338108 59.88865822 36.00632887 68.03979492 41.08129883 C72.81148753 44.04674982 77.60470599 46.97087429 82.42578125 49.85546875 C83.49054688 50.49484375 84.5553125 51.13421875 85.65234375 51.79296875 C87.72809891 53.03739551 89.80743366 54.27587448 91.890625 55.5078125 C92.82003906 56.06597656 93.74945313 56.62414062 94.70703125 57.19921875 C95.5369458 57.69252686 96.36686035 58.18583496 97.22192383 58.6940918 C97.80868896 59.1250415 98.3954541 59.55599121 99 60 C99 60.66 99 61.32 99 62 C97.49731445 63.12231445 97.49731445 63.12231445 95.36328125 64.36328125 C94.56970215 64.83088867 93.77612305 65.29849609 92.95849609 65.78027344 C92.08531738 66.2859082 91.21213867 66.79154297 90.3125 67.3125 C88.456239 68.40620858 86.60079433 69.50130362 84.74609375 70.59765625 C83.30919189 71.44481201 83.30919189 71.44481201 81.84326172 72.30908203 C77.48580406 74.90050842 73.17911437 77.571201 68.875 80.25 C67.11988597 81.33999561 65.3646751 82.4298353 63.609375 83.51953125 C62.70509766 84.0810791 61.80082031 84.64262695 60.86914062 85.22119141 C47.09151123 93.76304026 33.27299275 102.23974807 19.4375 110.6875 C18.51662598 111.25138428 17.59575195 111.81526855 16.64697266 112.39624023 C15.3347876 113.1959021 15.3347876 113.1959021 13.99609375 114.01171875 C13.24513428 114.47022217 12.4941748 114.92872559 11.72045898 115.40112305 C7.85512947 117.67286701 3.91926666 119.82262963 0 122 C0 81.74 0 41.48 0 0 Z " fill="#E60101" transform="translate(218,195)"/>
</svg>
